  0
SECTION
  2
HEADER
  9
$ACADVER
  1
AC1014
  9
$ACADMAINTVER
 70
     9
  9
$DWGCODEPAGE
  3
ANSI_1252
  9
$INSBASE
 10
0.0
 20
0.0
 30
0.0
  9
$EXTMIN
 10
134.2786530817239
 20
80.0024178914509
 30
-0.0000000000000001
  9
$EXTMAX
 10
259.2786530817239
 20
144.3322033137942
 30
0.0000000000000001
  9
$LIMMIN
 10
0.0
 20
0.0
  9
$LIMMAX
 10
12.0
 20
9.0
  9
$ORTHOMODE
 70
     0
  9
$REGENMODE
 70
     1
  9
$FILLMODE
 70
     1
  9
$QTEXTMODE
 70
     0
  9
$MIRRTEXT
 70
     1
  9
$DRAGMODE
 70
     2
  9
$LTSCALE
 40
12.7
  9
$OSMODE
 70
    23
  9
$ATTMODE
 70
     1
  9
$TEXTSIZE
 40
3.5
  9
$TRACEWID
 40
0.05
  9
$TEXTSTYLE
  7
ONSHAPE-STANDARD
  9
$CLAYER
  8
0
  9
$CELTYPE
  6
BYLAYER
  9
$CECOLOR
 62
   256
  9
$CELTSCALE
 40
1.0
  9
$DELOBJ
 70
     1
  9
$DISPSILH
 70
     0
  9
$DIMSCALE
 40
0.25
  9
$DIMASZ
 40
2.5
  9
$DIMEXO
 40
0.625
  9
$DIMDLI
 40
3.75
  9
$DIMRND
 40
0.0
  9
$DIMDLE
 40
0.0
  9
$DIMEXE
 40
1.25
  9
$DIMTP
 40
0.0
  9
$DIMTM
 40
0.0
  9
$DIMTXT
 40
3.5
  9
$DIMCEN
 40
2.5
  9
$DIMTSZ
 40
0.0
  9
$DIMTOL
 70
     0
  9
$DIMLIM
 70
     0
  9
$DIMTIH
 70
     0
  9
$DIMTOH
 70
     0
  9
$DIMSE1
 70
     0
  9
$DIMSE2
 70
     0
  9
$DIMTAD
 70
     1
  9
$DIMZIN
 70
     8
  9
$DIMBLK
  1

  9
$DIMASO
 70
     1
  9
$DIMSHO
 70
     1
  9
$DIMPOST
  1

  9
$DIMAPOST
  1

  9
$DIMALT
 70
     1
  9
$DIMALTD
 70
     3
  9
$DIMALTF
 40
0.0393700787401575
  9
$DIMLFAC
 40
-0.25
  9
$DIMTOFL
 70
     1
  9
$DIMTVP
 40
0.0
  9
$DIMTIX
 70
     0
  9
$DIMSOXD
 70
     0
  9
$DIMSAH
 70
     0
  9
$DIMBLK1
  1

  9
$DIMBLK2
  1

  9
$DIMSTYLE
  2
ONSHAPE-ISO-25
  9
$DIMCLRD
 70
     7
  9
$DIMCLRE
 70
     7
  9
$DIMCLRT
 70
     7
  9
$DIMTFAC
 40
1.0
  9
$DIMGAP
 40
0.625
  9
$DIMJUST
 70
     0
  9
$DIMSD1
 70
     0
  9
$DIMSD2
 70
     0
  9
$DIMTOLJ
 70
     0
  9
$DIMTZIN
 70
     8
  9
$DIMALTZ
 70
     8
  9
$DIMALTTZ
 70
     0
  9
$DIMFIT
 70
     3
  9
$DIMUPT
 70
     1
  9
$DIMUNIT
 70
     2
  9
$DIMDEC
 70
     2
  9
$DIMTDEC
 70
     2
  9
$DIMALTU
 70
     2
  9
$DIMALTTD
 70
     3
  9
$DIMTXSTY
  7
ONSHAPE-STANDARD-DIMENSION
  9
$DIMAUNIT
 70
     0
  9
$LUNITS
 70
     2
  9
$LUPREC
 70
     4
  9
$SKETCHINC
 40
0.1
  9
$FILLETRAD
 40
0.5
  9
$AUNITS
 70
     0
  9
$AUPREC
 70
     0
  9
$MENU
  1
.
  9
$ELEVATION
 40
0.0
  9
$PELEVATION
 40
0.0
  9
$THICKNESS
 40
0.0
  9
$LIMCHECK
 70
     0
  9
$CHAMFERA
 40
0.0
  9
$CHAMFERB
 40
0.0
  9
$CHAMFERC
 40
0.0
  9
$CHAMFERD
 40
0.0
  9
$SKPOLY
 70
     0
  9
$TDCREATE
 40
2461166.430846181
  9
$TDUPDATE
 40
2461166.430846713
  9
$TDINDWG
 40
0.0
  9
$TDUSRTIMER
 40
0.0
  9
$USRTIMER
 70
     1
  9
$ANGBASE
 50
0.0
  9
$ANGDIR
 70
     0
  9
$PDMODE
 70
    33
  9
$PDSIZE
 40
0.25
  9
$PLINEWID
 40
0.0
  9
$COORDS
 70
     1
  9
$SPLFRAME
 70
     0
  9
$SPLINETYPE
 70
     6
  9
$SPLINESEGS
 70
     8
  9
$ATTDIA
 70
     0
  9
$ATTREQ
 70
     1
  9
$HANDLING
 70
     1
  9
$HANDSEED
  5
31E
  9
$SURFTAB1
 70
     6
  9
$SURFTAB2
 70
     6
  9
$SURFTYPE
 70
     6
  9
$SURFU
 70
     6
  9
$SURFV
 70
     6
  9
$UCSNAME
  2

  9
$UCSORG
 10
0.0
 20
0.0
 30
0.0
  9
$UCSXDIR
 10
1.0
 20
0.0
 30
0.0
  9
$UCSYDIR
 10
0.0
 20
1.0
 30
0.0
  9
$PUCSNAME
  2

  9
$PUCSORG
 10
0.0
 20
0.0
 30
0.0
  9
$PUCSXDIR
 10
1.0
 20
0.0
 30
0.0
  9
$PUCSYDIR
 10
0.0
 20
1.0
 30
0.0
  9
$USERI1
 70
     0
  9
$USERI2
 70
     0
  9
$USERI3
 70
     0
  9
$USERI4
 70
     0
  9
$USERI5
 70
     0
  9
$USERR1
 40
0.0
  9
$USERR2
 40
0.0
  9
$USERR3
 40
0.0
  9
$USERR4
 40
0.0
  9
$USERR5
 40
0.0
  9
$WORLDVIEW
 70
     1
  9
$SHADEDGE
 70
     3
  9
$SHADEDIF
 70
    70
  9
$TILEMODE
 70
     1
  9
$MAXACTVP
 70
    64
  9
$PINSBASE
 10
0.0
 20
0.0
 30
0.0
  9
$PLIMCHECK
 70
     0
  9
$PEXTMIN
 10
1.000000000000000E+20
 20
1.000000000000000E+20
 30
1.000000000000000E+20
  9
$PEXTMAX
 10
-1.000000000000000E+20
 20
-1.000000000000000E+20
 30
-1.000000000000000E+20
  9
$PLIMMIN
 10
0.0
 20
0.0
  9
$PLIMMAX
 10
12.0
 20
9.0
  9
$UNITMODE
 70
     0
  9
$VISRETAIN
 70
     1
  9
$PLINEGEN
 70
     0
  9
$PSLTSCALE
 70
     1
  9
$TREEDEPTH
 70
  3020
  9
$PICKSTYLE
 70
     1
  9
$CMLSTYLE
  2
STANDARD
  9
$CMLJUST
 70
     0
  9
$CMLSCALE
 40
1.0
  9
$PROXYGRAPHICS
 70
     1
  9
$MEASUREMENT
 70
     0
  0
ENDSEC
  0
SECTION
  2
CLASSES
  0
CLASS
  1
ACDBDICTIONARYWDFLT
  2
AcDbDictionaryWithDefault
  3
ObjectDBX Classes
 90
        0
280
     0
281
     0
  0
CLASS
  1
VISUALSTYLE
  2
AcDbVisualStyle
  3
ObjectDBX Classes
 90
     4095
280
     0
281
     0
  0
CLASS
  1
MATERIAL
  2
AcDbMaterial
  3
ObjectDBX Classes
 90
     1153
280
     0
281
     0
  0
CLASS
  1
SCALE
  2
AcDbScale
  3
ObjectDBX Classes
 90
     1153
280
     0
281
     0
  0
CLASS
  1
TABLESTYLE
  2
AcDbTableStyle
  3
ObjectDBX Classes
 90
     4095
280
     0
281
     0
  0
CLASS
  1
MLEADERSTYLE
  2
AcDbMLeaderStyle
  3
ACDB_MLEADERSTYLE_CLASS
 90
     4095
280
     0
281
     0
  0
CLASS
  1
SUN
  2
AcDbSun
  3
SCENEOE
 90
     1153
280
     0
281
     0
  0
CLASS
  1
DICTIONARYVAR
  2
AcDbDictionaryVar
  3
ObjectDBX Classes
 90
        0
280
     0
281
     0
  0
CLASS
  1
XRECORD
  2
AcDbXrecord
  3
ObjectDBX Classes
 90
        0
280
     0
281
     0
  0
CLASS
  1
LWPOLYLINE
  2
AcDbPolyline
  3
ObjectDBX Classes
 90
        0
280
     0
281
     1
  0
CLASS
  1
HATCH
  2
AcDbHatch
  3
ObjectDBX Classes
 90
        0
280
     0
281
     1
  0
CLASS
  1
ACDBPLACEHOLDER
  2
AcDbPlaceHolder
  3
ObjectDBX Classes
 90
        0
280
     0
281
     0
  0
CLASS
  1
LAYOUT
  2
AcDbLayout
  3
ObjectDBX Classes
 90
        0
280
     0
281
     0
  0
ENDSEC
  0
SECTION
  2
TABLES
  0
TABLE
  2
VPORT
  5
8
102
{ACAD_XDICTIONARY
360
313
102
}
330
0
100
AcDbSymbolTable
 70
     1
  0
VPORT
  5
29
330
8
100
AcDbSymbolTableRecord
100
AcDbViewportTableRecord
  2
*ACTIVE
 70
     0
 10
0.0
 20
0.0
 11
1.0
 21
1.0
 12
196.7786530817239
 22
111.9971385998978
 13
0.0
 23
0.0
 14
0.5
 24
0.5
 15
0.5
 25
0.5
 16
0.0
 26
0.0
 36
1.0
 17
0.0
 27
0.0
 37
0.0
 40
65.96353201634878
 41
1.932886188817174
 42
50.0
 43
0.0
 44
0.0
 50
0.0
 51
0.0
 71
     0
 72
   100
 73
     1
 74
     3
 75
     0
 76
     0
 77
     0
 78
     0
  0
ENDTAB
  0
TABLE
  2
LTYPE
  5
5
330
0
100
AcDbSymbolTable
 70
     1
  0
LTYPE
  5
14
330
5
100
AcDbSymbolTableRecord
100
AcDbLinetypeTableRecord
  2
BYBLOCK
 70
     0
  3

 72
    65
 73
     0
 40
0.0
  0
LTYPE
  5
15
330
5
100
AcDbSymbolTableRecord
100
AcDbLinetypeTableRecord
  2
BYLAYER
 70
     0
  3

 72
    65
 73
     0
 40
0.0
  0
LTYPE
  5
16
330
5
100
AcDbSymbolTableRecord
100
AcDbLinetypeTableRecord
  2
CONTINUOUS
 70
     0
  3
Solid line
 72
    65
 73
     0
 40
0.0
  0
ENDTAB
  0
TABLE
  2
LAYER
  5
2
330
0
100
AcDbSymbolTable
 70
     4
  0
LAYER
  5
10
330
2
100
AcDbSymbolTableRecord
100
AcDbLayerTableRecord
  2
0
 70
     0
 62
     7
  6
CONTINUOUS
  0
LAYER
  5
70
330
2
100
AcDbSymbolTableRecord
100
AcDbLayerTableRecord
  2
DEFPOINTS
 70
     0
 62
     7
  6
CONTINUOUS
  0
LAYER
  5
74
330
2
100
AcDbSymbolTableRecord
100
AcDbLayerTableRecord
  2
VISIBLE
 70
     0
 62
     7
  6
CONTINUOUS
  0
LAYER
  5
281
330
2
100
AcDbSymbolTableRecord
100
AcDbLayerTableRecord
  2
ANNOTATION_TEXT
 70
     0
 62
     7
  6
CONTINUOUS
  0
ENDTAB
  0
TABLE
  2
STYLE
  5
3
330
0
100
AcDbSymbolTable
 70
    36
  0
STYLE
  5
11
330
3
100
AcDbSymbolTableRecord
100
AcDbTextStyleTableRecord
  2
STANDARD
 70
     0
 40
0.0
 41
1.0
 50
0.0
 71
     0
 42
3.5
  3
txt
  4

  0
STYLE
  5
71
330
3
100
AcDbSymbolTableRecord
100
AcDbTextStyleTableRecord
  2
ONSHAPE-STANDARD
 70
     0
 40
0.0
 41
1.0
 50
0.0
 71
     0
 42
3.5
  3
NotoSans-Regular.ttf
  4

1001
ACAD
1000
Noto Sans
1071
        0
  0
STYLE
  5
73
330
3
100
AcDbSymbolTableRecord
100
AcDbTextStyleTableRecord
  2
ONSHAPE-STANDARD-DIMENSION
 70
     0
 40
0.0
 41
1.0
 50
0.0
 71
     0
 42
3.5
  3

  4

1001
ACAD
1000
Noto Sans
1071
        0
  0
STYLE
  5
284
330
3
100
AcDbSymbolTableRecord
100
AcDbTextStyleTableRecord
  2
ONSHAPE-STANDARD-VIEW-LABE
 70
     0
 40
3.5
 41
1.0
 50
0.0
 71
     0
 42
3.5
  3
NotoSans-Regular.ttf
  4

1001
ACAD
1000
Noto Sans
1071
        0
  0
STYLE
  5
295
330
3
100
AcDbSymbolTableRecord
100
AcDbTextStyleTableRecord
  2
ONSHAPE-STANDARD-TCFIELDS
 70
     0
 40
0.0
 41
1.0
 50
0.0
 71
     0
 42
3.5
  3
NotoSansTC-Regular.otf
  4

1001
ACAD
1000
Noto Sans TC
1071
        0
  0
STYLE
  5
296
330
3
100
AcDbSymbolTableRecord
100
AcDbTextStyleTableRecord
  2
ONSHAPE-STANDARD-SCFIELDS
 70
     0
 40
0.0
 41
1.0
 50
0.0
 71
     0
 42
3.5
  3
NotoSansSC-Regular.otf
  4

1001
ACAD
1000
Noto Sans SC
1071
        0
  0
STYLE
  5
297
330
3
100
AcDbSymbolTableRecord
100
AcDbTextStyleTableRecord
  2
ONSHAPE-STANDARD-KOREANFIE
 70
     0
 40
0.0
 41
1.0
 50
0.0
 71
     0
 42
3.5
  3
NotoSansKR-Regular.otf
  4

1001
ACAD
1000
Noto Sans KR
1071
        0
  0
STYLE
  5
298
330
3
100
AcDbSymbolTableRecord
100
AcDbTextStyleTableRecord
  2
ONSHAPE-STANDARD-JAPANESEF
 70
     0
 40
0.0
 41
1.0
 50
0.0
 71
     0
 42
3.5
  3
NotoSansJP-Regular.otf
  4

1001
ACAD
1000
Noto Sans JP
1071
        0
  0
STYLE
  5
29A
330
3
100
AcDbSymbolTableRecord
100
AcDbTextStyleTableRecord
  2
ONSHAPE-STANDARD-BOLD
 70
     0
 40
0.0
 41
1.0
 50
0.0
 71
     0
 42
3.5
  3
NotoSans-Bold.ttf
  4

1001
ACAD
1000
Noto Sans
1071
 33554432
  0
STYLE
  5
29B
330
3
100
AcDbSymbolTableRecord
100
AcDbTextStyleTableRecord
  2
ONSHAPE-STANDARD-FIELDS
 70
     0
 40
0.0
 41
1.0
 50
0.0
 71
     0
 42
3.5
  3

  4

1001
ACAD
1000
Noto Sans
1071
        0
  0
STYLE
  5
29D
330
3
100
AcDbSymbolTableRecord
100
AcDbTextStyleTableRecord
  2
TTFSTYLE
 70
     0
 40
0.0
 41
1.0
 50
0.0
 71
     0
 42
3.5
  3

  4

1001
ACAD
1000
Verdana
1071
       34
  0
STYLE
  5
29E
330
3
100
AcDbSymbolTableRecord
100
AcDbTextStyleTableRecord
  2
ONSHAPE-STANDARD-GTOLERANC
 70
     0
 40
0.0
 41
1.0
 50
0.0
 71
     0
 42
3.5
  3

  4

1001
ACAD
1000
Noto Sans
1071
        0
  0
STYLE
  5
29F
330
3
100
AcDbSymbolTableRecord
100
AcDbTextStyleTableRecord
  2
ONSHAPE-STANDARD-TABLE-DAT
 70
     0
 40
0.0
 41
1.0
 50
0.0
 71
     0
 42
3.5
  3
NotoSans-Regular.ttf
  4

1001
ACAD
1000
Noto Sans
1071
        0
  0
STYLE
  5
2A0
330
3
100
AcDbSymbolTableRecord
100
AcDbTextStyleTableRecord
  2
ONSHAPE-STANDARD-TABLE-TIT
 70
     0
 40
0.0
 41
1.0
 50
0.0
 71
     0
 42
3.5
  3
NotoSans-Bold.ttf
  4

1001
ACAD
1000
Noto Sans
1071
 33554432
  0
STYLE
  5
2A1
330
3
100
AcDbSymbolTableRecord
100
AcDbTextStyleTableRecord
  2
ONSHAPE-STANDARD-TABLE-HEA
 70
     0
 40
0.0
 41
1.0
 50
0.0
 71
     0
 42
3.5
  3
NotoSans-Bold.ttf
  4

1001
ACAD
1000
Noto Sans
1071
 33554432
  0
STYLE
  5
2A2
330
3
100
AcDbSymbolTableRecord
100
AcDbTextStyleTableRecord
  2
ONSHAPE-STANDARD-BOMTABLE-
 70
     0
 40
0.0
 41
1.0
 50
0.0
 71
     0
 42
3.5
  3
NotoSans-Regular.ttf
  4

1001
ACAD
1000
Noto Sans
1071
        0
  0
STYLE
  5
2A3
330
3
100
AcDbSymbolTableRecord
100
AcDbTextStyleTableRecord
  2
ONSHAPE-STANDARD-BOMTABLE0
 70
     0
 40
0.0
 41
1.0
 50
0.0
 71
     0
 42
3.5
  3
NotoSans-Bold.ttf
  4

1001
ACAD
1000
Noto Sans
1071
 33554432
  0
STYLE
  5
2A4
330
3
100
AcDbSymbolTableRecord
100
AcDbTextStyleTableRecord
  2
ONSHAPE-STANDARD-BOMTABLE1
 70
     0
 40
0.0
 41
1.0
 50
0.0
 71
     0
 42
3.5
  3
NotoSans-Bold.ttf
  4

1001
ACAD
1000
Noto Sans
1071
 33554432
  0
STYLE
  5
2A5
330
3
100
AcDbSymbolTableRecord
100
AcDbTextStyleTableRecord
  2
ONSHAPE-STANDARD-NOTESTYLE
 70
     0
 40
3.5
 41
1.0
 50
0.0
 71
     0
 42
3.5
  3
NotoSans-Regular.ttf
  4

1001
ACAD
1000
Noto Sans
1071
        0
  0
STYLE
  5
2A6
330
3
100
AcDbSymbolTableRecord
100
AcDbTextStyleTableRecord
  2
ONSHAPE-STANDARD-DATUM-DIM
 70
     0
 40
3.5
 41
1.0
 50
0.0
 71
     0
 42
3.5
  3
NotoSans-Regular.ttf
  4

1001
ACAD
1000
Noto Sans
1071
        0
  0
STYLE
  5
2A8
330
3
100
AcDbSymbolTableRecord
100
AcDbTextStyleTableRecord
  2
ONSHAPE-DETAIL-VIEW-LEADER
 70
     0
 40
3.5
 41
1.0
 50
0.0
 71
     0
 42
3.5
  3
NotoSans-Regular.ttf
  4

1001
ACAD
1000
Noto Sans
1071
        0
  0
STYLE
  5
2A9
330
3
100
AcDbSymbolTableRecord
100
AcDbTextStyleTableRecord
  2
ONSHAPE-STANDARD-HOLE-CALL
 70
     0
 40
3.5
 41
1.0
 50
0.0
 71
     0
 42
3.5
  3
NotoSans-Regular.ttf
  4

1001
ACAD
1000
Noto Sans
1071
        0
  0
STYLE
  5
2AA
330
3
100
AcDbSymbolTableRecord
100
AcDbTextStyleTableRecord
  2
ONSHAPE-STANDARD-HOLETABLE
 70
     0
 40
0.0
 41
1.0
 50
0.0
 71
     0
 42
3.5
  3
NotoSans-Regular.ttf
  4

1001
ACAD
1000
Noto Sans
1071
        0
  0
STYLE
  5
2AB
330
3
100
AcDbSymbolTableRecord
100
AcDbTextStyleTableRecord
  2
ONSHAPE-STANDARD-HOLETABL0
 70
     0
 40
0.0
 41
1.0
 50
0.0
 71
     0
 42
3.5
  3
NotoSans-Bold.ttf
  4

1001
ACAD
1000
Noto Sans
1071
 33554432
  0
STYLE
  5
2AC
330
3
100
AcDbSymbolTableRecord
100
AcDbTextStyleTableRecord
  2
ONSHAPE-STANDARD-HOLETABL1
 70
     0
 40
0.0
 41
1.0
 50
0.0
 71
     0
 42
3.5
  3
NotoSans-Bold.ttf
  4

1001
ACAD
1000
Noto Sans
1071
 33554432
  0
STYLE
  5
2AD
330
3
100
AcDbSymbolTableRecord
100
AcDbTextStyleTableRecord
  2
ONSHAPE-STANDARD-HOLE-TAG
 70
     0
 40
3.5
 41
1.0
 50
0.0
 71
     0
 42
3.5
  3
NotoSans-Regular.ttf
  4

1001
ACAD
1000
Noto Sans
1071
        0
  0
STYLE
  5
2AE
330
3
100
AcDbSymbolTableRecord
100
AcDbTextStyleTableRecord
  2
ONSHAPE-STANDARD-REVISIONT
 70
     0
 40
0.0
 41
1.0
 50
0.0
 71
     0
 42
3.5
  3
NotoSans-Regular.ttf
  4

1001
ACAD
1000
Noto Sans
1071
        0
  0
STYLE
  5
2AF
330
3
100
AcDbSymbolTableRecord
100
AcDbTextStyleTableRecord
  2
ONSHAPE-STANDARD-REVISION0
 70
     0
 40
0.0
 41
1.0
 50
0.0
 71
     0
 42
3.5
  3
NotoSans-Bold.ttf
  4

1001
ACAD
1000
Noto Sans
1071
 33554432
  0
STYLE
  5
2B0
330
3
100
AcDbSymbolTableRecord
100
AcDbTextStyleTableRecord
  2
ONSHAPE-STANDARD-REVISION1
 70
     0
 40
0.0
 41
1.0
 50
0.0
 71
     0
 42
3.5
  3
NotoSans-Bold.ttf
  4

1001
ACAD
1000
Noto Sans
1071
 33554432
  0
STYLE
  5
2B1
330
3
100
AcDbSymbolTableRecord
100
AcDbTextStyleTableRecord
  2
ONSHAPE-STANDARD-REVISION-
 70
     0
 40
3.5
 41
1.0
 50
0.0
 71
     0
 42
3.5
  3
NotoSans-Regular.ttf
  4

1001
ACAD
1000
Noto Sans
1071
        0
  0
STYLE
  5
2B2
330
3
100
AcDbSymbolTableRecord
100
AcDbTextStyleTableRecord
  2
ONSHAPE-STANDARD-CUTLISTTA
 70
     0
 40
0.0
 41
1.0
 50
0.0
 71
     0
 42
3.5
  3
NotoSans-Regular.ttf
  4

1001
ACAD
1000
Noto Sans
1071
        0
  0
STYLE
  5
2B3
330
3
100
AcDbSymbolTableRecord
100
AcDbTextStyleTableRecord
  2
ONSHAPE-STANDARD-CUTLISTT0
 70
     0
 40
0.0
 41
1.0
 50
0.0
 71
     0
 42
3.5
  3
NotoSans-Bold.ttf
  4

1001
ACAD
1000
Noto Sans
1071
 33554432
  0
STYLE
  5
2B4
330
3
100
AcDbSymbolTableRecord
100
AcDbTextStyleTableRecord
  2
ONSHAPE-STANDARD-CUTLISTT1
 70
     0
 40
0.0
 41
1.0
 50
0.0
 71
     0
 42
3.5
  3
NotoSans-Bold.ttf
  4

1001
ACAD
1000
Noto Sans
1071
 33554432
  0
STYLE
  5
2B5
330
3
100
AcDbSymbolTableRecord
100
AcDbTextStyleTableRecord
  2
ONSHAPE-STANDARD-CUSTOMTAB
 70
     0
 40
0.0
 41
1.0
 50
0.0
 71
     0
 42
3.5
  3
NotoSans-Regular.ttf
  4

1001
ACAD
1000
Noto Sans
1071
        0
  0
STYLE
  5
2B6
330
3
100
AcDbSymbolTableRecord
100
AcDbTextStyleTableRecord
  2
ONSHAPE-STANDARD-CUSTOMTA0
 70
     0
 40
0.0
 41
1.0
 50
0.0
 71
     0
 42
3.5
  3
NotoSans-Bold.ttf
  4

1001
ACAD
1000
Noto Sans
1071
 33554432
  0
STYLE
  5
2B7
330
3
100
AcDbSymbolTableRecord
100
AcDbTextStyleTableRecord
  2
ONSHAPE-STANDARD-CUSTOMTA1
 70
     0
 40
0.0
 41
1.0
 50
0.0
 71
     0
 42
3.5
  3
NotoSans-Bold.ttf
  4

1001
ACAD
1000
Noto Sans
1071
 33554432
  0
ENDTAB
  0
TABLE
  2
VIEW
  5
6
330
0
100
AcDbSymbolTable
 70
     0
  0
ENDTAB
  0
TABLE
  2
UCS
  5
7
330
0
100
AcDbSymbolTable
 70
     0
  0
ENDTAB
  0
TABLE
  2
APPID
  5
9
330
0
100
AcDbSymbolTable
 70
     3
  0
APPID
  5
12
330
9
100
AcDbSymbolTableRecord
100
AcDbRegAppTableRecord
  2
ACAD
 70
     0
  0
APPID
  5
288
330
9
100
AcDbSymbolTableRecord
100
AcDbRegAppTableRecord
  2
ONSHAPE_NOTES_ANNOTATION_D
 70
     0
  0
APPID
  5
31D
330
9
100
AcDbSymbolTableRecord
100
AcDbRegAppTableRecord
  2
ACAD_MLEADERVER
 70
     0
  0
ENDTAB
  0
TABLE
  2
DIMSTYLE
  5
A
330
0
100
AcDbSymbolTable
 70
    23
  0
DIMSTYLE
105
27
330
A
100
AcDbSymbolTableRecord
100
AcDbDimStyleTableRecord
  2
STANDARD
 70
     0
  3

  4

  5

  6

  7

 40
0.25
 41
0.18
 42
0.0625
 43
0.38
 44
0.18
 45
0.0
 46
0.0
 47
0.0
 48
0.0
140
0.18
141
0.09
142
0.0
143
0.0393700787401575
144
1.0
145
0.0
146
1.0
147
0.09
 71
     0
 72
     0
 73
     1
 74
     1
 75
     0
 76
     0
 77
     0
 78
     0
170
     0
171
     2
172
     0
173
     0
174
     0
175
     0
176
     0
177
     0
178
     0
270
     2
271
     4
272
     4
273
     2
274
     2
340
11
275
     0
280
     0
281
     0
282
     0
283
     1
284
     0
285
     0
286
     0
287
     3
288
     0
  0
DIMSTYLE
105
72
330
A
100
AcDbSymbolTableRecord
100
AcDbDimStyleTableRecord
  2
ONSHAPE-ISO-25
 70
     0
  3

  4

  5

  6

  7

 40
0.25
 41
2.5
 42
0.625
 43
3.75
 44
1.25
 45
0.0
 46
0.0
 47
0.0
 48
0.0
140
3.5
141
2.5
142
0.0
143
0.0393700787401575
144
1.0
145
0.0
146
1.0
147
0.625
 71
     0
 72
     0
 73
     0
 74
     0
 75
     0
 76
     0
 77
     1
 78
     8
170
     0
171
     3
172
     1
173
     0
174
     0
175
     0
176
     7
177
     7
178
     7
179
     1
270
     2
271
     2
272
     2
273
     2
274
     3
340
73
275
     0
280
     0
281
     0
282
     0
283
     0
284
     8
285
     8
286
     0
287
     3
288
     1
  0
DIMSTYLE
105
2B8
330
A
100
AcDbSymbolTableRecord
100
AcDbDimStyleTableRecord
  2
ISO-25
 70
     0
  3

  4

  5

  6

  7

 40
0.25
 41
2.5
 42
0.625
 43
3.75
 44
1.25
 45
0.0
 46
0.0
 47
0.0
 48
0.0
140
2.5
141
2.5
142
0.0
143
0.0393700787401575
144
1.0
145
0.0
146
1.0
147
0.625
 71
     0
 72
     0
 73
     0
 74
     0
 75
     0
 76
     0
 77
     1
 78
     8
170
     0
171
     3
172
     1
173
     0
174
     0
175
     0
176
     7
177
     7
178
     7
270
     2
271
     2
272
     2
273
     2
274
     3
340
11
275
     0
280
     0
281
     0
282
     0
283
     0
284
     8
285
     0
286
     0
287
     3
288
     1
  0
DIMSTYLE
105
2BA
330
A
100
AcDbSymbolTableRecord
100
AcDbDimStyleTableRecord
  2
ISO
 70
     0
  3

  4
"
  5

  6

  7

 40
0.25
 41
3.5
 42
1.0
 43
10.0
 44
1.0
 45
0.0
 46
0.0
 47
0.1
 48
0.1
140
3.5
141
0.0
142
0.0
143
0.0393700787401575
144
1.0
145
0.0
146
0.71
147
1.5
 71
     0
 72
     0
 73
     0
 74
     0
 75
     0
 76
     0
 77
     1
 78
     8
170
     0
171
     3
172
     1
173
     0
174
     0
175
     0
176
     7
177
     7
178
     7
270
     2
271
     2
272
     3
273
     2
274
     3
340
11
275
     0
280
     0
281
     0
282
     0
283
     0
284
     8
285
     8
286
     0
287
     3
288
     1
  0
DIMSTYLE
105
2BB
330
A
100
AcDbSymbolTableRecord
100
AcDbDimStyleTableRecord
  2
ISO$3
 70
     0
  3

  4
"
  5

  6

  7

 40
0.25
 41
3.5
 42
1.0
 43
10.0
 44
1.0
 45
0.0
 46
0.0
 47
0.1
 48
0.1
140
3.5
141
0.0
142
0.0
143
0.0393700787401575
144
1.0
145
0.0
146
0.71
147
1.5
 71
     0
 72
     0
 73
     0
 74
     1
 75
     0
 76
     0
 77
     1
 78
     8
170
     0
171
     3
172
     0
173
     0
174
     0
175
     0
176
     7
177
     7
178
     7
270
     2
271
     2
272
     3
273
     2
274
     3
340
11
275
     0
280
     0
281
     0
282
     0
283
     0
284
     8
285
     8
286
     0
288
     1
  0
DIMSTYLE
105
2BC
330
A
100
AcDbSymbolTableRecord
100
AcDbDimStyleTableRecord
  2
ISO$4
 70
     0
  3

  4
"
  5

  6

  7

 40
0.25
 41
3.5
 42
1.0
 43
10.0
 44
1.0
 45
0.0
 46
0.0
 47
0.1
 48
0.1
140
3.5
141
0.0
142
0.0
143
0.0393700787401575
144
1.0
145
0.0
146
0.71
147
1.5
 71
     0
 72
     0
 73
     0
 74
     0
 75
     0
 76
     0
 77
     1
 78
     8
170
     0
171
     3
172
     1
173
     0
174
     0
175
     0
176
     7
177
     7
178
     7
270
     2
271
     2
272
     3
273
     2
274
     3
340
11
275
     0
280
     0
281
     0
282
     0
283
     0
284
     8
285
     8
286
     0
287
     3
288
     1
  0
DIMSTYLE
105
2BD
330
A
100
AcDbSymbolTableRecord
100
AcDbDimStyleTableRecord
  2
ISO$6
 70
     0
  3

  4
"
  5

  6

  7

 40
0.25
 41
0.5
 42
1.0
 43
10.0
 44
1.0
 45
0.0
 46
0.0
 47
0.1
 48
0.1
140
3.5
141
0.0
142
0.0
143
0.0393700787401575
144
1.0
145
0.0
146
0.71
147
1.5
 71
     0
 72
     0
 73
     0
 74
     0
 75
     0
 76
     0
 77
     0
 78
     8
170
     0
171
     3
172
     1
173
     0
174
     0
175
     0
176
     7
177
     7
178
     7
270
     2
271
     2
272
     3
273
     2
274
     3
340
11
275
     0
280
     0
281
     0
282
     0
283
     0
284
     8
285
     8
286
     0
287
     3
288
     1
  0
DIMSTYLE
105
2BE
330
A
100
AcDbSymbolTableRecord
100
AcDbDimStyleTableRecord
  2
ISO$7
 70
     0
  3

  4
"
  5

  6

  7

 40
0.25
 41
3.5
 42
1.0
 43
10.0
 44
1.0
 45
0.0
 46
0.0
 47
0.1
 48
0.1
140
3.5
141
0.0
142
0.0
143
0.0393700787401575
144
1.0
145
0.0
146
0.71
147
1.5
 71
     0
 72
     0
 73
     0
 74
     0
 75
     0
 76
     0
 77
     1
 78
     8
170
     0
171
     3
172
     1
173
     0
174
     0
175
     0
176
     7
177
     7
178
     7
270
     2
271
     2
272
     3
273
     2
274
     3
340
11
275
     0
280
     0
281
     0
282
     0
283
     0
284
     8
285
     8
286
     0
287
     3
288
     1
  0
DIMSTYLE
105
2BF
330
A
100
AcDbSymbolTableRecord
100
AcDbDimStyleTableRecord
  2
ISO$SF
 70
     0
  3

  4
"
  5

  6

  7

 40
0.25
 41
3.5
 42
1.0
 43
10.0
 44
1.0
 45
0.0
 46
0.0
 47
0.1
 48
0.1
140
3.5
141
0.0
142
0.0
143
0.0393700787401575
144
1.0
145
0.0
146
0.71
147
1.5
 71
     0
 72
     0
 73
     0
 74
     0
 75
     1
 76
     1
 77
     1
 78
     8
170
     0
171
     3
172
     1
173
     0
174
     0
175
     0
176
     7
177
     7
178
     7
270
     2
271
     2
272
     3
273
     2
274
     3
340
11
275
     0
280
     0
281
     0
282
     0
283
     0
284
     8
285
     8
286
     0
287
     3
288
     1
  0
DIMSTYLE
105
2C0
330
A
100
AcDbSymbolTableRecord
100
AcDbDimStyleTableRecord
  2
ISO$SH
 70
     0
  3

  4
"
  5

  6

  7

 40
0.25
 41
3.5
 42
1.0
 43
10.0
 44
1.0
 45
0.0
 46
0.0
 47
0.1
 48
0.1
140
3.5
141
0.0
142
0.0
143
0.0393700787401575
144
2.0
145
0.0
146
0.71
147
1.5
 71
     0
 72
     0
 73
     0
 74
     0
 75
     1
 76
     1
 77
     1
 78
     8
170
     0
171
     3
172
     1
173
     1
174
     0
175
     0
176
     7
177
     7
178
     7
270
     2
271
     2
272
     3
273
     2
274
     3
340
11
275
     0
280
     0
281
     0
282
     0
283
     0
284
     8
285
     8
286
     0
287
     3
288
     1
  0
DIMSTYLE
105
2C3
330
A
100
AcDbSymbolTableRecord
100
AcDbDimStyleTableRecord
  2
ONSHAPE-ISO-25$0
 70
     0
  3

  4

  5

  6

  7

 40
0.25
 41
2.5
 42
0.625
 43
3.75
 44
1.25
 45
0.0
 46
0.0
 47
0.0
 48
0.0
140
3.5
141
2.5
142
0.0
143
0.0393700787401575
144
1.0
145
0.0
146
1.0
147
0.625
 71
     0
 72
     0
 73
     0
 74
     0
 75
     0
 76
     0
 77
     1
 78
     8
170
     0
171
     3
172
     1
173
     0
174
     0
175
     0
176
     7
177
     7
178
     7
179
     1
270
     2
271
     2
272
     2
273
     2
274
     3
340
73
275
     0
280
     0
281
     0
282
     0
283
     0
284
     8
285
     8
286
     0
287
     3
288
     1
  0
DIMSTYLE
105
2C4
330
A
100
AcDbSymbolTableRecord
100
AcDbDimStyleTableRecord
  2
ONSHAPE-ISO-25$2
 70
     0
  3

  4

  5

  6

  7

 40
0.25
 41
2.5
 42
0.625
 43
3.75
 44
1.25
 45
0.0
 46
0.0
 47
0.0
 48
0.0
140
3.5
141
2.5
142
0.0
143
0.0393700787401575
144
1.0
145
0.0
146
1.0
147
0.625
 71
     0
 72
     0
 73
     0
 74
     0
 75
     0
 76
     0
 77
     1
 78
     8
170
     0
171
     3
172
     1
173
     0
174
     0
175
     0
176
     7
177
     7
178
     7
179
     1
270
     2
271
     2
272
     2
273
     2
274
     3
340
73
275
     0
280
     0
281
     0
282
     0
283
     0
284
     8
285
     8
286
     0
287
     3
288
     1
  0
DIMSTYLE
105
2C5
330
A
100
AcDbSymbolTableRecord
100
AcDbDimStyleTableRecord
  2
ONSHAPE-ISO-25$3
 70
     0
  3

  4

  5

  6

  7

 40
0.25
 41
2.5
 42
0.625
 43
3.75
 44
1.25
 45
0.0
 46
0.0
 47
0.0
 48
0.0
140
3.5
141
0.0
142
0.0
143
0.0393700787401575
144
1.0
145
0.0
146
1.0
147
0.625
 71
     0
 72
     0
 73
     0
 74
     0
 75
     0
 76
     0
 77
     1
 78
     8
170
     0
171
     3
172
     1
173
     0
174
     0
175
     0
176
     7
177
     7
178
     7
179
     1
270
     2
271
     2
272
     2
273
     2
274
     3
340
73
275
     0
280
     0
281
     0
282
     0
283
     0
284
     8
285
     8
286
     0
287
     3
288
     1
  0
DIMSTYLE
105
2C6
330
A
100
AcDbSymbolTableRecord
100
AcDbDimStyleTableRecord
  2
ONSHAPE-ISO-25$4
 70
     0
  3

  4

  5

  6

  7

 40
0.25
 41
2.5
 42
0.625
 43
3.75
 44
1.25
 45
0.0
 46
0.0
 47
0.0
 48
0.0
140
3.5
141
0.0
142
0.0
143
0.0393700787401575
144
1.0
145
0.0
146
1.0
147
0.625
 71
     0
 72
     0
 73
     0
 74
     0
 75
     0
 76
     0
 77
     1
 78
     8
170
     0
171
     3
172
     1
173
     0
174
     0
175
     0
176
     7
177
     7
178
     7
179
     1
270
     2
271
     2
272
     2
273
     2
274
     3
340
73
275
     0
280
     0
281
     0
282
     0
283
     0
284
     8
285
     8
286
     0
287
     3
288
     1
  0
DIMSTYLE
105
2C7
330
A
100
AcDbSymbolTableRecord
100
AcDbDimStyleTableRecord
  2
ONSHAPE-ISO-25$6
 70
     0
  3

  4

  5

  6

  7

 40
0.25
 41
0.5
 42
0.625
 43
3.75
 44
1.25
 45
0.0
 46
0.0
 47
0.0
 48
0.0
140
3.5
141
2.5
142
0.0
143
0.0393700787401575
144
1.0
145
0.0
146
1.0
147
0.625
 71
     0
 72
     0
 73
     0
 74
     0
 75
     0
 76
     0
 77
     1
 78
     8
170
     0
171
     3
172
     1
173
     0
174
     0
175
     0
176
     7
177
     7
178
     7
179
     1
270
     2
271
     2
272
     2
273
     2
274
     3
340
73
275
     0
280
     0
281
     0
282
     0
283
     0
284
     8
285
     8
286
     0
287
     3
288
     1
  0
DIMSTYLE
105
2C8
330
A
100
AcDbSymbolTableRecord
100
AcDbDimStyleTableRecord
  2
ONSHAPE-ISO-25$7
 70
     0
  3

  4

  5

  6

  7

 40
0.25
 41
2.5
 42
0.625
 43
3.75
 44
1.25
 45
0.0
 46
0.0
 47
0.0
 48
0.0
140
3.5
141
2.5
142
0.0
143
0.0393700787401575
144
1.0
145
0.0
146
1.0
147
0.625
 71
     0
 72
     0
 73
     0
 74
     0
 75
     0
 76
     0
 77
     1
 78
     8
170
     0
171
     3
172
     1
173
     0
174
     0
175
     0
176
     7
177
     7
178
     7
179
     1
270
     2
271
     2
272
     2
273
     2
274
     3
340
73
275
     0
280
     0
281
     0
282
     0
283
     0
284
     8
285
     8
286
     0
287
     3
288
     1
  0
DIMSTYLE
105
2C9
330
A
100
AcDbSymbolTableRecord
100
AcDbDimStyleTableRecord
  2
ONSHAPE-STANDARD-GTOLERANC
 70
     0
  3

  4

  5

  6

  7

 40
1.0
 41
2.5
 42
0.625
 43
3.75
 44
1.25
 45
0.0
 46
0.0
 47
0.0
 48
0.0
140
3.5
141
2.5
142
0.0
143
0.03937
144
1.0
145
0.0
146
1.0
147
0.625
 71
     0
 72
     0
 73
     0
 74
     0
 75
     0
 76
     0
 77
     1
 78
     8
170
     0
171
     3
172
     1
173
     0
174
     0
175
     0
176
     7
177
     7
178
     7
179
     1
270
     2
271
     2
272
     2
273
     2
274
     3
340
29E
275
     0
280
     0
281
     0
282
     0
283
     0
284
     8
285
     8
286
     0
287
     3
288
     1
  0
DIMSTYLE
105
2CB
330
A
100
AcDbSymbolTableRecord
100
AcDbDimStyleTableRecord
  2
ONSHAPE-ORDINATESTYLE
 70
     0
  3

  4

  5

  6

  7

 40
0.25
 41
2.5
 42
0.625
 43
3.75
 44
1.25
 45
0.0
 46
0.0
 47
0.0
 48
0.0
140
3.5
141
2.5
142
0.0
143
0.0393700787401575
144
1.0
145
0.0
146
1.0
147
0.625
 71
     0
 72
     0
 73
     0
 74
     0
 75
     0
 76
     0
 77
     1
 78
     8
170
     0
171
     3
172
     1
173
     0
174
     0
175
     0
176
     7
177
     7
178
     7
179
     1
270
     2
271
     2
272
     2
273
     2
274
     3
340
73
275
     0
280
     0
281
     0
282
     0
283
     0
284
     8
285
     8
286
     0
287
     3
288
     1
  0
DIMSTYLE
105
2CC
330
A
100
AcDbSymbolTableRecord
100
AcDbDimStyleTableRecord
  2
ONSHAPE-CHAMFERDIMSTYLE
 70
     0
  3

  4

  5

  6

  7

 40
0.25
 41
2.5
 42
0.625
 43
3.75
 44
1.25
 45
0.0
 46
0.0
 47
0.0
 48
0.0
140
3.5
141
2.5
142
0.0
143
0.0393700787401575
144
1.0
145
0.0
146
1.0
147
0.625
 71
     0
 72
     0
 73
     0
 74
     0
 75
     0
 76
     0
 77
     1
 78
     8
170
     0
171
     3
172
     1
173
     0
174
     0
175
     0
176
     7
177
     7
178
     7
179
     1
270
     2
271
     2
272
     2
273
     2
274
     3
340
73
275
     0
280
     0
281
     0
282
     0
283
     0
284
     8
285
     8
286
     0
287
     3
288
     1
  0
DIMSTYLE
105
2CD
330
A
100
AcDbSymbolTableRecord
100
AcDbDimStyleTableRecord
  2
ONSHAPE-SKETCHDRIVENDIMSTY
 70
     0
  3

  4

  5

  6

  7

 40
0.25
 41
2.5
 42
0.625
 43
3.75
 44
1.25
 45
0.0
 46
0.0
 47
0.0
 48
0.0
140
3.5
141
2.5
142
0.0
143
0.0393700787401575
144
1.0
145
0.0
146
1.0
147
0.625
 71
     0
 72
     0
 73
     0
 74
     0
 75
     0
 76
     0
 77
     1
 78
     8
170
     0
171
     3
172
     1
173
     0
174
     0
175
     0
176
   251
177
   251
178
   251
179
     1
270
     2
271
     2
272
     2
273
     2
274
     3
340
73
275
     0
280
     0
281
     0
282
     0
283
     0
284
     8
285
     8
286
     0
287
     3
288
     1
  0
DIMSTYLE
105
2CE
330
A
100
AcDbSymbolTableRecord
100
AcDbDimStyleTableRecord
  2
ONSHAPE-SKETCHDRIVENDIMST0
 70
     0
  3

  4

  5

  6

  7

 40
0.25
 41
2.5
 42
0.625
 43
3.75
 44
1.25
 45
0.0
 46
0.0
 47
0.0
 48
0.0
140
3.5
141
2.5
142
0.0
143
0.0393700787401575
144
1.0
145
0.0
146
1.0
147
0.625
 71
     0
 72
     0
 73
     0
 74
     0
 75
     0
 76
     0
 77
     1
 78
     8
170
     0
171
     3
172
     1
173
     0
174
     0
175
     0
176
   251
177
   251
178
   251
179
     1
270
     2
271
     2
272
     2
273
     2
274
     3
340
73
275
     0
280
     0
281
     0
282
     0
283
     0
284
     8
285
     8
286
     0
287
     3
288
     1
  0
DIMSTYLE
105
2CF
330
A
100
AcDbSymbolTableRecord
100
AcDbDimStyleTableRecord
  2
ONSHAPE-SKETCHDRIVENDIMST1
 70
     0
  3

  4

  5

  6

  7

 40
0.25
 41
2.5
 42
0.625
 43
3.75
 44
1.25
 45
0.0
 46
0.0
 47
0.0
 48
0.0
140
3.5
141
0.0
142
0.0
143
0.0393700787401575
144
1.0
145
0.0
146
1.0
147
0.625
 71
     0
 72
     0
 73
     0
 74
     0
 75
     0
 76
     0
 77
     1
 78
     8
170
     0
171
     3
172
     1
173
     0
174
     0
175
     0
176
   251
177
   251
178
   251
179
     1
270
     2
271
     2
272
     2
273
     2
274
     3
340
73
275
     0
280
     0
281
     0
282
     0
283
     0
284
     8
285
     8
286
     0
287
     3
288
     1
  0
DIMSTYLE
105
2D0
330
A
100
AcDbSymbolTableRecord
100
AcDbDimStyleTableRecord
  2
ONSHAPE-SKETCHDRIVENDIMST2
 70
     0
  3

  4

  5

  6

  7

 40
0.25
 41
2.5
 42
0.625
 43
3.75
 44
1.25
 45
0.0
 46
0.0
 47
0.0
 48
0.0
140
3.5
141
0.0
142
0.0
143
0.0393700787401575
144
1.0
145
0.0
146
1.0
147
0.625
 71
     0
 72
     0
 73
     0
 74
     0
 75
     0
 76
     0
 77
     1
 78
     8
170
     0
171
     3
172
     1
173
     0
174
     0
175
     0
176
   251
177
   251
178
   251
179
     1
270
     2
271
     2
272
     2
273
     2
274
     3
340
73
275
     0
280
     0
281
     0
282
     0
283
     0
284
     8
285
     8
286
     0
287
     3
288
     1
  0
ENDTAB
  0
TABLE
  2
BLOCK_RECORD
  5
1
330
0
100
AcDbSymbolTable
 70
     0
  0
BLOCK_RECORD
  5
1F
330
1
100
AcDbSymbolTableRecord
100
AcDbBlockTableRecord
  2
*MODEL_SPACE
  0
BLOCK_RECORD
  5
1B
330
1
100
AcDbSymbolTableRecord
100
AcDbBlockTableRecord
  2
*PAPER_SPACE
  0
ENDTAB
  0
ENDSEC
  0
SECTION
  2
BLOCKS
  0
BLOCK
  5
20
330
1F
100
AcDbEntity
  8
0
100
AcDbBlockBegin
  2
*MODEL_SPACE
 70
     0
 10
0.0
 20
0.0
 30
0.0
  3
*MODEL_SPACE
  1

  0
ENDBLK
  5
21
330
1F
100
AcDbEntity
  8
0
100
AcDbBlockEnd
  0
BLOCK
  5
1C
330
1B
100
AcDbEntity
 67
     1
  8
0
100
AcDbBlockBegin
  2
*PAPER_SPACE
 70
     0
 10
0.0
 20
0.0
 30
0.0
  3
*PAPER_SPACE
  1

  0
ENDBLK
  5
1D
330
1B
100
AcDbEntity
 67
     1
  8
0
100
AcDbBlockEnd
  0
ENDSEC
  0
SECTION
  2
ENTITIES
  0
LINE
  5
76
330
1F
100
AcDbEntity
  8
VISIBLE
100
AcDbLine
 10
198.664665448077
 20
116.2816717974923
 30
0.0
 11
198.7056269662026
 21
117.2294703805429
 31
0.0
  0
ARC
  5
77
330
1F
100
AcDbEntity
  8
VISIBLE
100
AcDbCircle
 10
198.2230775214554
 20
116.7755405584623
 30
0.0
 40
0.6625
100
AcDbArc
 50
43.24953585966598
 51
131.8011792827266
  0
LINE
  5
78
330
1F
100
AcDbEntity
  8
VISIBLE
100
AcDbLine
 10
197.7405280767082
 20
116.3216107363816
 30
0.0
 11
197.7814895948338
 21
117.2694093194323
 31
0.0
  0
ARC
  5
79
330
1F
100
AcDbEntity
  8
VISIBLE
100
AcDbCircle
 10
198.2230775214554
 20
116.7755405584623
 30
0.0
 40
0.6625
100
AcDbArc
 50
223.2495358596626
 51
311.8011792827274
  0
LINE
  5
7A
330
1F
100
AcDbEntity
  8
VISIBLE
100
AcDbLine
 10
195.6714374111488
 20
115.6346493509082
 30
0.0
 11
204.4132774105831
 21
115.2568485776303
 31
0.0
  0
LINE
  5
7B
330
1F
100
AcDbEntity
  8
VISIBLE
100
AcDbLine
 10
195.7793804892281
 20
118.1323179221751
 30
0.0
 11
195.6714374111488
 21
115.6346493509082
 31
0.0
  0
ARC
  5
7C
330
1F
100
AcDbEntity
  8
VISIBLE
100
AcDbCircle
 10
210.6777894730584
 20
122.0689395105552
 30
0.0
 40
1.242779301835265
100
AcDbArc
 50
355.3816629861835
 51
175.3816629861833
  0
SPLINE
  5
7D
330
1F
100
AcDbEntity
  8
VISIBLE
100
AcDbSpline
210
0.0
220
0.0
230
1.0
 70
     8
 71
     3
 72
    10
 73
     6
 74
     0
 42
0.000000001
 43
0.0000000766827558
 40
0.0
 40
0.0
 40
0.0
 40
0.0
 40
0.3358481030249755
 40
0.680461338717885
 40
1.0
 40
1.0
 40
1.0
 40
1.0
 10
204.4132774105831
 20
115.2568485776303
 30
0.0
 10
205.6552037746504
 20
115.3343970736375
 30
0.0
 10
208.2629206172529
 20
115.5792810143518
 30
0.0
 10
211.7340532344257
 20
118.2843999476256
 30
0.0
 10
211.8463580722003
 20
120.9174405953478
 30
0.0
 10
211.9165336698961
 20
121.9688734929908
 30
0.0
  0
SPLINE
  5
7E
330
1F
100
AcDbEntity
  8
VISIBLE
100
AcDbSpline
210
0.0
220
0.0
230
1.0
 70
     8
 71
     3
 72
    36
 73
    32
 74
     0
 42
0.000000001
 43
0.0000000759722868
 40
0.0250540385896071
 40
0.0250540385896071
 40
0.0250540385896071
 40
0.0250540385896071
 40
0.125
 40
0.1875
 40
0.25
 40
0.3125
 40
0.328125
 40
0.34375
 40
0.375
 40
0.40625
 40
0.4375
 40
0.5
 40
0.53125
 40
0.5625
 40
0.59375
 40
0.625
 40
0.640625
 40
0.65625
 40
0.671875
 40
0.6875
 40
0.703125
 40
0.71875
 40
0.75
 40
0.78125
 40
0.8125
 40
0.875
 40
0.9375
 40
1.0
 40
1.0
 40
1.0
 40
1.003354988796936
 40
1.003354988796936
 40
1.003354988796936
 40
1.003354988796936
 10
204.5212169287408
 20
117.7545686226143
 30
0.0
 10
204.8665524741938
 20
117.7784514528111
 30
0.0
 10
205.4006319157772
 20
117.8243525219409
 30
0.0
 10
206.0716984095205
 20
117.9260851456942
 30
0.0
 10
206.5855628671245
 20
118.0403647166046
 30
0.0
 10
206.9382372027259
 20
118.15133995785
 30
0.0
 10
207.1621201794631
 20
118.2374986432623
 30
0.0
 10
207.3084536066067
 20
118.2982806929468
 30
0.0
 10
207.4924252347223
 20
118.3834088469784
 30
0.0
 10
207.7100661386149
 20
118.4984994387891
 30
0.0
 10
207.9916694999802
 20
118.6671473483837
 30
0.0
 10
208.2534111239088
 20
118.8548544422014
 30
0.0
 10
208.4835219078574
 20
119.052223642609
 30
0.0
 10
208.6379359768927
 20
119.2022129376517
 30
0.0
 10
208.7722378084642
 20
119.3511359990212
 30
0.0
 10
208.8663171500422
 20
119.4716331048076
 30
0.0
 10
208.930679839479
 20
119.5642895606627
 30
0.0
 10
208.9735082210164
 20
119.6314457616971
 30
0.0
 10
209.0111627981764
 20
119.6962729691721
 30
0.0
 10
209.0431758374634
 20
119.7571319674778
 30
0.0
 10
209.0748089328727
 20
119.8239202970305
 30
0.0
 10
209.1159200144763
 20
119.9206925644151
 30
0.0
 10
209.1651740027639
 20
120.0571531755024
 30
0.0
 10
209.2193795602167
 20
120.246210823455
 30
0.0
 10
209.2835485140817
 20
120.5307315193195
 30
0.0
 10
209.3465012377051
 20
120.9424698707002
 30
0.0
 10
209.3969768055134
 20
121.5068137965567
 30
0.0
 10
209.422384819295
 20
121.9193838209067
 30
0.0
 10
209.4367344236517
 20
122.1343822902339
 30
0.0
 10
209.4375047078414
 20
122.1459233695291
 30
0.0
 10
209.4382749920311
 20
122.1574644488244
 30
0.0
 10
209.4390452762208
 20
122.1690055281196
 30
0.0
  0
LINE
  5
7F
330
1F
100
AcDbEntity
  8
VISIBLE
100
AcDbLine
 10
204.5212163187645
 20
117.75451732911
 30
0.0
 11
195.7793804892281
 21
118.1323179221751
 31
0.0
  0
CIRCLE
  5
82
330
1F
100
AcDbEntity
  8
VISIBLE
100
AcDbCircle
 10
222.5286530817239
 20
135.8322033137942
 30
0.0
 40
0.39375
  0
CIRCLE
  5
83
330
1F
100
AcDbEntity
  8
VISIBLE
100
AcDbCircle
 10
199.0286530817239
 20
135.8322033137942
 30
0.0
 40
0.39375
  0
CIRCLE
  5
84
330
1F
100
AcDbEntity
  8
VISIBLE
100
AcDbCircle
 10
210.7786530817239
 20
126.5822033137942
 30
0.0
 40
0.39375
  0
LINE
  5
85
330
1F
100
AcDbEntity
  8
VISIBLE
100
AcDbLine
 10
216.4849030817239
 20
129.6353283137942
 30
0.0
 11
216.4849030817239
 21
128.9978283137942
 31
0.0
  0
LINE
  5
86
330
1F
100
AcDbEntity
  8
VISIBLE
100
AcDbLine
 10
216.1724030817239
 20
129.6353283137942
 30
0.0
 11
216.4849030817239
 21
129.6353283137942
 31
0.0
  0
LINE
  5
87
330
1F
100
AcDbEntity
  8
VISIBLE
100
AcDbLine
 10
216.1724030817239
 20
129.8697033137942
 30
0.0
 11
216.1724030817239
 21
129.6353283137942
 31
0.0
  0
LINE
  5
88
330
1F
100
AcDbEntity
  8
VISIBLE
100
AcDbLine
 10
215.3849030817239
 20
129.8697033137942
 30
0.0
 11
216.1724030817239
 21
129.8697033137942
 31
0.0
  0
LINE
  5
89
330
1F
100
AcDbEntity
  8
VISIBLE
100
AcDbLine
 10
215.3849030817239
 20
129.8697033137942
 30
0.0
 11
215.3849030817239
 21
129.6353283137942
 31
0.0
  0
LINE
  5
8A
330
1F
100
AcDbEntity
  8
VISIBLE
100
AcDbLine
 10
215.0724030817239
 20
129.6353283137942
 30
0.0
 11
215.3849030817239
 21
129.6353283137942
 31
0.0
  0
LINE
  5
8B
330
1F
100
AcDbEntity
  8
VISIBLE
100
AcDbLine
 10
215.0724030817239
 20
129.6353283137942
 30
0.0
 11
215.0724030817239
 21
128.9978283137942
 31
0.0
  0
LINE
  5
8C
330
1F
100
AcDbEntity
  8
VISIBLE
100
AcDbLine
 10
215.0724030817239
 20
128.9978283137942
 30
0.0
 11
215.3849030817239
 21
128.9978283137942
 31
0.0
  0
LINE
  5
8D
330
1F
100
AcDbEntity
  8
VISIBLE
100
AcDbLine
 10
215.3849030817239
 20
128.9978283137942
 30
0.0
 11
215.3849030817239
 21
127.3322033137942
 31
0.0
  0
LINE
  5
8E
330
1F
100
AcDbEntity
  8
VISIBLE
100
AcDbLine
 10
208.2786530817239
 20
125.8322033137942
 30
0.0
 11
213.2786530817239
 21
125.8322033137942
 31
0.0
  0
LINE
  5
8F
330
1F
100
AcDbEntity
  8
VISIBLE
100
AcDbLine
 10
206.1724030817239
 20
128.9978283137942
 30
0.0
 11
206.1724030817239
 21
127.3322033137942
 31
0.0
  0
LINE
  5
90
330
1F
100
AcDbEntity
  8
VISIBLE
100
AcDbLine
 10
206.1724030817239
 20
128.9978283137942
 30
0.0
 11
206.4849030817239
 21
128.9978283137942
 31
0.0
  0
LINE
  5
91
330
1F
100
AcDbEntity
  8
VISIBLE
100
AcDbLine
 10
206.4849030817239
 20
129.6353283137942
 30
0.0
 11
206.4849030817239
 21
128.9978283137942
 31
0.0
  0
LINE
  5
92
330
1F
100
AcDbEntity
  8
VISIBLE
100
AcDbLine
 10
206.1724030817239
 20
129.6353283137942
 30
0.0
 11
206.4849030817239
 21
129.6353283137942
 31
0.0
  0
LINE
  5
93
330
1F
100
AcDbEntity
  8
VISIBLE
100
AcDbLine
 10
206.1724030817239
 20
129.8697033137942
 30
0.0
 11
206.1724030817239
 21
129.6353283137942
 31
0.0
  0
LINE
  5
94
330
1F
100
AcDbEntity
  8
VISIBLE
100
AcDbLine
 10
205.3849030817239
 20
129.8697033137942
 30
0.0
 11
206.1724030817239
 21
129.8697033137942
 31
0.0
  0
LINE
  5
95
330
1F
100
AcDbEntity
  8
VISIBLE
100
AcDbLine
 10
205.3849030817239
 20
129.8697033137942
 30
0.0
 11
205.3849030817239
 21
129.6353283137942
 31
0.0
  0
LINE
  5
96
330
1F
100
AcDbEntity
  8
VISIBLE
100
AcDbLine
 10
205.0724030817239
 20
129.6353283137942
 30
0.0
 11
205.3849030817239
 21
129.6353283137942
 31
0.0
  0
LINE
  5
97
330
1F
100
AcDbEntity
  8
VISIBLE
100
AcDbLine
 10
205.0724030817239
 20
129.6353283137942
 30
0.0
 11
205.0724030817239
 21
128.9978283137942
 31
0.0
  0
LINE
  5
98
330
1F
100
AcDbEntity
  8
VISIBLE
100
AcDbLine
 10
205.0724030817239
 20
128.9978283137942
 30
0.0
 11
205.3849030817239
 21
128.9978283137942
 31
0.0
  0
LINE
  5
99
330
1F
100
AcDbEntity
  8
VISIBLE
100
AcDbLine
 10
205.3849030817239
 20
128.9978283137942
 30
0.0
 11
205.3849030817239
 21
127.3322033137942
 31
0.0
  0
LINE
  5
9A
330
1F
100
AcDbEntity
  8
VISIBLE
100
AcDbLine
 10
205.3849030817239
 20
127.3322033137942
 30
0.0
 11
203.2786530817239
 21
127.3322033137942
 31
0.0
  0
LINE
  5
9B
330
1F
100
AcDbEntity
  8
VISIBLE
100
AcDbLine
 10
198.2786530817239
 20
125.8322033137942
 30
0.0
 11
203.2786530817239
 21
125.8322033137942
 31
0.0
  0
LINE
  5
9C
330
1F
100
AcDbEntity
  8
VISIBLE
100
AcDbLine
 10
198.2786530817239
 20
129.8322033137942
 30
0.0
 11
198.2786530817239
 21
125.8322033137942
 31
0.0
  0
LINE
  5
9D
330
1F
100
AcDbEntity
  8
VISIBLE
100
AcDbLine
 10
198.2786530817239
 20
129.8322033137942
 30
0.0
 11
199.7786530817239
 21
129.8322033137942
 31
0.0
  0
LINE
  5
9E
330
1F
100
AcDbEntity
  8
VISIBLE
100
AcDbLine
 10
199.7786530817239
 20
129.8322033137942
 30
0.0
 11
199.7786530817239
 21
131.4384533137942
 31
0.0
  0
LINE
  5
9F
330
1F
100
AcDbEntity
  8
VISIBLE
100
AcDbLine
 10
201.4442780817239
 20
131.4384533137942
 30
0.0
 11
199.7786530817239
 21
131.4384533137942
 31
0.0
  0
LINE
  5
A0
330
1F
100
AcDbEntity
  8
VISIBLE
100
AcDbLine
 10
202.0817780817239
 20
131.1259533137942
 30
0.0
 11
201.4442780817239
 21
131.1259533137942
 31
0.0
  0
LINE
  5
A1
330
1F
100
AcDbEntity
  8
VISIBLE
100
AcDbLine
 10
202.0817780817239
 20
131.4384533137942
 30
0.0
 11
202.0817780817239
 21
131.1259533137942
 31
0.0
  0
LINE
  5
A2
330
1F
100
AcDbEntity
  8
VISIBLE
100
AcDbLine
 10
202.3161530817239
 20
131.4384533137942
 30
0.0
 11
202.0817780817239
 21
131.4384533137942
 31
0.0
  0
LINE
  5
A3
330
1F
100
AcDbEntity
  8
VISIBLE
100
AcDbLine
 10
202.3161530817239
 20
132.2259533137942
 30
0.0
 11
202.3161530817239
 21
131.4384533137942
 31
0.0
  0
LINE
  5
A4
330
1F
100
AcDbEntity
  8
VISIBLE
100
AcDbLine
 10
202.3161530817239
 20
132.2259533137942
 30
0.0
 11
202.0817780817239
 21
132.2259533137942
 31
0.0
  0
LINE
  5
A5
330
1F
100
AcDbEntity
  8
VISIBLE
100
AcDbLine
 10
202.0817780817239
 20
132.5384533137942
 30
0.0
 11
202.0817780817239
 21
132.2259533137942
 31
0.0
  0
LINE
  5
A6
330
1F
100
AcDbEntity
  8
VISIBLE
100
AcDbLine
 10
202.0817780817239
 20
132.5384533137942
 30
0.0
 11
201.4442780817239
 21
132.5384533137942
 31
0.0
  0
LINE
  5
A7
330
1F
100
AcDbEntity
  8
VISIBLE
100
AcDbLine
 10
201.4442780817239
 20
132.5384533137942
 30
0.0
 11
201.4442780817239
 21
132.2259533137942
 31
0.0
  0
LINE
  5
A8
330
1F
100
AcDbEntity
  8
VISIBLE
100
AcDbLine
 10
201.4442780817239
 20
132.2259533137942
 30
0.0
 11
199.7786530817239
 21
132.2259533137942
 31
0.0
  0
LINE
  5
A9
330
1F
100
AcDbEntity
  8
VISIBLE
100
AcDbLine
 10
199.7786530817239
 20
132.2259533137942
 30
0.0
 11
199.7786530817239
 21
133.8322033137942
 31
0.0
  0
LINE
  5
AA
330
1F
100
AcDbEntity
  8
VISIBLE
100
AcDbLine
 10
198.2786530817239
 20
133.8322033137942
 30
0.0
 11
199.7786530817239
 21
133.8322033137942
 31
0.0
  0
LINE
  5
AB
330
1F
100
AcDbEntity
  8
VISIBLE
100
AcDbLine
 10
198.2786530817239
 20
137.8322033137942
 30
0.0
 11
198.2786530817239
 21
133.8322033137942
 31
0.0
  0
LINE
  5
AC
330
1F
100
AcDbEntity
  8
VISIBLE
100
AcDbLine
 10
198.2786530817239
 20
137.8322033137942
 30
0.0
 11
199.7786530817239
 21
137.8322033137942
 31
0.0
  0
LINE
  5
AD
330
1F
100
AcDbEntity
  8
VISIBLE
100
AcDbLine
 10
201.4442780817239
 20
139.4384533137942
 30
0.0
 11
199.7786530817239
 21
139.4384533137942
 31
0.0
  0
LINE
  5
AE
330
1F
100
AcDbEntity
  8
VISIBLE
100
AcDbLine
 10
201.4442780817239
 20
139.4384533137942
 30
0.0
 11
201.4442780817239
 21
139.1259533137942
 31
0.0
  0
LINE
  5
AF
330
1F
100
AcDbEntity
  8
VISIBLE
100
AcDbLine
 10
202.0817780817239
 20
139.1259533137942
 30
0.0
 11
201.4442780817239
 21
139.1259533137942
 31
0.0
  0
LINE
  5
B0
330
1F
100
AcDbEntity
  8
VISIBLE
100
AcDbLine
 10
202.0817780817239
 20
139.4384533137942
 30
0.0
 11
202.0817780817239
 21
139.1259533137942
 31
0.0
  0
LINE
  5
B1
330
1F
100
AcDbEntity
  8
VISIBLE
100
AcDbLine
 10
202.3161530817239
 20
139.4384533137942
 30
0.0
 11
202.0817780817239
 21
139.4384533137942
 31
0.0
  0
LINE
  5
B2
330
1F
100
AcDbEntity
  8
VISIBLE
100
AcDbLine
 10
202.3161530817239
 20
140.2259533137942
 30
0.0
 11
202.3161530817239
 21
139.4384533137942
 31
0.0
  0
LINE
  5
B3
330
1F
100
AcDbEntity
  8
VISIBLE
100
AcDbLine
 10
202.3161530817239
 20
140.2259533137942
 30
0.0
 11
202.0817780817239
 21
140.2259533137942
 31
0.0
  0
LINE
  5
B4
330
1F
100
AcDbEntity
  8
VISIBLE
100
AcDbLine
 10
202.0817780817239
 20
140.5384533137942
 30
0.0
 11
202.0817780817239
 21
140.2259533137942
 31
0.0
  0
LINE
  5
B5
330
1F
100
AcDbEntity
  8
VISIBLE
100
AcDbLine
 10
202.0817780817239
 20
140.5384533137942
 30
0.0
 11
201.4442780817239
 21
140.5384533137942
 31
0.0
  0
LINE
  5
B6
330
1F
100
AcDbEntity
  8
VISIBLE
100
AcDbLine
 10
201.4442780817239
 20
140.5384533137942
 30
0.0
 11
201.4442780817239
 21
140.2259533137942
 31
0.0
  0
LINE
  5
B7
330
1F
100
AcDbEntity
  8
VISIBLE
100
AcDbLine
 10
201.4442780817239
 20
140.2259533137942
 30
0.0
 11
199.7786530817239
 21
140.2259533137942
 31
0.0
  0
LINE
  5
B8
330
1F
100
AcDbEntity
  8
VISIBLE
100
AcDbLine
 10
199.7786530817239
 20
140.2259533137942
 30
0.0
 11
199.7786530817239
 21
141.8322033137942
 31
0.0
  0
LINE
  5
B9
330
1F
100
AcDbEntity
  8
VISIBLE
100
AcDbLine
 10
198.2786530817239
 20
141.8322033137942
 30
0.0
 11
199.7786530817239
 21
141.8322033137942
 31
0.0
  0
LINE
  5
BA
330
1F
100
AcDbEntity
  8
VISIBLE
100
AcDbLine
 10
198.2786530817239
 20
144.3322033137942
 30
0.0
 11
223.2786530817239
 21
144.3322033137942
 31
0.0
  0
LINE
  5
BB
330
1F
100
AcDbEntity
  8
VISIBLE
100
AcDbLine
 10
223.2786530817239
 20
144.3322033137942
 30
0.0
 11
223.2786530817239
 21
141.8322033137942
 31
0.0
  0
LINE
  5
BC
330
1F
100
AcDbEntity
  8
VISIBLE
100
AcDbLine
 10
220.1130280817239
 20
140.2259533137942
 30
0.0
 11
221.7786530817239
 21
140.2259533137942
 31
0.0
  0
LINE
  5
BD
330
1F
100
AcDbEntity
  8
VISIBLE
100
AcDbLine
 10
220.1130280817239
 20
140.2259533137942
 30
0.0
 11
220.1130280817239
 21
140.5384533137942
 31
0.0
  0
LINE
  5
BE
330
1F
100
AcDbEntity
  8
VISIBLE
100
AcDbLine
 10
219.4755280817239
 20
140.5384533137942
 30
0.0
 11
220.1130280817239
 21
140.5384533137942
 31
0.0
  0
LINE
  5
BF
330
1F
100
AcDbEntity
  8
VISIBLE
100
AcDbLine
 10
219.4755280817239
 20
140.2259533137942
 30
0.0
 11
219.4755280817239
 21
140.5384533137942
 31
0.0
  0
LINE
  5
C0
330
1F
100
AcDbEntity
  8
VISIBLE
100
AcDbLine
 10
219.2411530817239
 20
140.2259533137942
 30
0.0
 11
219.4755280817239
 21
140.2259533137942
 31
0.0
  0
LINE
  5
C1
330
1F
100
AcDbEntity
  8
VISIBLE
100
AcDbLine
 10
219.2411530817239
 20
139.4384533137942
 30
0.0
 11
219.2411530817239
 21
140.2259533137942
 31
0.0
  0
LINE
  5
C2
330
1F
100
AcDbEntity
  8
VISIBLE
100
AcDbLine
 10
219.2411530817239
 20
139.4384533137942
 30
0.0
 11
219.4755280817239
 21
139.4384533137942
 31
0.0
  0
LINE
  5
C3
330
1F
100
AcDbEntity
  8
VISIBLE
100
AcDbLine
 10
219.4755280817239
 20
139.1259533137942
 30
0.0
 11
219.4755280817239
 21
139.4384533137942
 31
0.0
  0
LINE
  5
C4
330
1F
100
AcDbEntity
  8
VISIBLE
100
AcDbLine
 10
219.4755280817239
 20
139.1259533137942
 30
0.0
 11
220.1130280817239
 21
139.1259533137942
 31
0.0
  0
LINE
  5
C5
330
1F
100
AcDbEntity
  8
VISIBLE
100
AcDbLine
 10
220.1130280817239
 20
139.1259533137942
 30
0.0
 11
220.1130280817239
 21
139.4384533137942
 31
0.0
  0
LINE
  5
C6
330
1F
100
AcDbEntity
  8
VISIBLE
100
AcDbLine
 10
220.1130280817239
 20
139.4384533137942
 30
0.0
 11
221.7786530817239
 21
139.4384533137942
 31
0.0
  0
LINE
  5
C7
330
1F
100
AcDbEntity
  8
VISIBLE
100
AcDbLine
 10
223.2786530817239
 20
137.8322033137942
 30
0.0
 11
223.2786530817239
 21
133.8322033137942
 31
0.0
  0
LINE
  5
C8
330
1F
100
AcDbEntity
  8
VISIBLE
100
AcDbLine
 10
220.1130280817239
 20
132.2259533137942
 30
0.0
 11
220.1130280817239
 21
132.5384533137942
 31
0.0
  0
LINE
  5
C9
330
1F
100
AcDbEntity
  8
VISIBLE
100
AcDbLine
 10
219.4755280817239
 20
132.5384533137942
 30
0.0
 11
220.1130280817239
 21
132.5384533137942
 31
0.0
  0
LINE
  5
CA
330
1F
100
AcDbEntity
  8
VISIBLE
100
AcDbLine
 10
219.4755280817239
 20
132.2259533137942
 30
0.0
 11
219.4755280817239
 21
132.5384533137942
 31
0.0
  0
LINE
  5
CB
330
1F
100
AcDbEntity
  8
VISIBLE
100
AcDbLine
 10
219.2411530817239
 20
132.2259533137942
 30
0.0
 11
219.4755280817239
 21
132.2259533137942
 31
0.0
  0
LINE
  5
CC
330
1F
100
AcDbEntity
  8
VISIBLE
100
AcDbLine
 10
219.2411530817239
 20
131.4384533137942
 30
0.0
 11
219.2411530817239
 21
132.2259533137942
 31
0.0
  0
LINE
  5
CD
330
1F
100
AcDbEntity
  8
VISIBLE
100
AcDbLine
 10
219.2411530817239
 20
131.4384533137942
 30
0.0
 11
219.4755280817239
 21
131.4384533137942
 31
0.0
  0
LINE
  5
CE
330
1F
100
AcDbEntity
  8
VISIBLE
100
AcDbLine
 10
219.4755280817239
 20
131.1259533137942
 30
0.0
 11
219.4755280817239
 21
131.4384533137942
 31
0.0
  0
LINE
  5
CF
330
1F
100
AcDbEntity
  8
VISIBLE
100
AcDbLine
 10
219.4755280817239
 20
131.1259533137942
 30
0.0
 11
220.1130280817239
 21
131.1259533137942
 31
0.0
  0
LINE
  5
D0
330
1F
100
AcDbEntity
  8
VISIBLE
100
AcDbLine
 10
220.1130280817239
 20
131.1259533137942
 30
0.0
 11
220.1130280817239
 21
131.4384533137942
 31
0.0
  0
LINE
  5
D1
330
1F
100
AcDbEntity
  8
VISIBLE
100
AcDbLine
 10
220.1130280817239
 20
131.4384533137942
 30
0.0
 11
221.7786530817239
 21
131.4384533137942
 31
0.0
  0
LINE
  5
D2
330
1F
100
AcDbEntity
  8
VISIBLE
100
AcDbLine
 10
221.7786530817239
 20
131.4384533137942
 30
0.0
 11
221.7786530817239
 21
129.8322033137942
 31
0.0
  0
LINE
  5
D3
330
1F
100
AcDbEntity
  8
VISIBLE
100
AcDbLine
 10
223.2786530817239
 20
129.8322033137942
 30
0.0
 11
221.7786530817239
 21
129.8322033137942
 31
0.0
  0
LINE
  5
D4
330
1F
100
AcDbEntity
  8
VISIBLE
100
AcDbLine
 10
223.2786530817239
 20
129.8322033137942
 30
0.0
 11
223.2786530817239
 21
125.8322033137942
 31
0.0
  0
LINE
  5
D5
330
1F
100
AcDbEntity
  8
VISIBLE
100
AcDbLine
 10
216.1724030817239
 20
128.9978283137942
 30
0.0
 11
216.1724030817239
 21
127.3322033137942
 31
0.0
  0
LINE
  5
D6
330
1F
100
AcDbEntity
  8
VISIBLE
100
AcDbLine
 10
198.2786530817239
 20
144.3322033137942
 30
0.0
 11
198.2786530817239
 21
141.8322033137942
 31
0.0
  0
LINE
  5
D7
330
1F
100
AcDbEntity
  8
VISIBLE
100
AcDbLine
 10
199.7786530817239
 20
137.8322033137942
 30
0.0
 11
199.7786530817239
 21
139.4384533137942
 31
0.0
  0
LINE
  5
D8
330
1F
100
AcDbEntity
  8
VISIBLE
100
AcDbLine
 10
221.7786530817239
 20
133.8322033137942
 30
0.0
 11
221.7786530817239
 21
132.2259533137942
 31
0.0
  0
LINE
  5
D9
330
1F
100
AcDbEntity
  8
VISIBLE
100
AcDbLine
 10
221.7786530817239
 20
141.8322033137942
 30
0.0
 11
221.7786530817239
 21
140.2259533137942
 31
0.0
  0
LINE
  5
DA
330
1F
100
AcDbEntity
  8
VISIBLE
100
AcDbLine
 10
208.2786530817239
 20
127.3322033137942
 30
0.0
 11
206.1724030817239
 21
127.3322033137942
 31
0.0
  0
LINE
  5
DB
330
1F
100
AcDbEntity
  8
VISIBLE
100
AcDbLine
 10
218.2786530817239
 20
127.3322033137942
 30
0.0
 11
216.1724030817239
 21
127.3322033137942
 31
0.0
  0
LINE
  5
DC
330
1F
100
AcDbEntity
  8
VISIBLE
100
AcDbLine
 10
203.2786530817239
 20
125.8322033137942
 30
0.0
 11
203.2786530817239
 21
127.3322033137942
 31
0.0
  0
LINE
  5
DD
330
1F
100
AcDbEntity
  8
VISIBLE
100
AcDbLine
 10
215.3849030817239
 20
127.3322033137942
 30
0.0
 11
213.2786530817239
 21
127.3322033137942
 31
0.0
  0
LINE
  5
DE
330
1F
100
AcDbEntity
  8
VISIBLE
100
AcDbLine
 10
220.1130280817239
 20
132.2259533137942
 30
0.0
 11
221.7786530817239
 21
132.2259533137942
 31
0.0
  0
LINE
  5
DF
330
1F
100
AcDbEntity
  8
VISIBLE
100
AcDbLine
 10
223.2786530817239
 20
137.8322033137942
 30
0.0
 11
221.7786530817239
 21
137.8322033137942
 31
0.0
  0
LINE
  5
E0
330
1F
100
AcDbEntity
  8
VISIBLE
100
AcDbLine
 10
223.2786530817239
 20
141.8322033137942
 30
0.0
 11
221.7786530817239
 21
141.8322033137942
 31
0.0
  0
LINE
  5
E1
330
1F
100
AcDbEntity
  8
VISIBLE
100
AcDbLine
 10
201.4442780817239
 20
131.4384533137942
 30
0.0
 11
201.4442780817239
 21
131.1259533137942
 31
0.0
  0
LINE
  5
E2
330
1F
100
AcDbEntity
  8
VISIBLE
100
AcDbLine
 10
218.2786530817239
 20
125.8322033137942
 30
0.0
 11
223.2786530817239
 21
125.8322033137942
 31
0.0
  0
LINE
  5
E3
330
1F
100
AcDbEntity
  8
VISIBLE
100
AcDbLine
 10
216.1724030817239
 20
128.9978283137942
 30
0.0
 11
216.4849030817239
 21
128.9978283137942
 31
0.0
  0
LINE
  5
E4
330
1F
100
AcDbEntity
  8
VISIBLE
100
AcDbLine
 10
213.2786530817239
 20
125.8322033137942
 30
0.0
 11
213.2786530817239
 21
127.3322033137942
 31
0.0
  0
LINE
  5
E5
330
1F
100
AcDbEntity
  8
VISIBLE
100
AcDbLine
 10
223.2786530817239
 20
133.8322033137942
 30
0.0
 11
221.7786530817239
 21
133.8322033137942
 31
0.0
  0
LINE
  5
E6
330
1F
100
AcDbEntity
  8
VISIBLE
100
AcDbLine
 10
208.2786530817239
 20
125.8322033137942
 30
0.0
 11
208.2786530817239
 21
127.3322033137942
 31
0.0
  0
LINE
  5
E7
330
1F
100
AcDbEntity
  8
VISIBLE
100
AcDbLine
 10
218.2786530817239
 20
125.8322033137942
 30
0.0
 11
218.2786530817239
 21
127.3322033137942
 31
0.0
  0
LINE
  5
E8
330
1F
100
AcDbEntity
  8
VISIBLE
100
AcDbLine
 10
221.7786530817239
 20
139.4384533137942
 30
0.0
 11
221.7786530817239
 21
137.8322033137942
 31
0.0
  0
CIRCLE
  5
E9
330
1F
100
AcDbEntity
  8
VISIBLE
100
AcDbCircle
 10
135.0286530817239
 20
138.3322033137942
 30
0.0
 40
0.39375
  0
CIRCLE
  5
EA
330
1F
100
AcDbEntity
  8
VISIBLE
100
AcDbCircle
 10
135.0286530817239
 20
130.3322033137942
 30
0.0
 40
0.39375
  0
CIRCLE
  5
EB
330
1F
100
AcDbEntity
  8
VISIBLE
100
AcDbCircle
 10
171.0286530817239
 20
138.3322033137942
 30
0.0
 40
0.39375
  0
CIRCLE
  5
EC
330
1F
100
AcDbEntity
  8
VISIBLE
100
AcDbCircle
 10
171.0286530817239
 20
130.3322033137942
 30
0.0
 40
0.39375
  0
LINE
  5
ED
330
1F
100
AcDbEntity
  8
VISIBLE
100
AcDbLine
 10
145.4224030817239
 20
141.1665783137942
 30
0.0
 11
145.7349030817239
 21
141.1665783137942
 31
0.0
  0
LINE
  5
EE
330
1F
100
AcDbEntity
  8
VISIBLE
100
AcDbLine
 10
145.4224030817239
 20
141.1665783137942
 30
0.0
 11
145.4224030817239
 21
140.5290783137942
 31
0.0
  0
LINE
  5
EF
330
1F
100
AcDbEntity
  8
VISIBLE
100
AcDbLine
 10
145.4224030817239
 20
140.5290783137942
 30
0.0
 11
145.7349030817239
 21
140.5290783137942
 31
0.0
  0
LINE
  5
F0
330
1F
100
AcDbEntity
  8
VISIBLE
100
AcDbLine
 10
145.7349030817239
 20
140.5290783137942
 30
0.0
 11
145.7349030817239
 21
140.2947033137942
 31
0.0
  0
LINE
  5
F1
330
1F
100
AcDbEntity
  8
VISIBLE
100
AcDbLine
 10
145.7349030817239
 20
140.2947033137942
 30
0.0
 11
146.5224030817239
 21
140.2947033137942
 31
0.0
  0
LINE
  5
F2
330
1F
100
AcDbEntity
  8
VISIBLE
100
AcDbLine
 10
146.5224030817239
 20
140.5290783137942
 30
0.0
 11
146.5224030817239
 21
140.2947033137942
 31
0.0
  0
LINE
  5
F3
330
1F
100
AcDbEntity
  8
VISIBLE
100
AcDbLine
 10
146.5224030817239
 20
140.5290783137942
 30
0.0
 11
146.8349030817239
 21
140.5290783137942
 31
0.0
  0
LINE
  5
F4
330
1F
100
AcDbEntity
  8
VISIBLE
100
AcDbLine
 10
146.8349030817239
 20
141.1665783137942
 30
0.0
 11
146.8349030817239
 21
140.5290783137942
 31
0.0
  0
LINE
  5
F5
330
1F
100
AcDbEntity
  8
VISIBLE
100
AcDbLine
 10
146.5224030817239
 20
141.1665783137942
 30
0.0
 11
146.8349030817239
 21
141.1665783137942
 31
0.0
  0
LINE
  5
F6
330
1F
100
AcDbEntity
  8
VISIBLE
100
AcDbLine
 10
146.5224030817239
 20
142.8322033137942
 30
0.0
 11
146.5224030817239
 21
141.1665783137942
 31
0.0
  0
LINE
  5
F7
330
1F
100
AcDbEntity
  8
VISIBLE
100
AcDbLine
 10
156.4786530817239
 20
142.8322033137942
 30
0.0
 11
159.5349030817239
 21
142.8322033137942
 31
0.0
  0
LINE
  5
F8
330
1F
100
AcDbEntity
  8
VISIBLE
100
AcDbLine
 10
159.5349030817239
 20
142.8322033137942
 30
0.0
 11
159.5349030817239
 21
141.1665783137942
 31
0.0
  0
LINE
  5
F9
330
1F
100
AcDbEntity
  8
VISIBLE
100
AcDbLine
 10
159.2224030817239
 20
141.1665783137942
 30
0.0
 11
159.5349030817239
 21
141.1665783137942
 31
0.0
  0
LINE
  5
FA
330
1F
100
AcDbEntity
  8
VISIBLE
100
AcDbLine
 10
159.2224030817239
 20
141.1665783137942
 30
0.0
 11
159.2224030817239
 21
140.5290783137942
 31
0.0
  0
LINE
  5
FB
330
1F
100
AcDbEntity
  8
VISIBLE
100
AcDbLine
 10
159.2224030817239
 20
140.5290783137942
 30
0.0
 11
159.5349030817239
 21
140.5290783137942
 31
0.0
  0
LINE
  5
FC
330
1F
100
AcDbEntity
  8
VISIBLE
100
AcDbLine
 10
159.5349030817239
 20
140.5290783137942
 30
0.0
 11
159.5349030817239
 21
140.2947033137942
 31
0.0
  0
LINE
  5
FD
330
1F
100
AcDbEntity
  8
VISIBLE
100
AcDbLine
 10
159.5349030817239
 20
140.2947033137942
 30
0.0
 11
160.3224030817239
 21
140.2947033137942
 31
0.0
  0
LINE
  5
FE
330
1F
100
AcDbEntity
  8
VISIBLE
100
AcDbLine
 10
160.3224030817239
 20
140.5290783137942
 30
0.0
 11
160.3224030817239
 21
140.2947033137942
 31
0.0
  0
LINE
  5
FF
330
1F
100
AcDbEntity
  8
VISIBLE
100
AcDbLine
 10
160.3224030817239
 20
140.5290783137942
 30
0.0
 11
160.6349030817239
 21
140.5290783137942
 31
0.0
  0
LINE
  5
100
330
1F
100
AcDbEntity
  8
VISIBLE
100
AcDbLine
 10
160.6349030817239
 20
141.1665783137942
 30
0.0
 11
160.6349030817239
 21
140.5290783137942
 31
0.0
  0
LINE
  5
101
330
1F
100
AcDbEntity
  8
VISIBLE
100
AcDbLine
 10
160.3224030817239
 20
141.1665783137942
 30
0.0
 11
160.6349030817239
 21
141.1665783137942
 31
0.0
  0
LINE
  5
102
330
1F
100
AcDbEntity
  8
VISIBLE
100
AcDbLine
 10
160.3224030817239
 20
142.8322033137942
 30
0.0
 11
160.3224030817239
 21
141.1665783137942
 31
0.0
  0
LINE
  5
103
330
1F
100
AcDbEntity
  8
VISIBLE
100
AcDbLine
 10
163.3786530817239
 20
144.3322033137942
 30
0.0
 11
170.2786530817239
 21
144.3322033137942
 31
0.0
  0
LINE
  5
104
330
1F
100
AcDbEntity
  8
VISIBLE
100
AcDbLine
 10
170.2786530817239
 20
140.3322033137942
 30
0.0
 11
170.2786530817239
 21
144.3322033137942
 31
0.0
  0
LINE
  5
105
330
1F
100
AcDbEntity
  8
VISIBLE
100
AcDbLine
 10
170.2786530817239
 20
140.3322033137942
 30
0.0
 11
171.7786530817239
 21
140.3322033137942
 31
0.0
  0
LINE
  5
106
330
1F
100
AcDbEntity
  8
VISIBLE
100
AcDbLine
 10
171.7786530817239
 20
136.3322033137942
 30
0.0
 11
171.7786530817239
 21
140.3322033137942
 31
0.0
  0
LINE
  5
107
330
1F
100
AcDbEntity
  8
VISIBLE
100
AcDbLine
 10
170.2786530817239
 20
136.3322033137942
 30
0.0
 11
171.7786530817239
 21
136.3322033137942
 31
0.0
  0
LINE
  5
108
330
1F
100
AcDbEntity
  8
VISIBLE
100
AcDbLine
 10
170.2786530817239
 20
134.7259533137942
 30
0.0
 11
170.2786530817239
 21
136.3322033137942
 31
0.0
  0
LINE
  5
109
330
1F
100
AcDbEntity
  8
VISIBLE
100
AcDbLine
 10
168.6130280817239
 20
134.7259533137942
 30
0.0
 11
170.2786530817239
 21
134.7259533137942
 31
0.0
  0
LINE
  5
10A
330
1F
100
AcDbEntity
  8
VISIBLE
100
AcDbLine
 10
168.6130280817239
 20
135.0384533137942
 30
0.0
 11
168.6130280817239
 21
134.7259533137942
 31
0.0
  0
LINE
  5
10B
330
1F
100
AcDbEntity
  8
VISIBLE
100
AcDbLine
 10
167.9755280817239
 20
135.0384533137942
 30
0.0
 11
168.6130280817239
 21
135.0384533137942
 31
0.0
  0
LINE
  5
10C
330
1F
100
AcDbEntity
  8
VISIBLE
100
AcDbLine
 10
167.9755280817239
 20
135.0384533137942
 30
0.0
 11
167.9755280817239
 21
134.7259533137942
 31
0.0
  0
LINE
  5
10D
330
1F
100
AcDbEntity
  8
VISIBLE
100
AcDbLine
 10
167.7411530817239
 20
134.7259533137942
 30
0.0
 11
167.9755280817239
 21
134.7259533137942
 31
0.0
  0
LINE
  5
10E
330
1F
100
AcDbEntity
  8
VISIBLE
100
AcDbLine
 10
167.7411530817239
 20
134.7259533137942
 30
0.0
 11
167.7411530817239
 21
133.9384533137942
 31
0.0
  0
LINE
  5
10F
330
1F
100
AcDbEntity
  8
VISIBLE
100
AcDbLine
 10
167.7411530817239
 20
133.9384533137942
 30
0.0
 11
167.9755280817239
 21
133.9384533137942
 31
0.0
  0
LINE
  5
110
330
1F
100
AcDbEntity
  8
VISIBLE
100
AcDbLine
 10
167.9755280817239
 20
133.9384533137942
 30
0.0
 11
167.9755280817239
 21
133.6259533137942
 31
0.0
  0
LINE
  5
111
330
1F
100
AcDbEntity
  8
VISIBLE
100
AcDbLine
 10
167.9755280817239
 20
133.6259533137942
 30
0.0
 11
168.6130280817239
 21
133.6259533137942
 31
0.0
  0
LINE
  5
112
330
1F
100
AcDbEntity
  8
VISIBLE
100
AcDbLine
 10
168.6130280817239
 20
133.9384533137942
 30
0.0
 11
168.6130280817239
 21
133.6259533137942
 31
0.0
  0
LINE
  5
113
330
1F
100
AcDbEntity
  8
VISIBLE
100
AcDbLine
 10
168.6130280817239
 20
133.9384533137942
 30
0.0
 11
170.2786530817239
 21
133.9384533137942
 31
0.0
  0
LINE
  5
114
330
1F
100
AcDbEntity
  8
VISIBLE
100
AcDbLine
 10
170.2786530817239
 20
132.3322033137942
 30
0.0
 11
170.2786530817239
 21
133.9384533137942
 31
0.0
  0
LINE
  5
115
330
1F
100
AcDbEntity
  8
VISIBLE
100
AcDbLine
 10
170.2786530817239
 20
132.3322033137942
 30
0.0
 11
171.7786530817239
 21
132.3322033137942
 31
0.0
  0
LINE
  5
116
330
1F
100
AcDbEntity
  8
VISIBLE
100
AcDbLine
 10
171.7786530817239
 20
128.3322033137942
 30
0.0
 11
171.7786530817239
 21
132.3322033137942
 31
0.0
  0
LINE
  5
117
330
1F
100
AcDbEntity
  8
VISIBLE
100
AcDbLine
 10
170.2786530817239
 20
128.3322033137942
 30
0.0
 11
171.7786530817239
 21
128.3322033137942
 31
0.0
  0
LINE
  5
118
330
1F
100
AcDbEntity
  8
VISIBLE
100
AcDbLine
 10
170.2786530817239
 20
125.8322033137942
 30
0.0
 11
170.2786530817239
 21
128.3322033137942
 31
0.0
  0
LINE
  5
119
330
1F
100
AcDbEntity
  8
VISIBLE
100
AcDbLine
 10
135.7786530817239
 20
125.8322033137942
 30
0.0
 11
170.2786530817239
 21
125.8322033137942
 31
0.0
  0
LINE
  5
11A
330
1F
100
AcDbEntity
  8
VISIBLE
100
AcDbLine
 10
135.7786530817239
 20
128.3322033137942
 30
0.0
 11
135.7786530817239
 21
125.8322033137942
 31
0.0
  0
LINE
  5
11B
330
1F
100
AcDbEntity
  8
VISIBLE
100
AcDbLine
 10
135.7786530817239
 20
128.3322033137942
 30
0.0
 11
134.2786530817239
 21
128.3322033137942
 31
0.0
  0
LINE
  5
11C
330
1F
100
AcDbEntity
  8
VISIBLE
100
AcDbLine
 10
134.2786530817239
 20
128.3322033137942
 30
0.0
 11
134.2786530817239
 21
132.3322033137942
 31
0.0
  0
LINE
  5
11D
330
1F
100
AcDbEntity
  8
VISIBLE
100
AcDbLine
 10
135.7786530817239
 20
132.3322033137942
 30
0.0
 11
134.2786530817239
 21
132.3322033137942
 31
0.0
  0
LINE
  5
11E
330
1F
100
AcDbEntity
  8
VISIBLE
100
AcDbLine
 10
135.7786530817239
 20
133.9384533137942
 30
0.0
 11
135.7786530817239
 21
132.3322033137942
 31
0.0
  0
LINE
  5
11F
330
1F
100
AcDbEntity
  8
VISIBLE
100
AcDbLine
 10
137.4442780817239
 20
133.9384533137942
 30
0.0
 11
135.7786530817239
 21
133.9384533137942
 31
0.0
  0
LINE
  5
120
330
1F
100
AcDbEntity
  8
VISIBLE
100
AcDbLine
 10
137.4442780817239
 20
133.6259533137942
 30
0.0
 11
137.4442780817239
 21
133.9384533137942
 31
0.0
  0
LINE
  5
121
330
1F
100
AcDbEntity
  8
VISIBLE
100
AcDbLine
 10
138.0817780817239
 20
133.6259533137942
 30
0.0
 11
137.4442780817239
 21
133.6259533137942
 31
0.0
  0
LINE
  5
122
330
1F
100
AcDbEntity
  8
VISIBLE
100
AcDbLine
 10
138.0817780817239
 20
133.6259533137942
 30
0.0
 11
138.0817780817239
 21
133.9384533137942
 31
0.0
  0
LINE
  5
123
330
1F
100
AcDbEntity
  8
VISIBLE
100
AcDbLine
 10
138.3161530817239
 20
133.9384533137942
 30
0.0
 11
138.0817780817239
 21
133.9384533137942
 31
0.0
  0
LINE
  5
124
330
1F
100
AcDbEntity
  8
VISIBLE
100
AcDbLine
 10
138.3161530817239
 20
133.9384533137942
 30
0.0
 11
138.3161530817239
 21
134.7259533137942
 31
0.0
  0
LINE
  5
125
330
1F
100
AcDbEntity
  8
VISIBLE
100
AcDbLine
 10
138.3161530817239
 20
134.7259533137942
 30
0.0
 11
138.0817780817239
 21
134.7259533137942
 31
0.0
  0
LINE
  5
126
330
1F
100
AcDbEntity
  8
VISIBLE
100
AcDbLine
 10
138.0817780817239
 20
134.7259533137942
 30
0.0
 11
138.0817780817239
 21
135.0384533137942
 31
0.0
  0
LINE
  5
127
330
1F
100
AcDbEntity
  8
VISIBLE
100
AcDbLine
 10
138.0817780817239
 20
135.0384533137942
 30
0.0
 11
137.4442780817239
 21
135.0384533137942
 31
0.0
  0
LINE
  5
128
330
1F
100
AcDbEntity
  8
VISIBLE
100
AcDbLine
 10
137.4442780817239
 20
134.7259533137942
 30
0.0
 11
137.4442780817239
 21
135.0384533137942
 31
0.0
  0
LINE
  5
129
330
1F
100
AcDbEntity
  8
VISIBLE
100
AcDbLine
 10
137.4442780817239
 20
134.7259533137942
 30
0.0
 11
135.7786530817239
 21
134.7259533137942
 31
0.0
  0
LINE
  5
12A
330
1F
100
AcDbEntity
  8
VISIBLE
100
AcDbLine
 10
135.7786530817239
 20
136.3322033137942
 30
0.0
 11
135.7786530817239
 21
134.7259533137942
 31
0.0
  0
LINE
  5
12B
330
1F
100
AcDbEntity
  8
VISIBLE
100
AcDbLine
 10
135.7786530817239
 20
136.3322033137942
 30
0.0
 11
134.2786530817239
 21
136.3322033137942
 31
0.0
  0
LINE
  5
12C
330
1F
100
AcDbEntity
  8
VISIBLE
100
AcDbLine
 10
134.2786530817239
 20
136.3322033137942
 30
0.0
 11
134.2786530817239
 21
140.3322033137942
 31
0.0
  0
LINE
  5
12D
330
1F
100
AcDbEntity
  8
VISIBLE
100
AcDbLine
 10
135.7786530817239
 20
140.3322033137942
 30
0.0
 11
134.2786530817239
 21
140.3322033137942
 31
0.0
  0
LINE
  5
12E
330
1F
100
AcDbEntity
  8
VISIBLE
100
AcDbLine
 10
135.7786530817239
 20
144.3322033137942
 30
0.0
 11
135.7786530817239
 21
140.3322033137942
 31
0.0
  0
LINE
  5
12F
330
1F
100
AcDbEntity
  8
VISIBLE
100
AcDbLine
 10
135.7786530817239
 20
144.3322033137942
 30
0.0
 11
142.6786530817239
 21
144.3322033137942
 31
0.0
  0
LINE
  5
130
330
1F
100
AcDbEntity
  8
VISIBLE
100
AcDbLine
 10
142.6786530817239
 20
142.8322033137942
 30
0.0
 11
145.7349030817239
 21
142.8322033137942
 31
0.0
  0
LINE
  5
131
330
1F
100
AcDbEntity
  8
VISIBLE
100
AcDbLine
 10
145.7349030817239
 20
142.8322033137942
 30
0.0
 11
145.7349030817239
 21
141.1665783137942
 31
0.0
  0
LINE
  5
132
330
1F
100
AcDbEntity
  8
VISIBLE
100
AcDbLine
 10
160.3224030817239
 20
142.8322033137942
 30
0.0
 11
163.3786530817239
 21
142.8322033137942
 31
0.0
  0
LINE
  5
133
330
1F
100
AcDbEntity
  8
VISIBLE
100
AcDbLine
 10
156.4786530817239
 20
144.3322033137942
 30
0.0
 11
156.4786530817239
 21
142.8322033137942
 31
0.0
  0
LINE
  5
134
330
1F
100
AcDbEntity
  8
VISIBLE
100
AcDbLine
 10
146.5224030817239
 20
142.8322033137942
 30
0.0
 11
149.5786530817239
 21
142.8322033137942
 31
0.0
  0
LINE
  5
135
330
1F
100
AcDbEntity
  8
VISIBLE
100
AcDbLine
 10
149.5786530817239
 20
144.3322033137942
 30
0.0
 11
149.5786530817239
 21
142.8322033137942
 31
0.0
  0
LINE
  5
136
330
1F
100
AcDbEntity
  8
VISIBLE
100
AcDbLine
 10
142.6786530817239
 20
144.3322033137942
 30
0.0
 11
142.6786530817239
 21
142.8322033137942
 31
0.0
  0
LINE
  5
137
330
1F
100
AcDbEntity
  8
VISIBLE
100
AcDbLine
 10
149.5786530817239
 20
144.3322033137942
 30
0.0
 11
156.4786530817239
 21
144.3322033137942
 31
0.0
  0
LINE
  5
138
330
1F
100
AcDbEntity
  8
VISIBLE
100
AcDbLine
 10
163.3786530817239
 20
144.3322033137942
 30
0.0
 11
163.3786530817239
 21
142.8322033137942
 31
0.0
  0
CIRCLE
  5
139
330
1F
100
AcDbEntity
  8
VISIBLE
100
AcDbCircle
 10
153.0286530817239
 20
143.5822033137942
 30
0.0
 40
0.39375
  0
LINE
  5
13A
330
1F
100
AcDbEntity
  8
VISIBLE
100
AcDbLine
 10
189.2786530817239
 20
113.3322033137942
 30
0.0
 11
189.2786530817239
 21
114.8322033137942
 31
0.0
  0
LINE
  5
13B
330
1F
100
AcDbEntity
  8
VISIBLE
100
AcDbLine
 10
186.7786530817239
 20
114.8322033137942
 30
0.0
 11
184.2786530817239
 21
114.8322033137942
 31
0.0
  0
LINE
  5
13C
330
1F
100
AcDbEntity
  8
VISIBLE
100
AcDbLine
 10
184.2786530817239
 20
113.3322033137942
 30
0.0
 11
184.2786530817239
 21
114.8322033137942
 31
0.0
  0
LINE
  5
13D
330
1F
100
AcDbEntity
  8
VISIBLE
100
AcDbLine
 10
181.7786530817239
 20
114.8322033137942
 30
0.0
 11
179.2786530817239
 21
114.8322033137942
 31
0.0
  0
LINE
  5
13E
330
1F
100
AcDbEntity
  8
VISIBLE
100
AcDbLine
 10
186.7786530817239
 20
113.3322033137942
 30
0.0
 11
189.2786530817239
 21
113.3322033137942
 31
0.0
  0
LINE
  5
13F
330
1F
100
AcDbEntity
  8
VISIBLE
100
AcDbLine
 10
191.7786530817239
 20
114.8322033137942
 30
0.0
 11
189.2786530817239
 21
114.8322033137942
 31
0.0
  0
LINE
  5
140
330
1F
100
AcDbEntity
  8
VISIBLE
100
AcDbLine
 10
179.2786530817239
 20
122.0822033137942
 30
0.0
 11
191.7786530817239
 21
122.0822033137942
 31
0.0
  0
LINE
  5
141
330
1F
100
AcDbEntity
  8
VISIBLE
100
AcDbLine
 10
186.7786530817239
 20
113.3322033137942
 30
0.0
 11
186.7786530817239
 21
114.8322033137942
 31
0.0
  0
LINE
  5
142
330
1F
100
AcDbEntity
  8
VISIBLE
100
AcDbLine
 10
179.2786530817239
 20
122.0822033137942
 30
0.0
 11
179.2786530817239
 21
114.8322033137942
 31
0.0
  0
LINE
  5
143
330
1F
100
AcDbEntity
  8
VISIBLE
100
AcDbLine
 10
181.7786530817239
 20
113.3322033137942
 30
0.0
 11
184.2786530817239
 21
113.3322033137942
 31
0.0
  0
LINE
  5
144
330
1F
100
AcDbEntity
  8
VISIBLE
100
AcDbLine
 10
181.7786530817239
 20
113.3322033137942
 30
0.0
 11
181.7786530817239
 21
114.8322033137942
 31
0.0
  0
LINE
  5
145
330
1F
100
AcDbEntity
  8
VISIBLE
100
AcDbLine
 10
191.7786530817239
 20
122.0822033137942
 30
0.0
 11
191.7786530817239
 21
114.8322033137942
 31
0.0
  0
LINE
  5
146
330
1F
100
AcDbEntity
  8
VISIBLE
100
AcDbLine
 10
157.7786530817239
 20
102.8822033137942
 30
0.0
 11
157.7786530817239
 21
105.9384533137942
 31
0.0
  0
LINE
  5
147
330
1F
100
AcDbEntity
  8
VISIBLE
100
AcDbLine
 10
157.7786530817239
 20
102.8822033137942
 30
0.0
 11
159.2786530817239
 21
102.8822033137942
 31
0.0
  0
LINE
  5
148
330
1F
100
AcDbEntity
  8
VISIBLE
100
AcDbLine
 10
159.2786530817239
 20
95.98220331379423
 30
0.0
 11
159.2786530817239
 21
102.8822033137942
 31
0.0
  0
LINE
  5
149
330
1F
100
AcDbEntity
  8
VISIBLE
100
AcDbLine
 10
157.7786530817239
 20
95.98220331379423
 30
0.0
 11
159.2786530817239
 21
95.98220331379423
 31
0.0
  0
LINE
  5
14A
330
1F
100
AcDbEntity
  8
VISIBLE
100
AcDbLine
 10
157.7786530817239
 20
89.08220331379422
 30
0.0
 11
157.7786530817239
 21
95.98220331379423
 31
0.0
  0
LINE
  5
14B
330
1F
100
AcDbEntity
  8
VISIBLE
100
AcDbLine
 10
154.2786530817239
 20
89.08220331379422
 30
0.0
 11
157.7786530817239
 21
89.08220331379422
 31
0.0
  0
LINE
  5
14C
330
1F
100
AcDbEntity
  8
VISIBLE
100
AcDbLine
 10
154.2786530817239
 20
89.08220331379422
 30
0.0
 11
154.2786530817239
 21
87.58220331379422
 31
0.0
  0
LINE
  5
14D
330
1F
100
AcDbEntity
  8
VISIBLE
100
AcDbLine
 10
149.2786530817239
 20
89.08220331379422
 30
0.0
 11
149.2786530817239
 21
87.58220331379422
 31
0.0
  0
LINE
  5
14E
330
1F
100
AcDbEntity
  8
VISIBLE
100
AcDbLine
 10
147.1724030817239
 20
90.74782831379423
 30
0.0
 11
147.1724030817239
 21
89.08220331379422
 31
0.0
  0
LINE
  5
14F
330
1F
100
AcDbEntity
  8
VISIBLE
100
AcDbLine
 10
147.4849030817239
 20
90.74782831379423
 30
0.0
 11
147.1724030817239
 21
90.74782831379423
 31
0.0
  0
LINE
  5
150
330
1F
100
AcDbEntity
  8
VISIBLE
100
AcDbLine
 10
147.4849030817239
 20
91.38532831379422
 30
0.0
 11
147.4849030817239
 21
90.74782831379423
 31
0.0
  0
LINE
  5
151
330
1F
100
AcDbEntity
  8
VISIBLE
100
AcDbLine
 10
147.4849030817239
 20
91.38532831379422
 30
0.0
 11
147.1724030817239
 21
91.38532831379422
 31
0.0
  0
LINE
  5
152
330
1F
100
AcDbEntity
  8
VISIBLE
100
AcDbLine
 10
147.1724030817239
 20
91.61970331379422
 30
0.0
 11
147.1724030817239
 21
91.38532831379422
 31
0.0
  0
LINE
  5
153
330
1F
100
AcDbEntity
  8
VISIBLE
100
AcDbLine
 10
147.1724030817239
 20
91.61970331379422
 30
0.0
 11
146.3849030817239
 21
91.61970331379422
 31
0.0
  0
LINE
  5
154
330
1F
100
AcDbEntity
  8
VISIBLE
100
AcDbLine
 10
146.3849030817239
 20
91.61970331379422
 30
0.0
 11
146.3849030817239
 21
91.38532831379422
 31
0.0
  0
LINE
  5
155
330
1F
100
AcDbEntity
  8
VISIBLE
100
AcDbLine
 10
146.3849030817239
 20
91.38532831379422
 30
0.0
 11
146.0724030817239
 21
91.38532831379422
 31
0.0
  0
LINE
  5
156
330
1F
100
AcDbEntity
  8
VISIBLE
100
AcDbLine
 10
146.0724030817239
 20
91.38532831379422
 30
0.0
 11
146.0724030817239
 21
90.74782831379423
 31
0.0
  0
LINE
  5
157
330
1F
100
AcDbEntity
  8
VISIBLE
100
AcDbLine
 10
146.3849030817239
 20
90.74782831379423
 30
0.0
 11
146.0724030817239
 21
90.74782831379423
 31
0.0
  0
LINE
  5
158
330
1F
100
AcDbEntity
  8
VISIBLE
100
AcDbLine
 10
146.3849030817239
 20
90.74782831379423
 30
0.0
 11
146.3849030817239
 21
89.08220331379422
 31
0.0
  0
LINE
  5
159
330
1F
100
AcDbEntity
  8
VISIBLE
100
AcDbLine
 10
144.2786530817239
 20
89.08220331379422
 30
0.0
 11
146.3849030817239
 21
89.08220331379422
 31
0.0
  0
LINE
  5
15A
330
1F
100
AcDbEntity
  8
VISIBLE
100
AcDbLine
 10
144.2786530817239
 20
89.08220331379422
 30
0.0
 11
144.2786530817239
 21
87.58220331379422
 31
0.0
  0
LINE
  5
15B
330
1F
100
AcDbEntity
  8
VISIBLE
100
AcDbLine
 10
139.2786530817239
 20
87.58220331379422
 30
0.0
 11
144.2786530817239
 21
87.58220331379422
 31
0.0
  0
LINE
  5
15C
330
1F
100
AcDbEntity
  8
VISIBLE
100
AcDbLine
 10
139.2786530817239
 20
89.08220331379422
 30
0.0
 11
139.2786530817239
 21
87.58220331379422
 31
0.0
  0
LINE
  5
15D
330
1F
100
AcDbEntity
  8
VISIBLE
100
AcDbLine
 10
135.7786530817239
 20
89.08220331379422
 30
0.0
 11
139.2786530817239
 21
89.08220331379422
 31
0.0
  0
LINE
  5
15E
330
1F
100
AcDbEntity
  8
VISIBLE
100
AcDbLine
 10
135.7786530817239
 20
95.98220331379423
 30
0.0
 11
135.7786530817239
 21
89.08220331379422
 31
0.0
  0
LINE
  5
15F
330
1F
100
AcDbEntity
  8
VISIBLE
100
AcDbLine
 10
135.7786530817239
 20
95.98220331379423
 30
0.0
 11
134.2786530817239
 21
95.98220331379423
 31
0.0
  0
LINE
  5
160
330
1F
100
AcDbEntity
  8
VISIBLE
100
AcDbLine
 10
135.7786530817239
 20
102.8822033137942
 30
0.0
 11
134.2786530817239
 21
102.8822033137942
 31
0.0
  0
LINE
  5
161
330
1F
100
AcDbEntity
  8
VISIBLE
100
AcDbLine
 10
138.3161530817239
 20
105.9384533137942
 30
0.0
 11
138.3161530817239
 21
106.7259533137942
 31
0.0
  0
LINE
  5
162
330
1F
100
AcDbEntity
  8
VISIBLE
100
AcDbLine
 10
138.3161530817239
 20
106.7259533137942
 30
0.0
 11
138.0817780817239
 21
106.7259533137942
 31
0.0
  0
LINE
  5
163
330
1F
100
AcDbEntity
  8
VISIBLE
100
AcDbLine
 10
138.0817780817239
 20
106.7259533137942
 30
0.0
 11
138.0817780817239
 21
107.0384533137942
 31
0.0
  0
LINE
  5
164
330
1F
100
AcDbEntity
  8
VISIBLE
100
AcDbLine
 10
135.7786530817239
 20
109.7822033137942
 30
0.0
 11
135.7786530817239
 21
106.7259533137942
 31
0.0
  0
LINE
  5
165
330
1F
100
AcDbEntity
  8
VISIBLE
100
AcDbLine
 10
135.7786530817239
 20
109.7822033137942
 30
0.0
 11
134.2786530817239
 21
109.7822033137942
 31
0.0
  0
LINE
  5
166
330
1F
100
AcDbEntity
  8
VISIBLE
100
AcDbLine
 10
134.2786530817239
 20
109.7822033137942
 30
0.0
 11
134.2786530817239
 21
116.6822033137942
 31
0.0
  0
LINE
  5
167
330
1F
100
AcDbEntity
  8
VISIBLE
100
AcDbLine
 10
135.7786530817239
 20
116.6822033137942
 30
0.0
 11
134.2786530817239
 21
116.6822033137942
 31
0.0
  0
LINE
  5
168
330
1F
100
AcDbEntity
  8
VISIBLE
100
AcDbLine
 10
135.7786530817239
 20
123.5822033137942
 30
0.0
 11
135.7786530817239
 21
116.6822033137942
 31
0.0
  0
LINE
  5
169
330
1F
100
AcDbEntity
  8
VISIBLE
100
AcDbLine
 10
139.2786530817239
 20
123.5822033137942
 30
0.0
 11
135.7786530817239
 21
123.5822033137942
 31
0.0
  0
LINE
  5
16A
330
1F
100
AcDbEntity
  8
VISIBLE
100
AcDbLine
 10
139.2786530817239
 20
123.5822033137942
 30
0.0
 11
139.2786530817239
 21
125.0822033137942
 31
0.0
  0
LINE
  5
16B
330
1F
100
AcDbEntity
  8
VISIBLE
100
AcDbLine
 10
139.2786530817239
 20
125.0822033137942
 30
0.0
 11
144.2786530817239
 21
125.0822033137942
 31
0.0
  0
LINE
  5
16C
330
1F
100
AcDbEntity
  8
VISIBLE
100
AcDbLine
 10
144.2786530817239
 20
123.5822033137942
 30
0.0
 11
144.2786530817239
 21
125.0822033137942
 31
0.0
  0
LINE
  5
16D
330
1F
100
AcDbEntity
  8
VISIBLE
100
AcDbLine
 10
146.3849030817239
 20
121.9165783137942
 30
0.0
 11
146.3849030817239
 21
123.5822033137942
 31
0.0
  0
LINE
  5
16E
330
1F
100
AcDbEntity
  8
VISIBLE
100
AcDbLine
 10
146.0724030817239
 20
121.9165783137942
 30
0.0
 11
146.3849030817239
 21
121.9165783137942
 31
0.0
  0
LINE
  5
16F
330
1F
100
AcDbEntity
  8
VISIBLE
100
AcDbLine
 10
146.0724030817239
 20
121.2790783137942
 30
0.0
 11
146.0724030817239
 21
121.9165783137942
 31
0.0
  0
LINE
  5
170
330
1F
100
AcDbEntity
  8
VISIBLE
100
AcDbLine
 10
146.0724030817239
 20
121.2790783137942
 30
0.0
 11
146.3849030817239
 21
121.2790783137942
 31
0.0
  0
LINE
  5
171
330
1F
100
AcDbEntity
  8
VISIBLE
100
AcDbLine
 10
146.3849030817239
 20
121.0447033137942
 30
0.0
 11
146.3849030817239
 21
121.2790783137942
 31
0.0
  0
LINE
  5
172
330
1F
100
AcDbEntity
  8
VISIBLE
100
AcDbLine
 10
147.1724030817239
 20
121.0447033137942
 30
0.0
 11
147.1724030817239
 21
121.2790783137942
 31
0.0
  0
LINE
  5
173
330
1F
100
AcDbEntity
  8
VISIBLE
100
AcDbLine
 10
147.1724030817239
 20
121.9165783137942
 30
0.0
 11
147.1724030817239
 21
123.5822033137942
 31
0.0
  0
LINE
  5
174
330
1F
100
AcDbEntity
  8
VISIBLE
100
AcDbLine
 10
149.2786530817239
 20
123.5822033137942
 30
0.0
 11
147.1724030817239
 21
123.5822033137942
 31
0.0
  0
LINE
  5
175
330
1F
100
AcDbEntity
  8
VISIBLE
100
AcDbLine
 10
149.2786530817239
 20
123.5822033137942
 30
0.0
 11
149.2786530817239
 21
125.0822033137942
 31
0.0
  0
LINE
  5
176
330
1F
100
AcDbEntity
  8
VISIBLE
100
AcDbLine
 10
149.2786530817239
 20
125.0822033137942
 30
0.0
 11
154.2786530817239
 21
125.0822033137942
 31
0.0
  0
LINE
  5
177
330
1F
100
AcDbEntity
  8
VISIBLE
100
AcDbLine
 10
154.2786530817239
 20
123.5822033137942
 30
0.0
 11
154.2786530817239
 21
125.0822033137942
 31
0.0
  0
LINE
  5
178
330
1F
100
AcDbEntity
  8
VISIBLE
100
AcDbLine
 10
157.7786530817239
 20
123.5822033137942
 30
0.0
 11
154.2786530817239
 21
123.5822033137942
 31
0.0
  0
LINE
  5
179
330
1F
100
AcDbEntity
  8
VISIBLE
100
AcDbLine
 10
157.7786530817239
 20
116.6822033137942
 30
0.0
 11
157.7786530817239
 21
123.5822033137942
 31
0.0
  0
LINE
  5
17A
330
1F
100
AcDbEntity
  8
VISIBLE
100
AcDbLine
 10
157.7786530817239
 20
116.6822033137942
 30
0.0
 11
159.2786530817239
 21
116.6822033137942
 31
0.0
  0
LINE
  5
17B
330
1F
100
AcDbEntity
  8
VISIBLE
100
AcDbLine
 10
159.2786530817239
 20
109.7822033137942
 30
0.0
 11
159.2786530817239
 21
116.6822033137942
 31
0.0
  0
LINE
  5
17C
330
1F
100
AcDbEntity
  8
VISIBLE
100
AcDbLine
 10
157.7786530817239
 20
109.7822033137942
 30
0.0
 11
159.2786530817239
 21
109.7822033137942
 31
0.0
  0
LINE
  5
17D
330
1F
100
AcDbEntity
  8
VISIBLE
100
AcDbLine
 10
155.2411530817239
 20
106.7259533137942
 30
0.0
 11
155.2411530817239
 21
105.9384533137942
 31
0.0
  0
LINE
  5
17E
330
1F
100
AcDbEntity
  8
VISIBLE
100
AcDbLine
 10
155.2411530817239
 20
105.9384533137942
 30
0.0
 11
155.4755280817239
 21
105.9384533137942
 31
0.0
  0
CIRCLE
  5
17F
330
1F
100
AcDbEntity
  8
VISIBLE
100
AcDbCircle
 10
141.7786530817239
 20
124.3322033137942
 30
0.0
 40
0.39375
  0
CIRCLE
  5
180
330
1F
100
AcDbEntity
  8
VISIBLE
100
AcDbCircle
 10
151.7786530817239
 20
124.3322033137942
 30
0.0
 40
0.39375
  0
LINE
  5
181
330
1F
100
AcDbEntity
  8
VISIBLE
100
AcDbLine
 10
145.2670236940132
 20
102.0572033137942
 30
0.0
 11
145.2670236940132
 21
99.55720331379422
 31
0.0
  0
LINE
  5
182
330
1F
100
AcDbEntity
  8
VISIBLE
100
AcDbLine
 10
146.7670236940132
 20
99.55720331379422
 30
0.0
 11
145.2670236940132
 21
99.55720331379422
 31
0.0
  0
LINE
  5
183
330
1F
100
AcDbEntity
  8
VISIBLE
100
AcDbLine
 10
146.7670236940132
 20
102.0572033137942
 30
0.0
 11
146.7670236940132
 21
99.55720331379422
 31
0.0
  0
LINE
  5
184
330
1F
100
AcDbEntity
  8
VISIBLE
100
AcDbLine
 10
146.7670236940132
 20
102.0572033137942
 30
0.0
 11
145.2670236940132
 21
102.0572033137942
 31
0.0
  0
LINE
  5
185
330
1F
100
AcDbEntity
  8
VISIBLE
100
AcDbLine
 10
145.2670236940132
 20
97.05720331379422
 30
0.0
 11
145.2670236940132
 21
94.55720331379422
 31
0.0
  0
LINE
  5
186
330
1F
100
AcDbEntity
  8
VISIBLE
100
AcDbLine
 10
146.7670236940132
 20
94.55720331379422
 30
0.0
 11
145.2670236940132
 21
94.55720331379422
 31
0.0
  0
LINE
  5
187
330
1F
100
AcDbEntity
  8
VISIBLE
100
AcDbLine
 10
146.7670236940132
 20
97.05720331379422
 30
0.0
 11
146.7670236940132
 21
94.55720331379422
 31
0.0
  0
LINE
  5
188
330
1F
100
AcDbEntity
  8
VISIBLE
100
AcDbLine
 10
146.7670236940132
 20
97.05720331379422
 30
0.0
 11
145.2670236940132
 21
97.05720331379422
 31
0.0
  0
LINE
  5
189
330
1F
100
AcDbEntity
  8
VISIBLE
100
AcDbLine
 10
153.2786530817239
 20
118.9133574656549
 30
0.0
 11
153.2786530817239
 21
115.2634911788816
 31
0.0
  0
LINE
  5
18A
330
1F
100
AcDbEntity
  8
VISIBLE
100
AcDbLine
 10
154.7786530817239
 20
115.2634911788816
 30
0.0
 11
153.2786530817239
 21
115.2634911788816
 31
0.0
  0
LINE
  5
18B
330
1F
100
AcDbEntity
  8
VISIBLE
100
AcDbLine
 10
154.7786530817239
 20
118.9133574656549
 30
0.0
 11
154.7786530817239
 21
115.2634911788816
 31
0.0
  0
LINE
  5
18C
330
1F
100
AcDbEntity
  8
VISIBLE
100
AcDbLine
 10
154.7786530817239
 20
118.9133574656549
 30
0.0
 11
153.2786530817239
 21
118.9133574656549
 31
0.0
  0
LINE
  5
18D
330
1F
100
AcDbEntity
  8
VISIBLE
100
AcDbLine
 10
153.2786530817239
 20
111.6136248921083
 30
0.0
 11
153.2786530817239
 21
107.963758605335
 31
0.0
  0
LINE
  5
18E
330
1F
100
AcDbEntity
  8
VISIBLE
100
AcDbLine
 10
154.7786530817239
 20
107.963758605335
 30
0.0
 11
153.2786530817239
 21
107.963758605335
 31
0.0
  0
LINE
  5
18F
330
1F
100
AcDbEntity
  8
VISIBLE
100
AcDbLine
 10
154.7786530817239
 20
111.6136248921083
 30
0.0
 11
154.7786530817239
 21
107.963758605335
 31
0.0
  0
LINE
  5
190
330
1F
100
AcDbEntity
  8
VISIBLE
100
AcDbLine
 10
154.7786530817239
 20
111.6136248921083
 30
0.0
 11
153.2786530817239
 21
111.6136248921083
 31
0.0
  0
LINE
  5
191
330
1F
100
AcDbEntity
  8
VISIBLE
100
AcDbLine
 10
147.1724030817239
 20
89.08220331379422
 30
0.0
 11
149.2786530817239
 21
89.08220331379422
 31
0.0
  0
LINE
  5
192
330
1F
100
AcDbEntity
  8
VISIBLE
100
AcDbLine
 10
146.3849030817239
 20
123.5822033137942
 30
0.0
 11
144.2786530817239
 21
123.5822033137942
 31
0.0
  0
LINE
  5
193
330
1F
100
AcDbEntity
  8
VISIBLE
100
AcDbLine
 10
135.7786530817239
 20
105.9384533137942
 30
0.0
 11
135.7786530817239
 21
102.8822033137942
 31
0.0
  0
LINE
  5
194
330
1F
100
AcDbEntity
  8
VISIBLE
100
AcDbLine
 10
157.7786530817239
 20
106.7259533137942
 30
0.0
 11
157.7786530817239
 21
109.7822033137942
 31
0.0
  0
LINE
  5
195
330
1F
100
AcDbEntity
  8
VISIBLE
100
AcDbLine
 10
147.1724030817239
 20
121.2790783137942
 30
0.0
 11
147.4849030817239
 21
121.2790783137942
 31
0.0
  0
CIRCLE
  5
196
330
1F
100
AcDbEntity
  8
VISIBLE
100
AcDbCircle
 10
158.5286530817239
 20
113.2322033137942
 30
0.0
 40
0.39375
  0
CIRCLE
  5
197
330
1F
100
AcDbEntity
  8
VISIBLE
100
AcDbCircle
 10
135.0286530817239
 20
113.2322033137942
 30
0.0
 40
0.39375
  0
LINE
  5
198
330
1F
100
AcDbEntity
  8
VISIBLE
100
AcDbLine
 10
155.4755280817239
 20
105.9384533137942
 30
0.0
 11
155.4755280817239
 21
105.6259533137942
 31
0.0
  0
LINE
  5
199
330
1F
100
AcDbEntity
  8
VISIBLE
100
AcDbLine
 10
155.4755280817239
 20
107.0384533137942
 30
0.0
 11
156.1130280817239
 21
107.0384533137942
 31
0.0
  0
LINE
  5
19A
330
1F
100
AcDbEntity
  8
VISIBLE
100
AcDbLine
 10
156.1130280817239
 20
107.0384533137942
 30
0.0
 11
156.1130280817239
 21
106.7259533137942
 31
0.0
  0
LINE
  5
19B
330
1F
100
AcDbEntity
  8
VISIBLE
100
AcDbLine
 10
156.1130280817239
 20
106.7259533137942
 30
0.0
 11
157.7786530817239
 21
106.7259533137942
 31
0.0
  0
LINE
  5
19C
330
1F
100
AcDbEntity
  8
VISIBLE
100
AcDbLine
 10
138.0817780817239
 20
107.0384533137942
 30
0.0
 11
137.4442780817239
 21
107.0384533137942
 31
0.0
  0
LINE
  5
19D
330
1F
100
AcDbEntity
  8
VISIBLE
100
AcDbLine
 10
137.4442780817239
 20
105.9384533137942
 30
0.0
 11
135.7786530817239
 21
105.9384533137942
 31
0.0
  0
LINE
  5
19E
330
1F
100
AcDbEntity
  8
VISIBLE
100
AcDbLine
 10
155.4755280817239
 20
107.0384533137942
 30
0.0
 11
155.4755280817239
 21
106.7259533137942
 31
0.0
  0
LINE
  5
19F
330
1F
100
AcDbEntity
  8
VISIBLE
100
AcDbLine
 10
156.1130280817239
 20
105.9384533137942
 30
0.0
 11
156.1130280817239
 21
105.6259533137942
 31
0.0
  0
LINE
  5
1A0
330
1F
100
AcDbEntity
  8
VISIBLE
100
AcDbLine
 10
149.2786530817239
 20
87.58220331379422
 30
0.0
 11
154.2786530817239
 21
87.58220331379422
 31
0.0
  0
CIRCLE
  5
1A1
330
1F
100
AcDbEntity
  8
VISIBLE
100
AcDbCircle
 10
151.7786530817239
 20
88.33220331379422
 30
0.0
 40
0.39375
  0
CIRCLE
  5
1A2
330
1F
100
AcDbEntity
  8
VISIBLE
100
AcDbCircle
 10
141.7786530817239
 20
88.33220331379422
 30
0.0
 40
0.39375
  0
CIRCLE
  5
1A3
330
1F
100
AcDbEntity
  8
VISIBLE
100
AcDbCircle
 10
158.5286530817239
 20
99.43220331379422
 30
0.0
 40
0.39375
  0
LINE
  5
1A4
330
1F
100
AcDbEntity
  8
VISIBLE
100
AcDbLine
 10
155.2411530817239
 20
106.7259533137942
 30
0.0
 11
155.4755280817239
 21
106.7259533137942
 31
0.0
  0
LINE
  5
1A5
330
1F
100
AcDbEntity
  8
VISIBLE
100
AcDbLine
 10
147.1724030817239
 20
121.9165783137942
 30
0.0
 11
147.4849030817239
 21
121.9165783137942
 31
0.0
  0
CIRCLE
  5
1A6
330
1F
100
AcDbEntity
  8
VISIBLE
100
AcDbCircle
 10
135.0286530817239
 20
99.43220331379422
 30
0.0
 40
0.39375
  0
LINE
  5
1A7
330
1F
100
AcDbEntity
  8
VISIBLE
100
AcDbLine
 10
138.3161530817239
 20
105.9384533137942
 30
0.0
 11
138.0817780817239
 21
105.9384533137942
 31
0.0
  0
LINE
  5
1A8
330
1F
100
AcDbEntity
  8
VISIBLE
100
AcDbLine
 10
155.4755280817239
 20
105.6259533137942
 30
0.0
 11
156.1130280817239
 21
105.6259533137942
 31
0.0
  0
LINE
  5
1A9
330
1F
100
AcDbEntity
  8
VISIBLE
100
AcDbLine
 10
137.4442780817239
 20
105.6259533137942
 30
0.0
 11
137.4442780817239
 21
105.9384533137942
 31
0.0
  0
LINE
  5
1AA
330
1F
100
AcDbEntity
  8
VISIBLE
100
AcDbLine
 10
134.2786530817239
 20
95.98220331379423
 30
0.0
 11
134.2786530817239
 21
102.8822033137942
 31
0.0
  0
LINE
  5
1AB
330
1F
100
AcDbEntity
  8
VISIBLE
100
AcDbLine
 10
137.4442780817239
 20
106.7259533137942
 30
0.0
 11
135.7786530817239
 21
106.7259533137942
 31
0.0
  0
LINE
  5
1AC
330
1F
100
AcDbEntity
  8
VISIBLE
100
AcDbLine
 10
156.1130280817239
 20
105.9384533137942
 30
0.0
 11
157.7786530817239
 21
105.9384533137942
 31
0.0
  0
LINE
  5
1AD
330
1F
100
AcDbEntity
  8
VISIBLE
100
AcDbLine
 10
147.4849030817239
 20
121.2790783137942
 30
0.0
 11
147.4849030817239
 21
121.9165783137942
 31
0.0
  0
LINE
  5
1AE
330
1F
100
AcDbEntity
  8
VISIBLE
100
AcDbLine
 10
138.0817780817239
 20
105.6259533137942
 30
0.0
 11
138.0817780817239
 21
105.9384533137942
 31
0.0
  0
LINE
  5
1AF
330
1F
100
AcDbEntity
  8
VISIBLE
100
AcDbLine
 10
138.0817780817239
 20
105.6259533137942
 30
0.0
 11
137.4442780817239
 21
105.6259533137942
 31
0.0
  0
LINE
  5
1B0
330
1F
100
AcDbEntity
  8
VISIBLE
100
AcDbLine
 10
137.4442780817239
 20
106.7259533137942
 30
0.0
 11
137.4442780817239
 21
107.0384533137942
 31
0.0
  0
LINE
  5
1B1
330
1F
100
AcDbEntity
  8
VISIBLE
100
AcDbLine
 10
146.3849030817239
 20
121.0447033137942
 30
0.0
 11
147.1724030817239
 21
121.0447033137942
 31
0.0
  0
LINE
  5
1B2
330
1F
100
AcDbEntity
  8
VISIBLE
100
AcDbLine
 10
198.7786530817239
 20
112.5822033137942
 30
0.0
 11
217.5286530817239
 21
112.5822033137942
 31
0.0
  0
LINE
  5
1B3
330
1F
100
AcDbEntity
  8
VISIBLE
100
AcDbLine
 10
217.5286530817239
 20
87.58220331379422
 30
0.0
 11
217.5286530817239
 21
112.5822033137942
 31
0.0
  0
LINE
  5
1B4
330
1F
100
AcDbEntity
  8
VISIBLE
100
AcDbLine
 10
198.7786530817239
 20
87.58220331379422
 30
0.0
 11
198.7786530817239
 21
112.5822033137942
 31
0.0
  0
LINE
  5
1B5
330
1F
100
AcDbEntity
  8
VISIBLE
100
AcDbLine
 10
198.7786530817239
 20
87.58220331379422
 30
0.0
 11
217.5286530817239
 21
87.58220331379422
 31
0.0
  0
LINE
  5
1B6
330
1F
100
AcDbEntity
  8
VISIBLE
100
AcDbLine
 10
189.3224030817239
 20
141.1665783137942
 30
0.0
 11
189.6349030817239
 21
141.1665783137942
 31
0.0
  0
LINE
  5
1B7
330
1F
100
AcDbEntity
  8
VISIBLE
100
AcDbLine
 10
189.3224030817239
 20
141.1665783137942
 30
0.0
 11
189.3224030817239
 21
140.5290783137942
 31
0.0
  0
LINE
  5
1B8
330
1F
100
AcDbEntity
  8
VISIBLE
100
AcDbLine
 10
189.3224030817239
 20
140.5290783137942
 30
0.0
 11
189.6349030817239
 21
140.5290783137942
 31
0.0
  0
LINE
  5
1B9
330
1F
100
AcDbEntity
  8
VISIBLE
100
AcDbLine
 10
189.6349030817239
 20
140.5290783137942
 30
0.0
 11
189.6349030817239
 21
140.2947033137942
 31
0.0
  0
LINE
  5
1BA
330
1F
100
AcDbEntity
  8
VISIBLE
100
AcDbLine
 10
189.6349030817239
 20
140.2947033137942
 30
0.0
 11
190.4224030817239
 21
140.2947033137942
 31
0.0
  0
LINE
  5
1BB
330
1F
100
AcDbEntity
  8
VISIBLE
100
AcDbLine
 10
190.4224030817239
 20
140.5290783137942
 30
0.0
 11
190.4224030817239
 21
140.2947033137942
 31
0.0
  0
LINE
  5
1BC
330
1F
100
AcDbEntity
  8
VISIBLE
100
AcDbLine
 10
190.4224030817239
 20
140.5290783137942
 30
0.0
 11
190.7349030817239
 21
140.5290783137942
 31
0.0
  0
LINE
  5
1BD
330
1F
100
AcDbEntity
  8
VISIBLE
100
AcDbLine
 10
190.7349030817239
 20
141.1665783137942
 30
0.0
 11
190.7349030817239
 21
140.5290783137942
 31
0.0
  0
LINE
  5
1BE
330
1F
100
AcDbEntity
  8
VISIBLE
100
AcDbLine
 10
190.4224030817239
 20
141.1665783137942
 30
0.0
 11
190.7349030817239
 21
141.1665783137942
 31
0.0
  0
LINE
  5
1BF
330
1F
100
AcDbEntity
  8
VISIBLE
100
AcDbLine
 10
190.4224030817239
 20
142.8322033137942
 30
0.0
 11
190.4224030817239
 21
141.1665783137942
 31
0.0
  0
LINE
  5
1C0
330
1F
100
AcDbEntity
  8
VISIBLE
100
AcDbLine
 10
192.5286530817239
 20
144.3322033137942
 30
0.0
 11
192.5286530817239
 21
142.8322033137942
 31
0.0
  0
LINE
  5
1C1
330
1F
100
AcDbEntity
  8
VISIBLE
100
AcDbLine
 10
197.5286530817239
 20
140.3322033137942
 30
0.0
 11
197.5286530817239
 21
144.3322033137942
 31
0.0
  0
LINE
  5
1C2
330
1F
100
AcDbEntity
  8
VISIBLE
100
AcDbLine
 10
197.5286530817239
 20
140.3322033137942
 30
0.0
 11
196.0286530817239
 21
140.3322033137942
 31
0.0
  0
LINE
  5
1C3
330
1F
100
AcDbEntity
  8
VISIBLE
100
AcDbLine
 10
196.0286530817239
 20
140.3322033137942
 30
0.0
 11
196.0286530817239
 21
138.7259533137942
 31
0.0
  0
LINE
  5
1C4
330
1F
100
AcDbEntity
  8
VISIBLE
100
AcDbLine
 10
196.0286530817239
 20
138.7259533137942
 30
0.0
 11
194.3630280817239
 21
138.7259533137942
 31
0.0
  0
LINE
  5
1C5
330
1F
100
AcDbEntity
  8
VISIBLE
100
AcDbLine
 10
194.3630280817239
 20
139.0384533137942
 30
0.0
 11
194.3630280817239
 21
138.7259533137942
 31
0.0
  0
LINE
  5
1C6
330
1F
100
AcDbEntity
  8
VISIBLE
100
AcDbLine
 10
194.3630280817239
 20
139.0384533137942
 30
0.0
 11
193.7255280817239
 21
139.0384533137942
 31
0.0
  0
LINE
  5
1C7
330
1F
100
AcDbEntity
  8
VISIBLE
100
AcDbLine
 10
193.7255280817239
 20
139.0384533137942
 30
0.0
 11
193.7255280817239
 21
138.7259533137942
 31
0.0
  0
LINE
  5
1C8
330
1F
100
AcDbEntity
  8
VISIBLE
100
AcDbLine
 10
193.7255280817239
 20
138.7259533137942
 30
0.0
 11
193.4911530817239
 21
138.7259533137942
 31
0.0
  0
LINE
  5
1C9
330
1F
100
AcDbEntity
  8
VISIBLE
100
AcDbLine
 10
193.4911530817239
 20
138.7259533137942
 30
0.0
 11
193.4911530817239
 21
137.9384533137942
 31
0.0
  0
LINE
  5
1CA
330
1F
100
AcDbEntity
  8
VISIBLE
100
AcDbLine
 10
193.7255280817239
 20
137.9384533137942
 30
0.0
 11
193.4911530817239
 21
137.9384533137942
 31
0.0
  0
LINE
  5
1CB
330
1F
100
AcDbEntity
  8
VISIBLE
100
AcDbLine
 10
193.7255280817239
 20
137.9384533137942
 30
0.0
 11
193.7255280817239
 21
137.6259533137942
 31
0.0
  0
LINE
  5
1CC
330
1F
100
AcDbEntity
  8
VISIBLE
100
AcDbLine
 10
194.3630280817239
 20
137.6259533137942
 30
0.0
 11
193.7255280817239
 21
137.6259533137942
 31
0.0
  0
LINE
  5
1CD
330
1F
100
AcDbEntity
  8
VISIBLE
100
AcDbLine
 10
194.3630280817239
 20
137.9384533137942
 30
0.0
 11
194.3630280817239
 21
137.6259533137942
 31
0.0
  0
LINE
  5
1CE
330
1F
100
AcDbEntity
  8
VISIBLE
100
AcDbLine
 10
196.0286530817239
 20
137.9384533137942
 30
0.0
 11
194.3630280817239
 21
137.9384533137942
 31
0.0
  0
LINE
  5
1CF
330
1F
100
AcDbEntity
  8
VISIBLE
100
AcDbLine
 10
196.0286530817239
 20
137.9384533137942
 30
0.0
 11
196.0286530817239
 21
136.3322033137942
 31
0.0
  0
LINE
  5
1D0
330
1F
100
AcDbEntity
  8
VISIBLE
100
AcDbLine
 10
197.5286530817239
 20
136.3322033137942
 30
0.0
 11
196.0286530817239
 21
136.3322033137942
 31
0.0
  0
LINE
  5
1D1
330
1F
100
AcDbEntity
  8
VISIBLE
100
AcDbLine
 10
197.5286530817239
 20
132.3322033137942
 30
0.0
 11
196.0286530817239
 21
132.3322033137942
 31
0.0
  0
LINE
  5
1D2
330
1F
100
AcDbEntity
  8
VISIBLE
100
AcDbLine
 10
196.0286530817239
 20
132.3322033137942
 30
0.0
 11
196.0286530817239
 21
130.7259533137942
 31
0.0
  0
LINE
  5
1D3
330
1F
100
AcDbEntity
  8
VISIBLE
100
AcDbLine
 10
196.0286530817239
 20
130.7259533137942
 30
0.0
 11
194.3630280817239
 21
130.7259533137942
 31
0.0
  0
LINE
  5
1D4
330
1F
100
AcDbEntity
  8
VISIBLE
100
AcDbLine
 10
194.3630280817239
 20
131.0384533137942
 30
0.0
 11
193.7255280817239
 21
131.0384533137942
 31
0.0
  0
LINE
  5
1D5
330
1F
100
AcDbEntity
  8
VISIBLE
100
AcDbLine
 10
193.7255280817239
 20
131.0384533137942
 30
0.0
 11
193.7255280817239
 21
130.7259533137942
 31
0.0
  0
LINE
  5
1D6
330
1F
100
AcDbEntity
  8
VISIBLE
100
AcDbLine
 10
193.7255280817239
 20
130.7259533137942
 30
0.0
 11
193.4911530817239
 21
130.7259533137942
 31
0.0
  0
LINE
  5
1D7
330
1F
100
AcDbEntity
  8
VISIBLE
100
AcDbLine
 10
193.4911530817239
 20
130.7259533137942
 30
0.0
 11
193.4911530817239
 21
129.9384533137942
 31
0.0
  0
LINE
  5
1D8
330
1F
100
AcDbEntity
  8
VISIBLE
100
AcDbLine
 10
193.7255280817239
 20
129.9384533137942
 30
0.0
 11
193.4911530817239
 21
129.9384533137942
 31
0.0
  0
LINE
  5
1D9
330
1F
100
AcDbEntity
  8
VISIBLE
100
AcDbLine
 10
193.7255280817239
 20
129.9384533137942
 30
0.0
 11
193.7255280817239
 21
129.6259533137942
 31
0.0
  0
LINE
  5
1DA
330
1F
100
AcDbEntity
  8
VISIBLE
100
AcDbLine
 10
194.3630280817239
 20
129.6259533137942
 30
0.0
 11
193.7255280817239
 21
129.6259533137942
 31
0.0
  0
LINE
  5
1DB
330
1F
100
AcDbEntity
  8
VISIBLE
100
AcDbLine
 10
194.3630280817239
 20
129.9384533137942
 30
0.0
 11
194.3630280817239
 21
129.6259533137942
 31
0.0
  0
LINE
  5
1DC
330
1F
100
AcDbEntity
  8
VISIBLE
100
AcDbLine
 10
196.0286530817239
 20
129.9384533137942
 30
0.0
 11
194.3630280817239
 21
129.9384533137942
 31
0.0
  0
LINE
  5
1DD
330
1F
100
AcDbEntity
  8
VISIBLE
100
AcDbLine
 10
197.5286530817239
 20
128.3322033137942
 30
0.0
 11
196.0286530817239
 21
128.3322033137942
 31
0.0
  0
LINE
  5
1DE
330
1F
100
AcDbEntity
  8
VISIBLE
100
AcDbLine
 10
197.5286530817239
 20
125.8322033137942
 30
0.0
 11
197.5286530817239
 21
128.3322033137942
 31
0.0
  0
LINE
  5
1DF
330
1F
100
AcDbEntity
  8
VISIBLE
100
AcDbLine
 10
172.5286530817239
 20
128.3322033137942
 30
0.0
 11
174.0286530817239
 21
128.3322033137942
 31
0.0
  0
LINE
  5
1E0
330
1F
100
AcDbEntity
  8
VISIBLE
100
AcDbLine
 10
174.0286530817239
 20
128.3322033137942
 30
0.0
 11
174.0286530817239
 21
129.9384533137942
 31
0.0
  0
LINE
  5
1E1
330
1F
100
AcDbEntity
  8
VISIBLE
100
AcDbLine
 10
174.0286530817239
 20
129.9384533137942
 30
0.0
 11
175.6942780817239
 21
129.9384533137942
 31
0.0
  0
LINE
  5
1E2
330
1F
100
AcDbEntity
  8
VISIBLE
100
AcDbLine
 10
175.6942780817239
 20
129.6259533137942
 30
0.0
 11
175.6942780817239
 21
129.9384533137942
 31
0.0
  0
LINE
  5
1E3
330
1F
100
AcDbEntity
  8
VISIBLE
100
AcDbLine
 10
175.6942780817239
 20
129.6259533137942
 30
0.0
 11
176.3317780817239
 21
129.6259533137942
 31
0.0
  0
LINE
  5
1E4
330
1F
100
AcDbEntity
  8
VISIBLE
100
AcDbLine
 10
176.3317780817239
 20
129.6259533137942
 30
0.0
 11
176.3317780817239
 21
129.9384533137942
 31
0.0
  0
LINE
  5
1E5
330
1F
100
AcDbEntity
  8
VISIBLE
100
AcDbLine
 10
176.3317780817239
 20
129.9384533137942
 30
0.0
 11
176.5661530817239
 21
129.9384533137942
 31
0.0
  0
LINE
  5
1E6
330
1F
100
AcDbEntity
  8
VISIBLE
100
AcDbLine
 10
176.5661530817239
 20
129.9384533137942
 30
0.0
 11
176.5661530817239
 21
130.7259533137942
 31
0.0
  0
LINE
  5
1E7
330
1F
100
AcDbEntity
  8
VISIBLE
100
AcDbLine
 10
176.3317780817239
 20
130.7259533137942
 30
0.0
 11
176.5661530817239
 21
130.7259533137942
 31
0.0
  0
LINE
  5
1E8
330
1F
100
AcDbEntity
  8
VISIBLE
100
AcDbLine
 10
176.3317780817239
 20
130.7259533137942
 30
0.0
 11
176.3317780817239
 21
131.0384533137942
 31
0.0
  0
LINE
  5
1E9
330
1F
100
AcDbEntity
  8
VISIBLE
100
AcDbLine
 10
175.6942780817239
 20
131.0384533137942
 30
0.0
 11
176.3317780817239
 21
131.0384533137942
 31
0.0
  0
LINE
  5
1EA
330
1F
100
AcDbEntity
  8
VISIBLE
100
AcDbLine
 10
175.6942780817239
 20
130.7259533137942
 30
0.0
 11
175.6942780817239
 21
131.0384533137942
 31
0.0
  0
LINE
  5
1EB
330
1F
100
AcDbEntity
  8
VISIBLE
100
AcDbLine
 10
174.0286530817239
 20
130.7259533137942
 30
0.0
 11
175.6942780817239
 21
130.7259533137942
 31
0.0
  0
LINE
  5
1EC
330
1F
100
AcDbEntity
  8
VISIBLE
100
AcDbLine
 10
174.0286530817239
 20
130.7259533137942
 30
0.0
 11
174.0286530817239
 21
132.3322033137942
 31
0.0
  0
LINE
  5
1ED
330
1F
100
AcDbEntity
  8
VISIBLE
100
AcDbLine
 10
172.5286530817239
 20
132.3322033137942
 30
0.0
 11
174.0286530817239
 21
132.3322033137942
 31
0.0
  0
LINE
  5
1EE
330
1F
100
AcDbEntity
  8
VISIBLE
100
AcDbLine
 10
172.5286530817239
 20
136.3322033137942
 30
0.0
 11
174.0286530817239
 21
136.3322033137942
 31
0.0
  0
LINE
  5
1EF
330
1F
100
AcDbEntity
  8
VISIBLE
100
AcDbLine
 10
174.0286530817239
 20
136.3322033137942
 30
0.0
 11
174.0286530817239
 21
137.9384533137942
 31
0.0
  0
LINE
  5
1F0
330
1F
100
AcDbEntity
  8
VISIBLE
100
AcDbLine
 10
174.0286530817239
 20
137.9384533137942
 30
0.0
 11
175.6942780817239
 21
137.9384533137942
 31
0.0
  0
LINE
  5
1F1
330
1F
100
AcDbEntity
  8
VISIBLE
100
AcDbLine
 10
175.6942780817239
 20
137.6259533137942
 30
0.0
 11
175.6942780817239
 21
137.9384533137942
 31
0.0
  0
LINE
  5
1F2
330
1F
100
AcDbEntity
  8
VISIBLE
100
AcDbLine
 10
175.6942780817239
 20
137.6259533137942
 30
0.0
 11
176.3317780817239
 21
137.6259533137942
 31
0.0
  0
LINE
  5
1F3
330
1F
100
AcDbEntity
  8
VISIBLE
100
AcDbLine
 10
176.3317780817239
 20
137.6259533137942
 30
0.0
 11
176.3317780817239
 21
137.9384533137942
 31
0.0
  0
LINE
  5
1F4
330
1F
100
AcDbEntity
  8
VISIBLE
100
AcDbLine
 10
176.3317780817239
 20
137.9384533137942
 30
0.0
 11
176.5661530817239
 21
137.9384533137942
 31
0.0
  0
LINE
  5
1F5
330
1F
100
AcDbEntity
  8
VISIBLE
100
AcDbLine
 10
176.5661530817239
 20
137.9384533137942
 30
0.0
 11
176.5661530817239
 21
138.7259533137942
 31
0.0
  0
LINE
  5
1F6
330
1F
100
AcDbEntity
  8
VISIBLE
100
AcDbLine
 10
176.3317780817239
 20
138.7259533137942
 30
0.0
 11
176.5661530817239
 21
138.7259533137942
 31
0.0
  0
LINE
  5
1F7
330
1F
100
AcDbEntity
  8
VISIBLE
100
AcDbLine
 10
176.3317780817239
 20
138.7259533137942
 30
0.0
 11
176.3317780817239
 21
139.0384533137942
 31
0.0
  0
LINE
  5
1F8
330
1F
100
AcDbEntity
  8
VISIBLE
100
AcDbLine
 10
175.6942780817239
 20
139.0384533137942
 30
0.0
 11
176.3317780817239
 21
139.0384533137942
 31
0.0
  0
LINE
  5
1F9
330
1F
100
AcDbEntity
  8
VISIBLE
100
AcDbLine
 10
175.6942780817239
 20
138.7259533137942
 30
0.0
 11
175.6942780817239
 21
139.0384533137942
 31
0.0
  0
LINE
  5
1FA
330
1F
100
AcDbEntity
  8
VISIBLE
100
AcDbLine
 10
174.0286530817239
 20
138.7259533137942
 30
0.0
 11
175.6942780817239
 21
138.7259533137942
 31
0.0
  0
LINE
  5
1FB
330
1F
100
AcDbEntity
  8
VISIBLE
100
AcDbLine
 10
174.0286530817239
 20
138.7259533137942
 30
0.0
 11
174.0286530817239
 21
140.3322033137942
 31
0.0
  0
LINE
  5
1FC
330
1F
100
AcDbEntity
  8
VISIBLE
100
AcDbLine
 10
172.5286530817239
 20
140.3322033137942
 30
0.0
 11
174.0286530817239
 21
140.3322033137942
 31
0.0
  0
LINE
  5
1FD
330
1F
100
AcDbEntity
  8
VISIBLE
100
AcDbLine
 10
172.5286530817239
 20
140.3322033137942
 30
0.0
 11
172.5286530817239
 21
144.3322033137942
 31
0.0
  0
LINE
  5
1FE
330
1F
100
AcDbEntity
  8
VISIBLE
100
AcDbLine
 10
172.5286530817239
 20
144.3322033137942
 30
0.0
 11
177.5286530817239
 21
144.3322033137942
 31
0.0
  0
LINE
  5
1FF
330
1F
100
AcDbEntity
  8
VISIBLE
100
AcDbLine
 10
177.5286530817239
 20
142.8322033137942
 30
0.0
 11
179.6349030817239
 21
142.8322033137942
 31
0.0
  0
LINE
  5
200
330
1F
100
AcDbEntity
  8
VISIBLE
100
AcDbLine
 10
179.3224030817239
 20
141.1665783137942
 30
0.0
 11
179.6349030817239
 21
141.1665783137942
 31
0.0
  0
LINE
  5
201
330
1F
100
AcDbEntity
  8
VISIBLE
100
AcDbLine
 10
179.3224030817239
 20
141.1665783137942
 30
0.0
 11
179.3224030817239
 21
140.5290783137942
 31
0.0
  0
LINE
  5
202
330
1F
100
AcDbEntity
  8
VISIBLE
100
AcDbLine
 10
179.3224030817239
 20
140.5290783137942
 30
0.0
 11
179.6349030817239
 21
140.5290783137942
 31
0.0
  0
LINE
  5
203
330
1F
100
AcDbEntity
  8
VISIBLE
100
AcDbLine
 10
179.6349030817239
 20
140.5290783137942
 30
0.0
 11
179.6349030817239
 21
140.2947033137942
 31
0.0
  0
LINE
  5
204
330
1F
100
AcDbEntity
  8
VISIBLE
100
AcDbLine
 10
179.6349030817239
 20
140.2947033137942
 30
0.0
 11
180.4224030817239
 21
140.2947033137942
 31
0.0
  0
LINE
  5
205
330
1F
100
AcDbEntity
  8
VISIBLE
100
AcDbLine
 10
180.4224030817239
 20
140.5290783137942
 30
0.0
 11
180.4224030817239
 21
140.2947033137942
 31
0.0
  0
LINE
  5
206
330
1F
100
AcDbEntity
  8
VISIBLE
100
AcDbLine
 10
180.4224030817239
 20
140.5290783137942
 30
0.0
 11
180.7349030817239
 21
140.5290783137942
 31
0.0
  0
LINE
  5
207
330
1F
100
AcDbEntity
  8
VISIBLE
100
AcDbLine
 10
180.7349030817239
 20
141.1665783137942
 30
0.0
 11
180.7349030817239
 21
140.5290783137942
 31
0.0
  0
LINE
  5
208
330
1F
100
AcDbEntity
  8
VISIBLE
100
AcDbLine
 10
180.4224030817239
 20
141.1665783137942
 30
0.0
 11
180.7349030817239
 21
141.1665783137942
 31
0.0
  0
LINE
  5
209
330
1F
100
AcDbEntity
  8
VISIBLE
100
AcDbLine
 10
180.4224030817239
 20
142.8322033137942
 30
0.0
 11
180.4224030817239
 21
141.1665783137942
 31
0.0
  0
LINE
  5
20A
330
1F
100
AcDbEntity
  8
VISIBLE
100
AcDbLine
 10
187.5286530817239
 20
142.8322033137942
 30
0.0
 11
189.6349030817239
 21
142.8322033137942
 31
0.0
  0
LINE
  5
20B
330
1F
100
AcDbEntity
  8
VISIBLE
100
AcDbLine
 10
189.6349030817239
 20
142.8322033137942
 30
0.0
 11
189.6349030817239
 21
141.1665783137942
 31
0.0
  0
CIRCLE
  5
20C
330
1F
100
AcDbEntity
  8
VISIBLE
100
AcDbCircle
 10
173.2786530817239
 20
134.3322033137942
 30
0.0
 40
0.39375
  0
CIRCLE
  5
20D
330
1F
100
AcDbEntity
  8
VISIBLE
100
AcDbCircle
 10
185.0286530817239
 20
143.5822033137942
 30
0.0
 40
0.39375
  0
LINE
  5
20E
330
1F
100
AcDbEntity
  8
VISIBLE
100
AcDbLine
 10
172.5286530817239
 20
125.8322033137942
 30
0.0
 11
197.5286530817239
 21
125.8322033137942
 31
0.0
  0
LINE
  5
20F
330
1F
100
AcDbEntity
  8
VISIBLE
100
AcDbLine
 10
190.4224030817239
 20
142.8322033137942
 30
0.0
 11
192.5286530817239
 21
142.8322033137942
 31
0.0
  0
LINE
  5
210
330
1F
100
AcDbEntity
  8
VISIBLE
100
AcDbLine
 10
187.5286530817239
 20
144.3322033137942
 30
0.0
 11
187.5286530817239
 21
142.8322033137942
 31
0.0
  0
LINE
  5
211
330
1F
100
AcDbEntity
  8
VISIBLE
100
AcDbLine
 10
180.4224030817239
 20
142.8322033137942
 30
0.0
 11
182.5286530817239
 21
142.8322033137942
 31
0.0
  0
LINE
  5
212
330
1F
100
AcDbEntity
  8
VISIBLE
100
AcDbLine
 10
182.5286530817239
 20
144.3322033137942
 30
0.0
 11
182.5286530817239
 21
142.8322033137942
 31
0.0
  0
LINE
  5
213
330
1F
100
AcDbEntity
  8
VISIBLE
100
AcDbLine
 10
177.5286530817239
 20
144.3322033137942
 30
0.0
 11
177.5286530817239
 21
142.8322033137942
 31
0.0
  0
LINE
  5
214
330
1F
100
AcDbEntity
  8
VISIBLE
100
AcDbLine
 10
196.0286530817239
 20
129.9384533137942
 30
0.0
 11
196.0286530817239
 21
128.3322033137942
 31
0.0
  0
LINE
  5
215
330
1F
100
AcDbEntity
  8
VISIBLE
100
AcDbLine
 10
194.3630280817239
 20
131.0384533137942
 30
0.0
 11
194.3630280817239
 21
130.7259533137942
 31
0.0
  0
LINE
  5
216
330
1F
100
AcDbEntity
  8
VISIBLE
100
AcDbLine
 10
172.5286530817239
 20
125.8322033137942
 30
0.0
 11
172.5286530817239
 21
128.3322033137942
 31
0.0
  0
CIRCLE
  5
217
330
1F
100
AcDbEntity
  8
VISIBLE
100
AcDbCircle
 10
196.7786530817239
 20
134.3322033137942
 30
0.0
 40
0.39375
  0
LINE
  5
218
330
1F
100
AcDbEntity
  8
VISIBLE
100
AcDbLine
 10
179.6349030817239
 20
142.8322033137942
 30
0.0
 11
179.6349030817239
 21
141.1665783137942
 31
0.0
  0
LINE
  5
219
330
1F
100
AcDbEntity
  8
VISIBLE
100
AcDbLine
 10
197.5286530817239
 20
132.3322033137942
 30
0.0
 11
197.5286530817239
 21
136.3322033137942
 31
0.0
  0
LINE
  5
21A
330
1F
100
AcDbEntity
  8
VISIBLE
100
AcDbLine
 10
192.5286530817239
 20
144.3322033137942
 30
0.0
 11
197.5286530817239
 21
144.3322033137942
 31
0.0
  0
LINE
  5
21B
330
1F
100
AcDbEntity
  8
VISIBLE
100
AcDbLine
 10
172.5286530817239
 20
132.3322033137942
 30
0.0
 11
172.5286530817239
 21
136.3322033137942
 31
0.0
  0
LINE
  5
21C
330
1F
100
AcDbEntity
  8
VISIBLE
100
AcDbLine
 10
182.5286530817239
 20
144.3322033137942
 30
0.0
 11
187.5286530817239
 21
144.3322033137942
 31
0.0
  0
LINE
  5
21D
330
1F
100
AcDbEntity
  8
VISIBLE
100
AcDbLine
 10
244.2786530817239
 20
91.23206960056751
 30
0.0
 11
244.2786530817239
 21
94.88193588734079
 31
0.0
  0
LINE
  5
21E
330
1F
100
AcDbEntity
  8
VISIBLE
100
AcDbLine
 10
245.7786530817239
 20
94.88193588734079
 30
0.0
 11
244.2786530817239
 21
94.88193588734079
 31
0.0
  0
LINE
  5
21F
330
1F
100
AcDbEntity
  8
VISIBLE
100
AcDbLine
 10
245.7786530817239
 20
98.53180217411408
 30
0.0
 11
245.7786530817239
 21
94.88193588734079
 31
0.0
  0
LINE
  5
220
330
1F
100
AcDbEntity
  8
VISIBLE
100
AcDbLine
 10
245.7786530817239
 20
98.53180217411408
 30
0.0
 11
244.2786530817239
 21
98.53180217411408
 31
0.0
  0
LINE
  5
221
330
1F
100
AcDbEntity
  8
VISIBLE
100
AcDbLine
 10
244.2786530817239
 20
98.53180217411408
 30
0.0
 11
244.2786530817239
 21
102.1816684608874
 31
0.0
  0
LINE
  5
222
330
1F
100
AcDbEntity
  8
VISIBLE
100
AcDbLine
 10
245.7786530817239
 20
102.1816684608874
 30
0.0
 11
244.2786530817239
 21
102.1816684608874
 31
0.0
  0
LINE
  5
223
330
1F
100
AcDbEntity
  8
VISIBLE
100
AcDbLine
 10
245.7786530817239
 20
105.8315347476606
 30
0.0
 11
245.7786530817239
 21
102.1816684608874
 31
0.0
  0
LINE
  5
224
330
1F
100
AcDbEntity
  8
VISIBLE
100
AcDbLine
 10
259.2786530817239
 20
105.8315347476606
 30
0.0
 11
245.7786530817239
 21
105.8315347476606
 31
0.0
  0
LINE
  5
225
330
1F
100
AcDbEntity
  8
VISIBLE
100
AcDbLine
 10
259.2786530817239
 20
87.58220331379422
 30
0.0
 11
259.2786530817239
 21
105.8315347476606
 31
0.0
  0
LINE
  5
226
330
1F
100
AcDbEntity
  8
VISIBLE
100
AcDbLine
 10
259.2786530817239
 20
87.58220331379422
 30
0.0
 11
245.7786530817239
 21
87.58220331379422
 31
0.0
  0
LINE
  5
227
330
1F
100
AcDbEntity
  8
VISIBLE
100
AcDbLine
 10
245.7786530817239
 20
91.23206960056751
 30
0.0
 11
245.7786530817239
 21
87.58220331379422
 31
0.0
  0
LINE
  5
228
330
1F
100
AcDbEntity
  8
VISIBLE
100
AcDbLine
 10
245.7786530817239
 20
91.23206960056751
 30
0.0
 11
244.2786530817239
 21
91.23206960056751
 31
0.0
  0
CIRCLE
  5
229
330
1F
100
AcDbEntity
  8
VISIBLE
100
AcDbCircle
 10
166.0286530817239
 20
88.33220331379422
 30
0.0
 40
0.39375
  0
CIRCLE
  5
22A
330
1F
100
AcDbEntity
  8
VISIBLE
100
AcDbCircle
 10
174.0286530817239
 20
88.33220331379422
 30
0.0
 40
0.39375
  0
CIRCLE
  5
22B
330
1F
100
AcDbEntity
  8
VISIBLE
100
AcDbCircle
 10
160.7786530817239
 20
106.3322033137942
 30
0.0
 40
0.39375
  0
CIRCLE
  5
22C
330
1F
100
AcDbEntity
  8
VISIBLE
100
AcDbCircle
 10
166.0286530817239
 20
124.3322033137942
 30
0.0
 40
0.39375
  0
CIRCLE
  5
22D
330
1F
100
AcDbEntity
  8
VISIBLE
100
AcDbCircle
 10
174.0286530817239
 20
124.3322033137942
 30
0.0
 40
0.39375
  0
LINE
  5
22E
330
1F
100
AcDbEntity
  8
VISIBLE
100
AcDbLine
 10
163.8317780817239
 20
98.72595331379422
 30
0.0
 11
163.1942780817239
 21
98.72595331379422
 31
0.0
  0
LINE
  5
22F
330
1F
100
AcDbEntity
  8
VISIBLE
100
AcDbLine
 10
163.8317780817239
 20
99.03845331379422
 30
0.0
 11
163.8317780817239
 21
98.72595331379422
 31
0.0
  0
LINE
  5
230
330
1F
100
AcDbEntity
  8
VISIBLE
100
AcDbLine
 10
164.0661530817239
 20
99.03845331379422
 30
0.0
 11
163.8317780817239
 21
99.03845331379422
 31
0.0
  0
LINE
  5
231
330
1F
100
AcDbEntity
  8
VISIBLE
100
AcDbLine
 10
164.0661530817239
 20
99.82595331379423
 30
0.0
 11
164.0661530817239
 21
99.03845331379422
 31
0.0
  0
LINE
  5
232
330
1F
100
AcDbEntity
  8
VISIBLE
100
AcDbLine
 10
164.0661530817239
 20
99.82595331379423
 30
0.0
 11
163.8317780817239
 21
99.82595331379423
 31
0.0
  0
LINE
  5
233
330
1F
100
AcDbEntity
  8
VISIBLE
100
AcDbLine
 10
163.8317780817239
 20
100.1384533137942
 30
0.0
 11
163.8317780817239
 21
99.82595331379423
 31
0.0
  0
LINE
  5
234
330
1F
100
AcDbEntity
  8
VISIBLE
100
AcDbLine
 10
163.8317780817239
 20
100.1384533137942
 30
0.0
 11
163.1942780817239
 21
100.1384533137942
 31
0.0
  0
LINE
  5
235
330
1F
100
AcDbEntity
  8
VISIBLE
100
AcDbLine
 10
163.1942780817239
 20
100.1384533137942
 30
0.0
 11
163.1942780817239
 21
99.82595331379423
 31
0.0
  0
LINE
  5
236
330
1F
100
AcDbEntity
  8
VISIBLE
100
AcDbLine
 10
163.1942780817239
 20
99.82595331379423
 30
0.0
 11
161.5286530817239
 21
99.82595331379423
 31
0.0
  0
LINE
  5
237
330
1F
100
AcDbEntity
  8
VISIBLE
100
AcDbLine
 10
161.5286530817239
 20
99.82595331379423
 30
0.0
 11
161.5286530817239
 21
102.8822033137942
 31
0.0
  0
LINE
  5
238
330
1F
100
AcDbEntity
  8
VISIBLE
100
AcDbLine
 10
160.0286530817239
 20
102.8822033137942
 30
0.0
 11
161.5286530817239
 21
102.8822033137942
 31
0.0
  0
LINE
  5
239
330
1F
100
AcDbEntity
  8
VISIBLE
100
AcDbLine
 10
160.0286530817239
 20
109.7822033137942
 30
0.0
 11
160.0286530817239
 21
102.8822033137942
 31
0.0
  0
LINE
  5
23A
330
1F
100
AcDbEntity
  8
VISIBLE
100
AcDbLine
 10
160.0286530817239
 20
109.7822033137942
 30
0.0
 11
161.5286530817239
 21
109.7822033137942
 31
0.0
  0
LINE
  5
23B
330
1F
100
AcDbEntity
  8
VISIBLE
100
AcDbLine
 10
161.5286530817239
 20
109.7822033137942
 30
0.0
 11
161.5286530817239
 21
112.8384533137942
 31
0.0
  0
LINE
  5
23C
330
1F
100
AcDbEntity
  8
VISIBLE
100
AcDbLine
 10
163.1942780817239
 20
112.8384533137943
 30
0.0
 11
161.5286530817239
 21
112.8384533137942
 31
0.0
  0
LINE
  5
23D
330
1F
100
AcDbEntity
  8
VISIBLE
100
AcDbLine
 10
163.1942780817239
 20
112.8384533137943
 30
0.0
 11
163.1942780817239
 21
112.5259533137942
 31
0.0
  0
LINE
  5
23E
330
1F
100
AcDbEntity
  8
VISIBLE
100
AcDbLine
 10
163.8317780817239
 20
112.5259533137942
 30
0.0
 11
163.1942780817239
 21
112.5259533137942
 31
0.0
  0
LINE
  5
23F
330
1F
100
AcDbEntity
  8
VISIBLE
100
AcDbLine
 10
163.8317780817239
 20
112.8384533137942
 30
0.0
 11
163.8317780817239
 21
112.5259533137942
 31
0.0
  0
LINE
  5
240
330
1F
100
AcDbEntity
  8
VISIBLE
100
AcDbLine
 10
164.0661530817239
 20
112.8384533137942
 30
0.0
 11
163.8317780817239
 21
112.8384533137942
 31
0.0
  0
LINE
  5
241
330
1F
100
AcDbEntity
  8
VISIBLE
100
AcDbLine
 10
164.0661530817239
 20
113.6259533137942
 30
0.0
 11
164.0661530817239
 21
112.8384533137942
 31
0.0
  0
LINE
  5
242
330
1F
100
AcDbEntity
  8
VISIBLE
100
AcDbLine
 10
164.0661530817239
 20
113.6259533137942
 30
0.0
 11
163.8317780817239
 21
113.6259533137942
 31
0.0
  0
LINE
  5
243
330
1F
100
AcDbEntity
  8
VISIBLE
100
AcDbLine
 10
163.8317780817239
 20
113.9384533137942
 30
0.0
 11
163.8317780817239
 21
113.6259533137942
 31
0.0
  0
LINE
  5
244
330
1F
100
AcDbEntity
  8
VISIBLE
100
AcDbLine
 10
163.8317780817239
 20
113.9384533137942
 30
0.0
 11
163.1942780817239
 21
113.9384533137942
 31
0.0
  0
LINE
  5
245
330
1F
100
AcDbEntity
  8
VISIBLE
100
AcDbLine
 10
163.1942780817239
 20
113.9384533137942
 30
0.0
 11
163.1942780817239
 21
113.6259533137942
 31
0.0
  0
LINE
  5
246
330
1F
100
AcDbEntity
  8
VISIBLE
100
AcDbLine
 10
163.1942780817239
 20
113.6259533137942
 30
0.0
 11
161.5286530817239
 21
113.6259533137942
 31
0.0
  0
LINE
  5
247
330
1F
100
AcDbEntity
  8
VISIBLE
100
AcDbLine
 10
161.5286530817239
 20
113.6259533137942
 30
0.0
 11
161.5286530817239
 21
116.6822033137942
 31
0.0
  0
LINE
  5
248
330
1F
100
AcDbEntity
  8
VISIBLE
100
AcDbLine
 10
160.0286530817239
 20
116.6822033137942
 30
0.0
 11
161.5286530817239
 21
116.6822033137942
 31
0.0
  0
LINE
  5
249
330
1F
100
AcDbEntity
  8
VISIBLE
100
AcDbLine
 10
160.0286530817239
 20
123.5822033137942
 30
0.0
 11
160.0286530817239
 21
116.6822033137942
 31
0.0
  0
LINE
  5
24A
330
1F
100
AcDbEntity
  8
VISIBLE
100
AcDbLine
 10
160.0286530817239
 20
123.5822033137942
 30
0.0
 11
164.0286530817239
 21
123.5822033137942
 31
0.0
  0
LINE
  5
24B
330
1F
100
AcDbEntity
  8
VISIBLE
100
AcDbLine
 10
164.0286530817239
 20
125.0822033137942
 30
0.0
 11
164.0286530817239
 21
123.5822033137942
 31
0.0
  0
LINE
  5
24C
330
1F
100
AcDbEntity
  8
VISIBLE
100
AcDbLine
 10
168.0286530817239
 20
125.0822033137942
 30
0.0
 11
164.0286530817239
 21
125.0822033137942
 31
0.0
  0
LINE
  5
24D
330
1F
100
AcDbEntity
  8
VISIBLE
100
AcDbLine
 10
168.0286530817239
 20
125.0822033137942
 30
0.0
 11
168.0286530817239
 21
123.5822033137942
 31
0.0
  0
LINE
  5
24E
330
1F
100
AcDbEntity
  8
VISIBLE
100
AcDbLine
 10
168.0286530817239
 20
123.5822033137942
 30
0.0
 11
169.6349030817239
 21
123.5822033137942
 31
0.0
  0
LINE
  5
24F
330
1F
100
AcDbEntity
  8
VISIBLE
100
AcDbLine
 10
169.6349030817239
 20
121.9165783137942
 30
0.0
 11
169.6349030817239
 21
123.5822033137942
 31
0.0
  0
LINE
  5
250
330
1F
100
AcDbEntity
  8
VISIBLE
100
AcDbLine
 10
169.6349030817239
 20
121.9165783137942
 30
0.0
 11
169.3224030817239
 21
121.9165783137942
 31
0.0
  0
LINE
  5
251
330
1F
100
AcDbEntity
  8
VISIBLE
100
AcDbLine
 10
169.3224030817239
 20
121.2790783137942
 30
0.0
 11
169.3224030817239
 21
121.9165783137942
 31
0.0
  0
LINE
  5
252
330
1F
100
AcDbEntity
  8
VISIBLE
100
AcDbLine
 10
169.6349030817239
 20
121.2790783137942
 30
0.0
 11
169.3224030817239
 21
121.2790783137942
 31
0.0
  0
LINE
  5
253
330
1F
100
AcDbEntity
  8
VISIBLE
100
AcDbLine
 10
169.6349030817239
 20
121.0447033137942
 30
0.0
 11
169.6349030817239
 21
121.2790783137942
 31
0.0
  0
LINE
  5
254
330
1F
100
AcDbEntity
  8
VISIBLE
100
AcDbLine
 10
170.4224030817239
 20
121.0447033137942
 30
0.0
 11
169.6349030817239
 21
121.0447033137942
 31
0.0
  0
LINE
  5
255
330
1F
100
AcDbEntity
  8
VISIBLE
100
AcDbLine
 10
170.4224030817239
 20
121.0447033137942
 30
0.0
 11
170.4224030817239
 21
121.2790783137942
 31
0.0
  0
LINE
  5
256
330
1F
100
AcDbEntity
  8
VISIBLE
100
AcDbLine
 10
170.7349030817239
 20
121.2790783137942
 30
0.0
 11
170.4224030817239
 21
121.2790783137942
 31
0.0
  0
LINE
  5
257
330
1F
100
AcDbEntity
  8
VISIBLE
100
AcDbLine
 10
170.7349030817239
 20
121.2790783137942
 30
0.0
 11
170.7349030817239
 21
121.9165783137942
 31
0.0
  0
LINE
  5
258
330
1F
100
AcDbEntity
  8
VISIBLE
100
AcDbLine
 10
170.7349030817239
 20
121.9165783137942
 30
0.0
 11
170.4224030817239
 21
121.9165783137942
 31
0.0
  0
LINE
  5
259
330
1F
100
AcDbEntity
  8
VISIBLE
100
AcDbLine
 10
170.4224030817239
 20
121.9165783137942
 30
0.0
 11
170.4224030817239
 21
123.5822033137942
 31
0.0
  0
LINE
  5
25A
330
1F
100
AcDbEntity
  8
VISIBLE
100
AcDbLine
 10
170.4224030817239
 20
123.5822033137942
 30
0.0
 11
172.0286530817239
 21
123.5822033137942
 31
0.0
  0
LINE
  5
25B
330
1F
100
AcDbEntity
  8
VISIBLE
100
AcDbLine
 10
172.0286530817239
 20
125.0822033137942
 30
0.0
 11
172.0286530817239
 21
123.5822033137942
 31
0.0
  0
LINE
  5
25C
330
1F
100
AcDbEntity
  8
VISIBLE
100
AcDbLine
 10
176.0286530817239
 20
125.0822033137942
 30
0.0
 11
172.0286530817239
 21
125.0822033137942
 31
0.0
  0
LINE
  5
25D
330
1F
100
AcDbEntity
  8
VISIBLE
100
AcDbLine
 10
176.0286530817239
 20
125.0822033137942
 30
0.0
 11
176.0286530817239
 21
123.5822033137942
 31
0.0
  0
LINE
  5
25E
330
1F
100
AcDbEntity
  8
VISIBLE
100
AcDbLine
 10
176.0286530817239
 20
123.5822033137942
 30
0.0
 11
178.5286530817239
 21
123.5822033137942
 31
0.0
  0
LINE
  5
25F
330
1F
100
AcDbEntity
  8
VISIBLE
100
AcDbLine
 10
178.5286530817239
 20
123.5822033137942
 30
0.0
 11
178.5286530817239
 21
89.08220331379422
 31
0.0
  0
LINE
  5
260
330
1F
100
AcDbEntity
  8
VISIBLE
100
AcDbLine
 10
178.5286530817239
 20
89.08220331379422
 30
0.0
 11
176.0286530817239
 21
89.08220331379422
 31
0.0
  0
LINE
  5
261
330
1F
100
AcDbEntity
  8
VISIBLE
100
AcDbLine
 10
176.0286530817239
 20
87.58220331379422
 30
0.0
 11
176.0286530817239
 21
89.08220331379422
 31
0.0
  0
LINE
  5
262
330
1F
100
AcDbEntity
  8
VISIBLE
100
AcDbLine
 10
172.0286530817239
 20
87.58220331379422
 30
0.0
 11
172.0286530817239
 21
89.08220331379422
 31
0.0
  0
LINE
  5
263
330
1F
100
AcDbEntity
  8
VISIBLE
100
AcDbLine
 10
172.0286530817239
 20
89.08220331379422
 30
0.0
 11
170.4224030817239
 21
89.08220331379422
 31
0.0
  0
LINE
  5
264
330
1F
100
AcDbEntity
  8
VISIBLE
100
AcDbLine
 10
170.4224030817239
 20
90.74782831379423
 30
0.0
 11
170.4224030817239
 21
89.08220331379422
 31
0.0
  0
LINE
  5
265
330
1F
100
AcDbEntity
  8
VISIBLE
100
AcDbLine
 10
170.4224030817239
 20
90.74782831379423
 30
0.0
 11
170.7349030817239
 21
90.74782831379423
 31
0.0
  0
LINE
  5
266
330
1F
100
AcDbEntity
  8
VISIBLE
100
AcDbLine
 10
170.7349030817239
 20
91.38532831379422
 30
0.0
 11
170.7349030817239
 21
90.74782831379423
 31
0.0
  0
LINE
  5
267
330
1F
100
AcDbEntity
  8
VISIBLE
100
AcDbLine
 10
170.4224030817239
 20
91.38532831379422
 30
0.0
 11
170.7349030817239
 21
91.38532831379422
 31
0.0
  0
LINE
  5
268
330
1F
100
AcDbEntity
  8
VISIBLE
100
AcDbLine
 10
170.4224030817239
 20
91.61970331379422
 30
0.0
 11
170.4224030817239
 21
91.38532831379422
 31
0.0
  0
LINE
  5
269
330
1F
100
AcDbEntity
  8
VISIBLE
100
AcDbLine
 10
169.6349030817239
 20
91.61970331379422
 30
0.0
 11
170.4224030817239
 21
91.61970331379422
 31
0.0
  0
LINE
  5
26A
330
1F
100
AcDbEntity
  8
VISIBLE
100
AcDbLine
 10
169.6349030817239
 20
91.61970331379422
 30
0.0
 11
169.6349030817239
 21
91.38532831379422
 31
0.0
  0
LINE
  5
26B
330
1F
100
AcDbEntity
  8
VISIBLE
100
AcDbLine
 10
169.3224030817239
 20
91.38532831379422
 30
0.0
 11
169.6349030817239
 21
91.38532831379422
 31
0.0
  0
LINE
  5
26C
330
1F
100
AcDbEntity
  8
VISIBLE
100
AcDbLine
 10
169.3224030817239
 20
91.38532831379422
 30
0.0
 11
169.3224030817239
 21
90.74782831379423
 31
0.0
  0
LINE
  5
26D
330
1F
100
AcDbEntity
  8
VISIBLE
100
AcDbLine
 10
169.3224030817239
 20
90.74782831379423
 30
0.0
 11
169.6349030817239
 21
90.74782831379423
 31
0.0
  0
LINE
  5
26E
330
1F
100
AcDbEntity
  8
VISIBLE
100
AcDbLine
 10
169.6349030817239
 20
90.74782831379423
 30
0.0
 11
169.6349030817239
 21
89.08220331379422
 31
0.0
  0
LINE
  5
26F
330
1F
100
AcDbEntity
  8
VISIBLE
100
AcDbLine
 10
169.6349030817239
 20
89.08220331379422
 30
0.0
 11
168.0286530817239
 21
89.08220331379422
 31
0.0
  0
LINE
  5
270
330
1F
100
AcDbEntity
  8
VISIBLE
100
AcDbLine
 10
164.0286530817239
 20
87.58220331379422
 30
0.0
 11
164.0286530817239
 21
89.08220331379422
 31
0.0
  0
LINE
  5
271
330
1F
100
AcDbEntity
  8
VISIBLE
100
AcDbLine
 10
164.0286530817239
 20
89.08220331379422
 30
0.0
 11
160.0286530817239
 21
89.08220331379422
 31
0.0
  0
LINE
  5
272
330
1F
100
AcDbEntity
  8
VISIBLE
100
AcDbLine
 10
160.0286530817239
 20
95.98220331379423
 30
0.0
 11
160.0286530817239
 21
89.08220331379422
 31
0.0
  0
LINE
  5
273
330
1F
100
AcDbEntity
  8
VISIBLE
100
AcDbLine
 10
160.0286530817239
 20
95.98220331379423
 30
0.0
 11
161.5286530817239
 21
95.98220331379423
 31
0.0
  0
LINE
  5
274
330
1F
100
AcDbEntity
  8
VISIBLE
100
AcDbLine
 10
161.5286530817239
 20
95.98220331379423
 30
0.0
 11
161.5286530817239
 21
99.03845331379422
 31
0.0
  0
LINE
  5
275
330
1F
100
AcDbEntity
  8
VISIBLE
100
AcDbLine
 10
163.1942780817239
 20
99.03845331379426
 30
0.0
 11
161.5286530817239
 21
99.03845331379422
 31
0.0
  0
LINE
  5
276
330
1F
100
AcDbEntity
  8
VISIBLE
100
AcDbLine
 10
163.1942780817239
 20
99.03845331379426
 30
0.0
 11
163.1942780817239
 21
98.72595331379422
 31
0.0
  0
LINE
  5
277
330
1F
100
AcDbEntity
  8
VISIBLE
100
AcDbLine
 10
168.0286530817239
 20
87.58220331379422
 30
0.0
 11
168.0286530817239
 21
89.08220331379422
 31
0.0
  0
LINE
  5
278
330
1F
100
AcDbEntity
  8
VISIBLE
100
AcDbLine
 10
168.0286530817239
 20
87.58220331379422
 30
0.0
 11
164.0286530817239
 21
87.58220331379422
 31
0.0
  0
LINE
  5
279
330
1F
100
AcDbEntity
  8
VISIBLE
100
AcDbLine
 10
176.0286530817239
 20
87.58220331379422
 30
0.0
 11
172.0286530817239
 21
87.58220331379422
 31
0.0
  0
LINE
  5
27A
330
1F
100
AcDbEntity
  8
VISIBLE
100
AcDbLine
 10
179.2786530817239
 20
112.5822033137942
 30
0.0
 11
198.0286530817239
 21
112.5822033137942
 31
0.0
  0
LINE
  5
27B
330
1F
100
AcDbEntity
  8
VISIBLE
100
AcDbLine
 10
198.0286530817239
 20
87.58220331379422
 30
0.0
 11
198.0286530817239
 21
112.5822033137942
 31
0.0
  0
LINE
  5
27C
330
1F
100
AcDbEntity
  8
VISIBLE
100
AcDbLine
 10
179.2786530817239
 20
87.58220331379422
 30
0.0
 11
198.0286530817239
 21
87.58220331379422
 31
0.0
  0
LINE
  5
27D
330
1F
100
AcDbEntity
  8
VISIBLE
100
AcDbLine
 10
179.2786530817239
 20
87.58220331379422
 30
0.0
 11
179.2786530817239
 21
112.5822033137942
 31
0.0
  0
MTEXT
  5
27E
102
{ACAD_XDICTIONARY
360
27F
102
}
330
1F
100
AcDbEntity
  8
ANNOTATION_TEXT
 62
     7
100
AcDbMText
 10
203.7960030930212
 20
112.9067836950104
 30
0.0
 40
0.875
 41
0.0
 71
     2
 72
     1
  1
 1:1
  7
ONSHAPE-STANDARD-VIEW-LABE
1001
ACAD
1000
ACAD_MTEXT_DEFINED_HEIGHT_BEGIN
1070
    46
1040
0.875
1000
ACAD_MTEXT_DEFINED_HEIGHT_END
  0
MTEXT
  5
285
102
{ACAD_XDICTIONARY
360
286
102
}
330
1F
100
AcDbEntity
  8
ANNOTATION_TEXT
 62
     7
100
AcDbMText
 10
196.7786530817239
 20
80.89470331379422
 30
0.0
 40
0.875
 41
0.0
 71
     2
 72
     1
  1
 1:1
  7
ONSHAPE-STANDARD-VIEW-LABE
1001
ACAD
1000
ACAD_MTEXT_DEFINED_HEIGHT_BEGIN
1070
    46
1040
0.875
1000
ACAD_MTEXT_DEFINED_HEIGHT_END
  0
ENDSEC
  0
SECTION
  2
OBJECTS
  0
DICTIONARY
  5
C
330
0
100
AcDbDictionary
  3
ACAD_GROUP
350
D
  3
ACAD_LAYOUT
350
1A
  3
ACAD_MATERIAL
350
43
  3
ACAD_MLEADERSTYLE
350
6B
  3
ACAD_MLINESTYLE
350
17
  3
ACAD_PLOTSETTINGS
350
19
  3
ACAD_SCALELIST
350
47
  3
ACAD_VISUALSTYLE
350
2A
  3
ACDBHEADERROUNDTRIPXREC
350
2EB
  3
ACDBVARIABLEDICTIONARY
350
6E
  3
DWGPROPS
350
312
  3
ONSHAPE_DATA
350
289
  0
DICTIONARY
  5
313
330
8
100
AcDbDictionary
280
     1
  3
ACAD_XREC_ROUNDTRIP
360
314
  0
DICTIONARY
  5
27F
330
27E
100
AcDbDictionary
280
     1
  3
ONSHAPE_VIEW_ID
360
280
  0
DICTIONARY
  5
286
330
285
100
AcDbDictionary
280
     1
  3
ONSHAPE_VIEW_ID
360
287
  0
DICTIONARY
  5
D
102
{ACAD_REACTORS
330
C
102
}
330
C
100
AcDbDictionary
  0
DICTIONARY
  5
1A
102
{ACAD_REACTORS
330
C
102
}
330
C
100
AcDbDictionary
  0
DICTIONARY
  5
43
102
{ACAD_REACTORS
330
C
102
}
330
C
100
AcDbDictionary
  3
BYBLOCK
350
45
  3
BYLAYER
350
44
  3
GLOBAL
350
46
  0
DICTIONARY
  5
6B
102
{ACAD_REACTORS
330
C
102
}
330
C
100
AcDbDictionary
  3
STANDARD
350
6C
  0
DICTIONARY
  5
17
102
{ACAD_REACTORS
330
C
102
}
330
C
100
AcDbDictionary
  3
STANDARD
350
18
  0
DICTIONARY
  5
19
102
{ACAD_REACTORS
330
C
102
}
330
C
100
AcDbDictionary
  0
DICTIONARY
  5
47
102
{ACAD_REACTORS
330
C
102
}
330
C
100
AcDbDictionary
  3
A0
350
48
  3
A1
350
49
  3
A2
350
4A
  3
A3
350
4B
  3
A4
350
4C
  3
A5
350
4D
  3
A6
350
4E
  3
A7
350
4F
  3
A8
350
50
  3
A9
350
51
  3
B0
350
52
  3
B1
350
53
  3
B2
350
54
  3
B3
350
55
  3
B4
350
56
  3
B5
350
57
  3
B6
350
58
  3
B7
350
59
  3
B8
350
5A
  3
B9
350
5B
  3
C0
350
5C
  3
C1
350
5D
  3
C2
350
5E
  3
C3
350
5F
  3
C4
350
60
  3
C5
350
61
  3
C6
350
62
  3
C7
350
63
  3
C8
350
64
  3
C9
350
65
  3
D0
350
66
  3
D1
350
67
  3
D2
350
68
  0
DICTIONARY
  5
2A
102
{ACAD_REACTORS
330
C
102
}
330
C
100
AcDbDictionary
  3
2DWIREFRAME
350
2F
  3
BASIC
350
32
  3
BRIGHTEN
350
36
  3
COLORCHANGE
350
3A
  3
CONCEPTUAL
350
34
  3
DIM
350
35
  3
EDGECOLOROFF
350
3D
  3
FACEPATTERN
350
39
  3
FLAT
350
2B
  3
FLATWITHEDGES
350
2C
  3
GOURAUD
350
2D
  3
GOURAUDWITHEDGES
350
2E
  3
HIDDEN
350
31
  3
JITTEROFF
350
3B
  3
LINEPATTERN
350
38
  3
OVERHANGOFF
350
3C
  3
REALISTIC
350
33
  3
SHADED
350
42
  3
SHADED_WITH_EDGES
350
41
  3
SHADES_OF_GRAY
350
3E
  3
SKETCHY
350
3F
  3
THICKEN
350
37
  3
WIREFRAME
350
30
  3
X-RAY
350
40
  0
DICTIONARY
  5
2EB
102
{ACAD_REACTORS
330
C
102
}
330
C
100
AcDbDictionary
  3
CEPSNID
350
2F5
  3
CEPSNTYPE
350
2F4
  3
DIMSTYLEDATA
350
30B
  3
FINGERPRINTGUID
350
2F6
  3
HYPERLINKBASE
350
2EE
  3
INSUNITS
350
2F3
  3
LAYOUTDICT
350
2F0
  3
LWETCUNION
350
2F2
  3
PLOTSETDICT
350
2F1
  3
PSVPSCALE
350
2F8
  3
PUCSBASE
350
2FB
  3
PUCSORGBACK
350
301
  3
PUCSORGBOTTOM
350
2FD
  3
PUCSORGFRONT
350
300
  3
PUCSORGLEFT
350
2FE
  3
PUCSORGRIGHT
350
2FF
  3
PUCSORGTOP
350
2FC
  3
PUCSORTHOREF
350
2F9
  3
PUCSORTHOVIEW
350
2FA
  3
STYLESHEET
350
2EF
  3
TSTACKALIGN
350
2EC
  3
TSTACKSIZE
350
2ED
  3
UCSBASE
350
304
  3
UCSORGBACK
350
30A
  3
UCSORGBOTTOM
350
306
  3
UCSORGFRONT
350
309
  3
UCSORGLEFT
350
307
  3
UCSORGRIGHT
350
308
  3
UCSORGTOP
350
305
  3
UCSORTHOREF
350
302
  3
UCSORTHOVIEW
350
303
  3
VERSIONGUID
350
2F7
  0
DICTIONARY
  5
6E
102
{ACAD_REACTORS
330
C
102
}
330
C
100
AcDbDictionary
  3
CANNOSCALE
350
315
  3
CMLEADERSTYLE
350
30D
  3
CTABLESTYLE
350
30C
  3
DIMASSOC
350
310
  3
HIDETEXT
350
311
  3
MSLTSCALE
350
316
  3
OLEFRAME
350
6F
  0
XRECORD
  5
312
102
{ACAD_REACTORS
330
C
102
}
330
C
100
AcDbXrecord
  1
DWGPROPS COOKIE
  2

  3

  4

  6

  7

  8
nobody
  9

300
=
301
=
302
=
303
=
304
=
305
=
306
=
307
=
308
=
309
=
 40
0.0
 41
2461166.430846181
 42
2461166.430846713
  1

 90
        0
  0
DICTIONARY
  5
289
102
{ACAD_REACTORS
330
C
102
}
330
C
100
AcDbDictionary
280
     1
  3
DIM_UNITS
360
28A
  3
ONSHAPE_ANG_TOL_PRECISION
360
28D
  3
ONSHAPE_BREAK_DIMENSION_DEFAULT
360
293
  3
ONSHAPE_DIMENSION_TEXT_HOR
360
292
  3
ONSHAPE_FITCLASS_TOL_PRECISION
360
28E
  3
ONSHAPE_JOGDIMENSION_LOCK_
360
290
  3
ONSHAPE_SHOWDIMENSIONSLINE
360
291
  3
ONSHAPE_UNDERLINEOVERRIDEN
360
28F
  3
ONSHAPE_VSHARP_EXTENSION
360
28C
  3
ONSHAPE_WELD_STANDARD
360
28B
  0
XRECORD
  5
314
102
{ACAD_REACTORS
330
313
102
}
330
313
100
AcDbXrecord
102
VTR_0.000_0.000_1.000_1.000_VISUALSTYLE
340
2F
102
VTR_0.000_0.000_1.000_1.000_GRIDDISPLAY
 70
     3
102
VTR_0.000_0.000_1.000_1.000_GRIDMAJOR
 70
     5
102
VTR_0.000_0.000_1.000_1.000_DEFAULTLIGHTING
280
     1
102
VTR_0.000_0.000_1.000_1.000_DEFAULTLIGHTINGTYPE
 70
     1
102
VTR_0.000_0.000_1.000_1.000_BRIGHTNESS
141
0.0
102
VTR_0.000_0.000_1.000_1.000_CONTRAST
142
0.0
  0
XRECORD
  5
280
102
{ACAD_REACTORS
330
27F
102
}
330
27F
100
AcDbXrecord
330
0
  0
XRECORD
  5
287
102
{ACAD_REACTORS
330
286
102
}
330
286
100
AcDbXrecord
330
0
  0
MATERIAL
  5
45
102
{ACAD_REACTORS
330
43
102
}
102
{ACAD_XDICTIONARY
360
319
102
}
330
43
100
AcDbMaterial
  1
BYBLOCK
  0
MATERIAL
  5
44
102
{ACAD_REACTORS
330
43
102
}
102
{ACAD_XDICTIONARY
360
317
102
}
330
43
100
AcDbMaterial
  1
BYLAYER
  0
MATERIAL
  5
46
102
{ACAD_REACTORS
330
43
102
}
102
{ACAD_XDICTIONARY
360
31B
102
}
330
43
100
AcDbMaterial
  1
GLOBAL
  0
ACAD_PROXY_OBJECT
  5
6C
102
{ACAD_REACTORS
330
6B
102
}
330
6B
100
AcDbProxyObject
 90
      499
 91
      505
 93
      610
310
40901902A4063FBFFFFFE056BD1B81E855B9FC0AD7A3703D0AD73F4214DD185B99185C9900AD7A3703D0AC73F90140501A02B5E8DC0F42B1CFC02B5E8DC0F42B1CFE5764000000000000300FC0
340
14
340
0
340
11
340
0
 94
        0
1001
ACAD_MLEADERVER
1070
     2
  0
MLINESTYLE
  5
18
102
{ACAD_REACTORS
330
17
102
}
330
17
100
AcDbMlineStyle
  2
Standard
 70
     0
  3

 62
   256
 51
90.0
 52
90.0
 71
     2
 49
0.5
 62
   256
  6
BYLAYER
 49
-0.5
 62
   256
  6
BYLAYER
  0
ACAD_PROXY_OBJECT
  5
48
102
{ACAD_REACTORS
330
47
102
}
330
47
100
AcDbProxyObject
 90
      499
 91
      503
 93
       41
310
903313A31580
  0
ACAD_PROXY_OBJECT
  5
49
102
{ACAD_REACTORS
330
47
102
}
330
47
100
AcDbProxyObject
 90
      499
 91
      503
 93
      105
310
903313A324000000000000004000
  0
ACAD_PROXY_OBJECT
  5
4A
102
{ACAD_REACTORS
330
47
102
}
330
47
100
AcDbProxyObject
 90
      499
 91
      503
 93
      105
310
903313A344000000000000104000
  0
ACAD_PROXY_OBJECT
  5
4B
102
{ACAD_REACTORS
330
47
102
}
330
47
100
AcDbProxyObject
 90
      499
 91
      503
 93
      105
310
903313A354000000000000144000
  0
ACAD_PROXY_OBJECT
  5
4C
102
{ACAD_REACTORS
330
47
102
}
330
47
100
AcDbProxyObject
 90
      499
 91
      503
 93
      105
310
903313A384000000000000204000
  0
ACAD_PROXY_OBJECT
  5
4D
102
{ACAD_REACTORS
330
47
102
}
330
47
100
AcDbProxyObject
 90
      499
 91
      503
 93
      113
310
904313A31304000000000000244000
  0
ACAD_PROXY_OBJECT
  5
4E
102
{ACAD_REACTORS
330
47
102
}
330
47
100
AcDbProxyObject
 90
      499
 91
      503
 93
      113
310
904313A31364000000000000304000
  0
ACAD_PROXY_OBJECT
  5
4F
102
{ACAD_REACTORS
330
47
102
}
330
47
100
AcDbProxyObject
 90
      499
 91
      503
 93
      113
310
904313A32304000000000000344000
  0
ACAD_PROXY_OBJECT
  5
50
102
{ACAD_REACTORS
330
47
102
}
330
47
100
AcDbProxyObject
 90
      499
 91
      503
 93
      113
310
904313A333040000000000003E4000
  0
ACAD_PROXY_OBJECT
  5
51
102
{ACAD_REACTORS
330
47
102
}
330
47
100
AcDbProxyObject
 90
      499
 91
      503
 93
      113
310
904313A34304000000000000444000
  0
ACAD_PROXY_OBJECT
  5
52
102
{ACAD_REACTORS
330
47
102
}
330
47
100
AcDbProxyObject
 90
      499
 91
      503
 93
      113
310
904313A35304000000000000494000
  0
ACAD_PROXY_OBJECT
  5
53
102
{ACAD_REACTORS
330
47
102
}
330
47
100
AcDbProxyObject
 90
      499
 91
      503
 93
      121
310
905313A3130304000000000000594000
  0
ACAD_PROXY_OBJECT
  5
54
102
{ACAD_REACTORS
330
47
102
}
330
47
100
AcDbProxyObject
 90
      499
 91
      503
 93
      105
310
903323A310000000000000010100
  0
ACAD_PROXY_OBJECT
  5
55
102
{ACAD_REACTORS
330
47
102
}
330
47
100
AcDbProxyObject
 90
      499
 91
      503
 93
      105
310
903343A310000000000000410100
  0
ACAD_PROXY_OBJECT
  5
56
102
{ACAD_REACTORS
330
47
102
}
330
47
100
AcDbProxyObject
 90
      499
 91
      503
 93
      105
310
903383A310000000000000810100
  0
ACAD_PROXY_OBJECT
  5
57
102
{ACAD_REACTORS
330
47
102
}
330
47
100
AcDbProxyObject
 90
      499
 91
      503
 93
      113
310
90431303A310000000000000910100
  0
ACAD_PROXY_OBJECT
  5
58
102
{ACAD_REACTORS
330
47
102
}
330
47
100
AcDbProxyObject
 90
      499
 91
      503
 93
      121
310
9053130303A310000000000001650100
  0
ACAD_PROXY_OBJECT
  5
59
102
{ACAD_REACTORS
330
47
102
}
330
47
100
AcDbProxyObject
 90
      499
 91
      503
 93
      257
310
90E312F31323822203D2031272D3022000000000000200FC000000000000284000
  0
ACAD_PROXY_OBJECT
  5
5A
102
{ACAD_REACTORS
330
47
102
}
330
47
100
AcDbProxyObject
 90
      499
 91
      503
 93
      249
310
90D312F363422203D2031272D3022000000000000240FC000000000000284000
  0
ACAD_PROXY_OBJECT
  5
5B
102
{ACAD_REACTORS
330
47
102
}
330
47
100
AcDbProxyObject
 90
      499
 91
      503
 93
      249
310
90D312F333222203D2031272D3022000000000000280FC000000000000284000
  0
ACAD_PROXY_OBJECT
  5
5C
102
{ACAD_REACTORS
330
47
102
}
330
47
100
AcDbProxyObject
 90
      499
 91
      503
 93
      249
310
90D312F313622203D2031272D30220000000000002C0FC000000000000284000
  0
ACAD_PROXY_OBJECT
  5
5D
102
{ACAD_REACTORS
330
47
102
}
330
47
100
AcDbProxyObject
 90
      499
 91
      503
 93
      249
310
90D332F333222203D2031272D30220000000000002E0FC000000000000284000
  0
ACAD_PROXY_OBJECT
  5
5E
102
{ACAD_REACTORS
330
47
102
}
330
47
100
AcDbProxyObject
 90
      499
 91
      503
 93
      241
310
90C312F3822203D2031272D3022000000000000300FC000000000000284000
  0
ACAD_PROXY_OBJECT
  5
5F
102
{ACAD_REACTORS
330
47
102
}
330
47
100
AcDbProxyObject
 90
      499
 91
      503
 93
      249
310
90D332F313622203D2031272D3022000000000000320FC000000000000284000
  0
ACAD_PROXY_OBJECT
  5
60
102
{ACAD_REACTORS
330
47
102
}
330
47
100
AcDbProxyObject
 90
      499
 91
      503
 93
      241
310
90C312F3422203D2031272D3022000000000000340FC000000000000284000
  0
ACAD_PROXY_OBJECT
  5
61
102
{ACAD_REACTORS
330
47
102
}
330
47
100
AcDbProxyObject
 90
      499
 91
      503
 93
      241
310
90C332F3822203D2031272D3022000000000000360FC000000000000284000
  0
ACAD_PROXY_OBJECT
  5
62
102
{ACAD_REACTORS
330
47
102
}
330
47
100
AcDbProxyObject
 90
      499
 91
      503
 93
      241
310
90C312F3222203D2031272D3022000000000000380FC000000000000284000
  0
ACAD_PROXY_OBJECT
  5
63
102
{ACAD_REACTORS
330
47
102
}
330
47
100
AcDbProxyObject
 90
      499
 91
      503
 93
      241
310
90C332F3422203D2031272D30220000000000003A0FC000000000000284000
  0
ACAD_PROXY_OBJECT
  5
64
102
{ACAD_REACTORS
330
47
102
}
330
47
100
AcDbProxyObject
 90
      499
 91
      503
 93
      161
310
90A3122203D2031272D30224000000000000284000
  0
ACAD_PROXY_OBJECT
  5
65
102
{ACAD_REACTORS
330
47
102
}
330
47
100
AcDbProxyObject
 90
      499
 91
      503
 93
      257
310
90E312D312F3222203D2031272D30220000000000003E0FC000000000000284000
  0
ACAD_PROXY_OBJECT
  5
66
102
{ACAD_REACTORS
330
47
102
}
330
47
100
AcDbProxyObject
 90
      499
 91
      503
 93
      225
310
90A3322203D2031272D302200000000000002100000000000000284000
  0
ACAD_PROXY_OBJECT
  5
67
102
{ACAD_REACTORS
330
47
102
}
330
47
100
AcDbProxyObject
 90
      499
 91
      503
 93
      225
310
90A3622203D2031272D302200000000000006100000000000000284000
  0
ACAD_PROXY_OBJECT
  5
68
102
{ACAD_REACTORS
330
47
102
}
330
47
100
AcDbProxyObject
 90
      499
 91
      503
 93
      249
310
90D31272D3022203D2031272D30220000000000000A100000000000000284000
  0
ACAD_PROXY_OBJECT
  5
2F
102
{ACAD_REACTORS
330
2A
102
}
330
2A
100
AcDbProxyObject
 90
      499
 91
      501
 93
      436
310
42CC9915DA5C99599C985B595049028333333333333E33F0000000000000F90107901411070040501600405405064090741402480A0340
1001
ACAD
1000
AcDbSavedByObjectVersion
1070
     0
  0
ACAD_PROXY_OBJECT
  5
32
102
{ACAD_REACTORS
330
2A
102
}
330
2A
100
AcDbProxyObject
 90
      499
 91
      501
 93
      388
310
4150985CDA58D07406404333333333333E33F0000000000000F90107A41107004050150841D405064090741402480A0350
1001
ACAD
1000
AcDbSavedByObjectVersion
1070
     0
  0
ACAD_PROXY_OBJECT
  5
36
102
{ACAD_REACTORS
330
2A
102
}
330
2A
100
AcDbProxyObject
 90
      499
 91
      501
 93
      428
310
42109C9A59DA1D195B90C409028333333333333E33F0000000000000F9010790141107004050150841D405064090741402480A029950
1001
ACAD
1000
AcDbSavedByObjectVersion
1070
     0
  0
ACAD_PROXY_OBJECT
  5
3A
102
{ACAD_REACTORS
330
2A
102
}
330
2A
100
AcDbProxyObject
 90
      499
 91
      501
 93
      452
310
42D0DBDB1BDC90DA185B99D95104090240C333333333333E33F0000000000000F90108901411070040501508421405064090741402480A0350
1001
ACAD
1000
AcDbSavedByObjectVersion
1070
     0
  0
ACAD_PROXY_OBJECT
  5
34
102
{ACAD_REACTORS
330
2A
102
}
330
2A
100
AcDbProxyObject
 90
      499
 91
      501
 93
      500
310
4290DBDB98D95C1D1D585B10940D028333333333333E33F0000000000000F90107902409070040501000000000018199010841D405064090740C02480A0340
1001
ACAD
1000
AcDbSavedByObjectVersion
1070
     0
  0
ACAD_PROXY_OBJECT
  5
35
102
{ACAD_REACTORS
330
2A
102
}
330
2A
100
AcDbProxyObject
 90
      499
 91
      501
 93
      412
310
40D11A5B50B409028333333333333E33F0000000000000F9010790141107004050150841D405064090741402480A02677FFFFFD0
1001
ACAD
1000
AcDbSavedByObjectVersion
1070
     0
  0
ACAD_PROXY_OBJECT
  5
3D
102
{ACAD_REACTORS
330
2A
102
}
330
2A
100
AcDbProxyObject
 90
      499
 91
      501
 93
      452
310
43115919D950DBDB1BDC93D999916409028333333333333E33F0000000000000F9010790141107004050150841D405064090741402480A0350
1001
ACAD
1000
AcDbSavedByObjectVersion
1070
     0
  0
ACAD_PROXY_OBJECT
  5
39
102
{ACAD_REACTORS
330
2A
102
}
330
2A
100
AcDbProxyObject
 90
      499
 91
      501
 93
      444
310
42D19858D95C185D1D195C9B90F409028333333333333E33F0000000000000F9010790141107004050150841D405064090741402480A0350
1001
ACAD
1000
AcDbSavedByObjectVersion
1070
     0
  0
ACAD_PROXY_OBJECT
  5
2B
102
{ACAD_REACTORS
330
2A
102
}
330
2A
100
AcDbProxyObject
 90
      499
 91
      501
 93
      380
310
41119B185D240901404333333333333E33F0000000000000F9010740A907004050150841D405064090741402480A1B50
1001
ACAD
1000
AcDbSavedByObjectVersion
1070
     0
  0
ACAD_PROXY_OBJECT
  5
2C
102
{ACAD_REACTORS
330
2A
102
}
330
2A
100
AcDbProxyObject
 90
      499
 91
      501
 93
      468
310
43519B185D15DA5D1A115919D95CD0140901404333333333333E33F0000000000000F90107409019070040501600405405064090741402480A1B50
1001
ACAD
1000
AcDbSavedByObjectVersion
1070
     0
  0
ACAD_PROXY_OBJECT
  5
2D
102
{ACAD_REACTORS
330
2A
102
}
330
2A
100
AcDbProxyObject
 90
      499
 91
      501
 93
      404
310
41D1DBDD5C985D5910240902404333333333333E33F0000000000000F9010740A9070040501641D405064090741402480A1B50
1001
ACAD
1000
AcDbSavedByObjectVersion
1070
     0
  0
ACAD_PROXY_OBJECT
  5
2E
102
{ACAD_REACTORS
330
2A
102
}
330
2A
100
AcDbProxyObject
 90
      499
 91
      501
 93
      492
310
4411DBDD5C985D5915DA5D1A115919D95CD0340902404333333333333E33F0000000000000F90107409019070040501600405405064090741402480A1B50
1001
ACAD
1000
AcDbSavedByObjectVersion
1070
     0
  0
ACAD_PROXY_OBJECT
  5
31
102
{ACAD_REACTORS
330
2A
102
}
330
2A
100
AcDbProxyObject
 90
      499
 91
      501
 93
      476
310
41921A5919195B90640502408333333333333E33F0000000000000F901079024090700405020000000000001110200405405064090740C02480A0340
1001
ACAD
1000
AcDbSavedByObjectVersion
1070
     0
  0
ACAD_PROXY_OBJECT
  5
3B
102
{ACAD_REACTORS
330
2A
102
}
330
2A
100
AcDbProxyObject
 90
      499
 91
      501
 93
      428
310
42529A5D1D195C93D999914409028333333333333E33F0000000000000F9010790141107004050150A41D405064090741402480A0350
1001
ACAD
1000
AcDbSavedByObjectVersion
1070
     0
  0
ACAD_PROXY_OBJECT
  5
38
102
{ACAD_REACTORS
330
2A
102
}
330
2A
100
AcDbProxyObject
 90
      499
 91
      501
 93
      444
310
42D31A5B995C185D1D195C9B90E409028333333333333E33F0000000000000F9010790141107004050750841D405064090741402483A0350
1001
ACAD
1000
AcDbSavedByObjectVersion
1070
     0
  0
ACAD_PROXY_OBJECT
  5
3C
102
{ACAD_REACTORS
330
2A
102
}
330
2A
100
AcDbProxyObject
 90
      499
 91
      501
 93
      444
310
42D3DD995C9A185B99D3D999915409028333333333333E33F0000000000000F9010790141107004050150941D405064090741402480A0350
1001
ACAD
1000
AcDbSavedByObjectVersion
1070
     0
  0
ACAD_PROXY_OBJECT
  5
33
102
{ACAD_REACTORS
330
2A
102
}
330
2A
100
AcDbProxyObject
 90
      499
 91
      501
 93
      428
310
425499585B1A5CDD1A58D08409038333333333333E33F0000000000000F9010740A907004050150800405405064090740C02480A1B40
1001
ACAD
1000
AcDbSavedByObjectVersion
1070
     0
  0
ACAD_PROXY_OBJECT
  5
42
102
{ACAD_REACTORS
330
2A
102
}
330
2A
100
AcDbProxyObject
 90
      499
 91
      501
 93
      420
310
4194DA1859195911B40902404333333333333E33F0000000000000F9010740A41107004050150800405405064090840C02480A0B40
1001
ACAD
1000
AcDbSavedByObjectVersion
1070
     0
  0
ACAD_PROXY_OBJECT
  5
41
102
{ACAD_REACTORS
330
2A
102
}
330
2A
100
AcDbProxyObject
 90
      499
 91
      501
 93
      516
310
4454DA18591959081DDA5D1A08195919D95CD1A40902404333333333333E33F0000000000000F901074090142907004050250800405405064090740C02480A0B40
1001
ACAD
1000
AcDbSavedByObjectVersion
1070
     0
  0
ACAD_PROXY_OBJECT
  5
3E
102
{ACAD_REACTORS
330
2A
102
}
330
2A
100
AcDbProxyObject
 90
      499
 91
      501
 93
      532
310
4394DA1859195CC81BD98811DC985E5174090240C333333333333E33F0000000000000F901079024090741D01000000000000111010841D405064090740C02480A0340
1001
ACAD
1000
AcDbSavedByObjectVersion
1070
     0
  0
ACAD_PROXY_OBJECT
  5
3F
102
{ACAD_REACTORS
330
2A
102
}
330
2A
100
AcDbProxyObject
 90
      499
 91
      501
 93
      476
310
41D4DAD95D18DA1E51840502408333333333333E33F0000000000000F901079024090741D01000000000000111010B41D405064090741802480A0340
1001
ACAD
1000
AcDbSavedByObjectVersion
1070
     0
  0
ACAD_PROXY_OBJECT
  5
37
102
{ACAD_REACTORS
330
2A
102
}
330
2A
100
AcDbProxyObject
 90
      499
 91
      501
 93
      412
310
41D51A1A58DAD95B90D409028333333333333E33F0000000000000F9010790141107004050150C41D405064090741402480A0350
1001
ACAD
1000
AcDbSavedByObjectVersion
1070
     0
  0
ACAD_PROXY_OBJECT
  5
30
102
{ACAD_REACTORS
330
2A
102
}
330
2A
100
AcDbProxyObject
 90
      499
 91
      501
 93
      420
310
4255DA5C99599C985B595059028333333333333E33F0000000000000F90107901411070040501600405405064090740C02480A0340
1001
ACAD
1000
AcDbSavedByObjectVersion
1070
     0
  0
ACAD_PROXY_OBJECT
  5
40
102
{ACAD_REACTORS
330
2A
102
}
330
2A
100
AcDbProxyObject
 90
      499
 91
      501
 93
      404
310
41560B54985E51940902404000000000000E03F0000000000000F9010740501907004050150841D405064090740C02480A1B40
1001
ACAD
1000
AcDbSavedByObjectVersion
1070
     0
  0
XRECORD
  5
2F5
102
{ACAD_REACTORS
330
2EB
102
}
330
2EB
100
AcDbXrecord
340
0
  0
XRECORD
  5
2F4
102
{ACAD_REACTORS
330
2EB
102
}
330
2EB
100
AcDbXrecord
 90
        0
  0
XRECORD
  5
30B
102
{ACAD_REACTORS
330
2EB
102
}
330
2EB
100
AcDbXrecord
1000
DSTYLE
1002
{
1070
   179
 70
     1
1070
   170
 70
     1
1070
   171
 70
     3
1070
   143
 40
0.0393700787401575
1070
   274
 70
     3
1070
   285
 70
     8
1070
    41
 40
2.5
1070
   141
 40
2.5
1070
   176
 70
     7
1070
   177
 70
     7
1070
   178
 70
     7
1070
   271
 70
     2
1070
    43
 40
3.75
1070
   278
 70
    44
1070
    44
 40
1.25
1070
    42
 40
0.625
1070
   147
 40
0.625
1070
   144
 40
-0.25
1070
   371
 70
    13
1070
   372
 70
    13
1070
    40
 40
0.25
1070
    77
 70
     1
1070
   272
 70
     2
1070
    73
 70
     0
1070
   172
 70
     1
1070
    74
 70
     0
1070
   283
 70
     0
1070
   340
340
73
1070
   140
 40
3.5
1070
   284
 70
     8
1070
   288
 70
     1
1070
    78
 70
     8
1002
}
  0
XRECORD
  5
2F6
102
{ACAD_REACTORS
330
2EB
102
}
330
2EB
100
AcDbXrecord
  1
{e4723673-3277-7474-3177-71736237e371}
  0
XRECORD
  5
2EE
102
{ACAD_REACTORS
330
2EB
102
}
330
2EB
100
AcDbXrecord
  1

  0
XRECORD
  5
2F3
102
{ACAD_REACTORS
330
2EB
102
}
330
2EB
100
AcDbXrecord
 90
        4
  0
XRECORD
  5
2F0
102
{ACAD_REACTORS
330
2EB
102
}
330
2EB
100
AcDbXrecord
340
1A
  0
XRECORD
  5
2F2
102
{ACAD_REACTORS
330
2EB
102
}
330
2EB
100
AcDbXrecord
 90
    10269
  0
XRECORD
  5
2F1
102
{ACAD_REACTORS
330
2EB
102
}
330
2EB
100
AcDbXrecord
340
19
  0
XRECORD
  5
2F8
102
{ACAD_REACTORS
330
2EB
102
}
330
2EB
100
AcDbXrecord
 40
0.0
  0
XRECORD
  5
2FB
102
{ACAD_REACTORS
330
2EB
102
}
330
2EB
100
AcDbXrecord
340
0
  0
XRECORD
  5
301
102
{ACAD_REACTORS
330
2EB
102
}
330
2EB
100
AcDbXrecord
 10
0.0
 20
0.0
 30
0.0
  0
XRECORD
  5
2FD
102
{ACAD_REACTORS
330
2EB
102
}
330
2EB
100
AcDbXrecord
 10
0.0
 20
0.0
 30
0.0
  0
XRECORD
  5
300
102
{ACAD_REACTORS
330
2EB
102
}
330
2EB
100
AcDbXrecord
 10
0.0
 20
0.0
 30
0.0
  0
XRECORD
  5
2FE
102
{ACAD_REACTORS
330
2EB
102
}
330
2EB
100
AcDbXrecord
 10
0.0
 20
0.0
 30
0.0
  0
XRECORD
  5
2FF
102
{ACAD_REACTORS
330
2EB
102
}
330
2EB
100
AcDbXrecord
 10
0.0
 20
0.0
 30
0.0
  0
XRECORD
  5
2FC
102
{ACAD_REACTORS
330
2EB
102
}
330
2EB
100
AcDbXrecord
 10
0.0
 20
0.0
 30
0.0
  0
XRECORD
  5
2F9
102
{ACAD_REACTORS
330
2EB
102
}
330
2EB
100
AcDbXrecord
340
0
  0
XRECORD
  5
2FA
102
{ACAD_REACTORS
330
2EB
102
}
330
2EB
100
AcDbXrecord
 70
     0
  0
XRECORD
  5
2EF
102
{ACAD_REACTORS
330
2EB
102
}
330
2EB
100
AcDbXrecord
  1

  0
XRECORD
  5
2EC
102
{ACAD_REACTORS
330
2EB
102
}
330
2EB
100
AcDbXrecord
 90
        1
  0
XRECORD
  5
2ED
102
{ACAD_REACTORS
330
2EB
102
}
330
2EB
100
AcDbXrecord
 90
       70
  0
XRECORD
  5
304
102
{ACAD_REACTORS
330
2EB
102
}
330
2EB
100
AcDbXrecord
340
0
  0
XRECORD
  5
30A
102
{ACAD_REACTORS
330
2EB
102
}
330
2EB
100
AcDbXrecord
 10
0.0
 20
0.0
 30
0.0
  0
XRECORD
  5
306
102
{ACAD_REACTORS
330
2EB
102
}
330
2EB
100
AcDbXrecord
 10
0.0
 20
0.0
 30
0.0
  0
XRECORD
  5
309
102
{ACAD_REACTORS
330
2EB
102
}
330
2EB
100
AcDbXrecord
 10
0.0
 20
0.0
 30
0.0
  0
XRECORD
  5
307
102
{ACAD_REACTORS
330
2EB
102
}
330
2EB
100
AcDbXrecord
 10
0.0
 20
0.0
 30
0.0
  0
XRECORD
  5
308
102
{ACAD_REACTORS
330
2EB
102
}
330
2EB
100
AcDbXrecord
 10
0.0
 20
0.0
 30
0.0
  0
XRECORD
  5
305
102
{ACAD_REACTORS
330
2EB
102
}
330
2EB
100
AcDbXrecord
 10
0.0
 20
0.0
 30
0.0
  0
XRECORD
  5
302
102
{ACAD_REACTORS
330
2EB
102
}
330
2EB
100
AcDbXrecord
340
0
  0
XRECORD
  5
303
102
{ACAD_REACTORS
330
2EB
102
}
330
2EB
100
AcDbXrecord
 70
     0
  0
XRECORD
  5
2F7
102
{ACAD_REACTORS
330
2EB
102
}
330
2EB
100
AcDbXrecord
  1
{FAEB1C32-E019-11D5-929B-00C0DF256EC4}
  0
DICTIONARYVAR
  5
315
102
{ACAD_REACTORS
330
6E
102
}
330
6E
100
DictionaryVariables
280
     0
  1
1:1
  0
DICTIONARYVAR
  5
30D
102
{ACAD_REACTORS
330
6E
102
}
330
6E
100
DictionaryVariables
280
     0
  1
Standard
  0
DICTIONARYVAR
  5
30C
102
{ACAD_REACTORS
330
6E
102
}
330
6E
100
DictionaryVariables
280
     0
  1
Onshape-Standard
  0
DICTIONARYVAR
  5
310
102
{ACAD_REACTORS
330
6E
102
}
330
6E
100
DictionaryVariables
280
     0
  1
2
  0
DICTIONARYVAR
  5
311
102
{ACAD_REACTORS
330
6E
102
}
330
6E
100
DictionaryVariables
280
     0
  1
1
  0
DICTIONARYVAR
  5
316
102
{ACAD_REACTORS
330
6E
102
}
330
6E
100
DictionaryVariables
280
     0
  1
1
  0
DICTIONARYVAR
  5
6F
102
{ACAD_REACTORS
330
6E
102
}
330
6E
100
DictionaryVariables
280
     0
  1
0
  0
XRECORD
  5
28A
102
{ACAD_REACTORS
330
289
102
}
330
289
100
AcDbXrecord
 70
     4
  0
XRECORD
  5
28D
102
{ACAD_REACTORS
330
289
102
}
330
289
100
AcDbXrecord
 90
        0
  0
ACAD_PROXY_OBJECT
  5
293
102
{ACAD_REACTORS
330
289
102
}
330
289
100
AcDbProxyObject
 90
      499
 91
      508
 93
       34
310
40C8804040
  0
XRECORD
  5
292
102
{ACAD_REACTORS
330
289
102
}
330
289
100
AcDbXrecord
 90
        5
  0
XRECORD
  5
28E
102
{ACAD_REACTORS
330
289
102
}
330
289
100
AcDbXrecord
 90
        3
  0
XRECORD
  5
290
102
{ACAD_REACTORS
330
289
102
}
330
289
100
AcDbXrecord
 90
        0
  0
ACAD_PROXY_OBJECT
  5
291
102
{ACAD_REACTORS
330
289
102
}
330
289
100
AcDbProxyObject
 90
      499
 91
      508
 93
       34
310
40C8804040
  0
ACAD_PROXY_OBJECT
  5
28F
102
{ACAD_REACTORS
330
289
102
}
330
289
100
AcDbProxyObject
 90
      499
 91
      508
 93
       34
310
40C8804040
  0
XRECORD
  5
28C
102
{ACAD_REACTORS
330
289
102
}
330
289
100
AcDbXrecord
 90
        0
  0
XRECORD
  5
28B
102
{ACAD_REACTORS
330
289
102
}
330
289
100
AcDbXrecord
 90
        1
  0
DICTIONARY
  5
319
330
45
100
AcDbDictionary
280
     1
  3
ACAD_XREC_ROUNDTRIP
360
31A
  0
DICTIONARY
  5
317
330
44
100
AcDbDictionary
280
     1
  3
ACAD_XREC_ROUNDTRIP
360
318
  0
DICTIONARY
  5
31B
330
46
100
AcDbDictionary
280
     1
  3
ACAD_XREC_ROUNDTRIP
360
31C
  0
XRECORD
  5
31A
102
{ACAD_REACTORS
330
319
102
}
330
319
100
AcDbXrecord
102
MATERIAL
148
0.0
149
0.0
149
0.0
 93
        0
 94
      127
282
     0
 72
     1
 77
     1
171
     1
175
     1
179
     1
273
     0
  0
XRECORD
  5
318
102
{ACAD_REACTORS
330
317
102
}
330
317
100
AcDbXrecord
102
MATERIAL
148
0.0
149
0.0
149
0.0
 93
        0
 94
      127
282
     0
 72
     1
 77
     1
171
     1
175
     1
179
     1
273
     0
  0
XRECORD
  5
31C
102
{ACAD_REACTORS
330
31B
102
}
330
31B
100
AcDbXrecord
102
MATERIAL
148
0.0
149
0.0
149
0.0
 93
        0
 94
      127
282
     0
 72
     1
 77
     1
171
     1
175
     1
179
     1
273
     0
  0
ENDSEC
  0
EOF
